<?xml version="1.0"?>
<svg xmlns="http://www.w3.org/2000/svg" version="1.1" width="600px" height="600px" viewBox="0 0 200 200" style="overflow:hidden!important;">
  <defs id="SvgjsDefs3604">
    <radialGradient id="SvgjsRadialGradient3665" cx="100" cy="113" r="40" gradientUnits="userSpaceOnUse" class="svga-on-canvas-facehighlight-gradient-single-0">
      <stop id="SvgjsStop3666" stop-opacity="0.5" stop-color="#f0beb7" offset="0"/>
      <stop id="SvgjsStop3667" stop-opacity="0" stop-color="#e19e95" offset="0.9"/>
    </radialGradient>
    <radialGradient id="SvgjsRadialGradient3669" cx="100" cy="57" r="36" gradientUnits="userSpaceOnUse" class="svga-on-canvas-facehighlight-gradient-single-1">
      <stop id="SvgjsStop3670" stop-opacity="0.5" stop-color="#f0beb7" offset="0"/>
      <stop id="SvgjsStop3671" stop-opacity="0" stop-color="#e19e95" offset="0.9"/>
    </radialGradient>
    <radialGradient id="SvgjsRadialGradient3750" cx="-558.588" cy="-490.918" r="84.646" gradientTransform="matrix(0.096 -0.0248 0.0245 0.0961 140.5478 120.3577)" gradientUnits="userSpaceOnUse" class="svga-on-canvas-eyesiris-gradient-left-1">
      <stop id="SvgjsStop3751" stop-opacity="0.8" stop-color="#ffffff" offset="0"/>
      <stop id="SvgjsStop3752" stop-opacity="0" stop-color="#ffffff" offset="1"/>
    </radialGradient>
    <radialGradient id="SvgjsRadialGradient3754" cx="-565.337" cy="-492.691" r="84.644" gradientTransform="matrix(0.0991 8.856325e-004 -0.0011 0.0991 130.3774 136.3533)" gradientUnits="userSpaceOnUse" class="svga-on-canvas-eyesiris-gradient-left-2">
      <stop id="SvgjsStop3755" stop-opacity="0.8" stop-color="#ffffff" offset="0"/>
      <stop id="SvgjsStop3756" stop-opacity="0" stop-color="#ffffff" offset="1"/>
    </radialGradient>
    <linearGradient id="SvgjsLinearGradient3760" x1="122.283" y1="93.047" x2="123.61" y2="91.466" gradientTransform="matrix(1 0 0 1 -52 0)" gradientUnits="userSpaceOnUse" class="svga-on-canvas-eyesiris-gradient-left-5">
      <stop id="SvgjsStop3761" stop-opacity="1" stop-color="#ffffff" offset="0"/>
      <stop id="SvgjsStop3762" stop-opacity="0" stop-color="#ffffff" offset="1"/>
    </linearGradient>
    <linearGradient id="SvgjsLinearGradient3764" x1="127" y1="85" x2="125" y2="87" gradientTransform="matrix(1 0 0 1 -50 0)" gradientUnits="userSpaceOnUse" class="svga-on-canvas-eyesiris-gradient-left-6">
      <stop id="SvgjsStop3765" stop-opacity="1" stop-color="#ffffff" offset="0"/>
      <stop id="SvgjsStop3766" stop-opacity="0" stop-color="#ffffff" offset="1"/>
    </linearGradient>
    <linearGradient id="SvgjsLinearGradient3768" x1="130" y1="81" x2="126" y2="85" gradientTransform="matrix(1 0 0 1 -50 0)" gradientUnits="userSpaceOnUse" class="svga-on-canvas-eyesiris-gradient-left-7">
      <stop id="SvgjsStop3769" stop-opacity="1" stop-color="#ffffff" offset="0"/>
      <stop id="SvgjsStop3770" stop-opacity="0" stop-color="#ffffff" offset="1"/>
    </linearGradient>
    <radialGradient id="SvgjsRadialGradient3773" cx="-578.76" cy="-490.73" r="84.646" gradientTransform="matrix(0.096 -0.0248 0.0245 0.0961 192.4794 119.8404)" gradientUnits="userSpaceOnUse" class="svga-on-canvas-eyesiris-gradient-right-1">
      <stop id="SvgjsStop3774" stop-opacity="0.8" stop-color="#ffffff" offset="0"/>
      <stop id="SvgjsStop3775" stop-opacity="0" stop-color="#ffffff" offset="1"/>
    </radialGradient>
    <radialGradient id="SvgjsRadialGradient3777" cx="-584.778" cy="-487.329" r="84.644" gradientTransform="matrix(0.0991 8.856325e-004 -0.0011 0.0991 182.3104 135.839)" gradientUnits="userSpaceOnUse" class="svga-on-canvas-eyesiris-gradient-right-2">
      <stop id="SvgjsStop3778" stop-opacity="0.8" stop-color="#ffffff" offset="0"/>
      <stop id="SvgjsStop3779" stop-opacity="0" stop-color="#ffffff" offset="1"/>
    </radialGradient>
    <linearGradient id="SvgjsLinearGradient3783" x1="120.284" y1="93.047" x2="121.611" y2="91.467" gradientUnits="userSpaceOnUse" class="svga-on-canvas-eyesiris-gradient-right-5">
      <stop id="SvgjsStop3784" stop-opacity="1" stop-color="#ffffff" offset="0"/>
      <stop id="SvgjsStop3785" stop-opacity="0" stop-color="#ffffff" offset="1"/>
    </linearGradient>
    <linearGradient id="SvgjsLinearGradient3787" x1="127" y1="85" x2="125" y2="87" gradientUnits="userSpaceOnUse" class="svga-on-canvas-eyesiris-gradient-right-6">
      <stop id="SvgjsStop3788" stop-opacity="1" stop-color="#ffffff" offset="0"/>
      <stop id="SvgjsStop3789" stop-opacity="0" stop-color="#ffffff" offset="1"/>
    </linearGradient>
    <linearGradient id="SvgjsLinearGradient3791" x1="130" y1="81" x2="126" y2="85" gradientUnits="userSpaceOnUse" class="svga-on-canvas-eyesiris-gradient-right-7">
      <stop id="SvgjsStop3792" stop-opacity="1" stop-color="#ffffff" offset="0"/>
      <stop id="SvgjsStop3793" stop-opacity="0" stop-color="#ffffff" offset="1"/>
    </linearGradient>
    <radialGradient id="SvgjsRadialGradient3856" cx="124.93" cy="86.966" r="13.199" gradientTransform="matrix(-1.0172 0 0 1.0172 202.565 -1.469)" gradientUnits="userSpaceOnUse" class="svga-on-canvas-eyesback-gradient-left-0">
      <stop id="SvgjsStop3857" stop-opacity="1" stop-color="#ffffff" offset="0"/>
      <stop id="SvgjsStop3858" stop-opacity="1" stop-color="#fdfefe" offset="0.544"/>
      <stop id="SvgjsStop3859" stop-opacity="1" stop-color="#f6f8f9" offset="0.74"/>
      <stop id="SvgjsStop3860" stop-opacity="1" stop-color="#eaeff2" offset="0.879"/>
      <stop id="SvgjsStop3861" stop-opacity="1" stop-color="#d9e3e8" offset="0.992"/>
      <stop id="SvgjsStop3862" stop-opacity="1" stop-color="#d8e2e7" offset="1"/>
    </radialGradient>
    <radialGradient id="SvgjsRadialGradient3864" cx="124.93" cy="86.966" r="13.199" gradientTransform="matrix(1.0172 0 0 1.0172 -2.565 -1.469)" gradientUnits="userSpaceOnUse" class="svga-on-canvas-eyesback-gradient-right-0">
      <stop id="SvgjsStop3865" stop-opacity="1" stop-color="#ffffff" offset="0"/>
      <stop id="SvgjsStop3866" stop-opacity="1" stop-color="#fdfefe" offset="0.544"/>
      <stop id="SvgjsStop3867" stop-opacity="1" stop-color="#f6f8f9" offset="0.74"/>
      <stop id="SvgjsStop3868" stop-opacity="1" stop-color="#eaeff2" offset="0.879"/>
      <stop id="SvgjsStop3869" stop-opacity="1" stop-color="#d9e3e8" offset="0.992"/>
      <stop id="SvgjsStop3870" stop-opacity="1" stop-color="#d8e2e7" offset="1"/>
    </radialGradient>
    <radialGradient id="SvgjsRadialGradient3872" cx="124.93" cy="86.966" r="13.199" gradientTransform="matrix(-1.0172 0 0 1.0172 202.565 -1.469)" gradientUnits="userSpaceOnUse" class="svga-on-canvas-eyesfront-gradient-left-0">
      <stop id="SvgjsStop3873" stop-opacity="1" stop-color="#ffffff" offset="0"/>
      <stop id="SvgjsStop3874" stop-opacity="1" stop-color="#fdfefe" offset="0.544"/>
      <stop id="SvgjsStop3875" stop-opacity="1" stop-color="#f6f8f9" offset="0.74"/>
      <stop id="SvgjsStop3876" stop-opacity="1" stop-color="#eaeff2" offset="0.879"/>
      <stop id="SvgjsStop3877" stop-opacity="1" stop-color="#d9e3e8" offset="0.992"/>
      <stop id="SvgjsStop3878" stop-opacity="1" stop-color="#d8e2e7" offset="1"/>
    </radialGradient>
    <radialGradient id="SvgjsRadialGradient3882" cx="122.469" cy="85.751" fx="134.713" fy="85.785" r="17.414" gradientTransform="matrix(0.9998 0.0208 0.0166 -0.7998 -46.3384 151.7877)" gradientUnits="userSpaceOnUse" class="svga-on-canvas-eyesfront-gradient-left-3">
      <stop id="SvgjsStop3883" stop-opacity="1" stop-color="#d28176" offset="0"/>
      <stop id="SvgjsStop3884" stop-opacity="0.3" stop-color="#d28176" offset="0.7"/>
      <stop id="SvgjsStop3885" stop-opacity="0" stop-color="#e19e95" offset="1"/>
    </radialGradient>
    <radialGradient id="SvgjsRadialGradient3887" cx="71.413" cy="110.215" r="30.925" gradientTransform="matrix(0.875 -0.0456 0.0459 0.8698 2.9059 16.5931)" gradientUnits="userSpaceOnUse" class="svga-on-canvas-eyesfront-gradient-left-4">
      <stop id="SvgjsStop3888" stop-opacity="0" stop-color="#000000" offset="0.95"/>
      <stop id="SvgjsStop3889" stop-opacity="0.3" stop-color="#000000" offset="1"/>
    </radialGradient>
    <radialGradient id="SvgjsRadialGradient3893" cx="124.93" cy="86.966" r="13.199" gradientTransform="matrix(1.0172 0 0 1.0172 -2.565 -1.469)" gradientUnits="userSpaceOnUse" class="svga-on-canvas-eyesfront-gradient-right-0">
      <stop id="SvgjsStop3894" stop-opacity="1" stop-color="#ffffff" offset="0"/>
      <stop id="SvgjsStop3895" stop-opacity="1" stop-color="#fdfefe" offset="0.544"/>
      <stop id="SvgjsStop3896" stop-opacity="1" stop-color="#f6f8f9" offset="0.74"/>
      <stop id="SvgjsStop3897" stop-opacity="1" stop-color="#eaeff2" offset="0.879"/>
      <stop id="SvgjsStop3898" stop-opacity="1" stop-color="#d9e3e8" offset="0.992"/>
      <stop id="SvgjsStop3899" stop-opacity="1" stop-color="#d8e2e7" offset="1"/>
    </radialGradient>
    <radialGradient id="SvgjsRadialGradient3903" cx="122.469" cy="85.751" fx="134.713" fy="85.785" r="17.414" gradientTransform="matrix(-0.9998 0.0208 -0.0166 -0.7998 246.3384 151.7877)" gradientUnits="userSpaceOnUse" class="svga-on-canvas-eyesfront-gradient-right-3">
      <stop id="SvgjsStop3904" stop-opacity="1" stop-color="#d28176" offset="0"/>
      <stop id="SvgjsStop3905" stop-opacity="0.3" stop-color="#d28176" offset="0.7"/>
      <stop id="SvgjsStop3906" stop-opacity="0" stop-color="#e19e95" offset="1"/>
    </radialGradient>
    <radialGradient id="SvgjsRadialGradient3908" cx="71.413" cy="110.215" r="30.925" gradientTransform="matrix(-0.875 -0.0456 -0.0459 0.8698 197.0941 16.5931)" gradientUnits="userSpaceOnUse" class="svga-on-canvas-eyesfront-gradient-right-4">
      <stop id="SvgjsStop3909" stop-opacity="0" stop-color="#000000" offset="0.95"/>
      <stop id="SvgjsStop3910" stop-opacity="0.3" stop-color="#000000" offset="1"/>
    </radialGradient>
    <linearGradient id="SvgjsLinearGradient3916" x1="100" y1="142" x2="100" y2="139" gradientUnits="userSpaceOnUse" class="svga-on-canvas-mouth-gradient-single-0">
      <stop id="SvgjsStop3917" stop-opacity="1" stop-color="#d98f85" offset="0.1"/>
      <stop id="SvgjsStop3918" stop-opacity="1" stop-color="#d28176" offset="1"/>
    </linearGradient>
    <linearGradient id="SvgjsLinearGradient3938" x1="99.98" y1="171.27" x2="99.98" y2="136.351" gradientUnits="userSpaceOnUse" class="svga-on-canvas-chinshadow-gradient-single-0">
      <stop id="SvgjsStop3939" stop-opacity="0.8" stop-color="#d28176" offset="0"/>
      <stop id="SvgjsStop3940" stop-opacity="1" stop-color="#b34e41" offset="0.7"/>
    </linearGradient>
  </defs>
  <g id="svga-group-wrapper">
    <g id="svga-group-backs-single">
      <path id="SvgjsPath3818" d="M225 225H-25V-25h250V225z" fill="#036564" stroke-width="none" opacity="1" stroke="none"/>
      <path id="SvgjsPath3819" d="M0-5v210M10,205V-5 M20,205V-5 M30,205V-5 M40,205V-5 M50,205V-5 M60,205V-5 M70,205V-5 M80,205V-5 M90,205V-5 M100,205V-5 M110,205V-5M120,205V-5 M130,205V-5 M140,205V-5 M150,205V-5 M160,205V-5 M170,205V-5 M180,205V-5 M190,205V-5 M200,205V-5" fill="none" stroke="#005655" stroke-width="5" opacity="1"/>
    </g>
    <g id="svga-group-humanwrap-move" transform="matrix(1,0,0,1,0,0)">
      <g id="svga-group-humanwrap" transform="matrix(1,0,0,1,0,0)">
        <g id="svga-group-hair-back-move" transform="matrix(1,0,0,1,0,0)">
          <g id="svga-group-hair-back" transform="matrix(1,0,0,1,0,0)">
            <path id="SvgjsPath3831" d="M56.121,137.894c-0.284-3.904-1.705-10.141-3.683-16.807c0,0,3.453,13.279,0.099,24.668c1.421-24.748-3.5-31.88-5.756-39.022c0.653-1.621,5.689,1.326,5.69,1.333C55.797,117.583,57.066,132.609,56.121,137.894z M147.76,110.423c-4.348,10.77-7.406,23.196-2.63,31.81c-1.362-13.107,3.633-24.778,6.497-31.218L147.76,110.423z" fill="#b7513b" stroke="#891b03" stroke-width="1" stroke-miterlimit="10" opacity="1"/>
          </g>
        </g>
        <g id="svga-group-humanbody-single">
          <path id="SvgjsPath3672" d="M190.858 199.866c-6.008-10.158-13.474-11.973-19.628-13.936 -6.323-2.016-19.346-3.178-26.449-4.6 -6.86-1.373-23.153-5.789-23.339-13.488 -0.192-8.066 4.291-40.09 4.291-40.09H74.005c0 0 4.487 32.023 4.294 40.09 -0.184 7.699-16.48 12.115-23.341 13.488 -7.104 1.422-20.125 2.584-26.448 4.6 -6.156 1.963-13.624 3.777-19.632 13.936 -3.644 6.16-6.008 16.133-6.008 27.133h194C196.869 215.999 194.509 206.026 190.858 199.866z" fill="#e19e95" stroke-width="none" opacity="1" stroke="none"/>
          <path id="SvgjsPath3673" d="M121.442 167.843c2.495 10.929 18.165 13.698 26.293 15.325 21.909 4.379 33.772 5.134 42.297 19.539 2.903 4.916 5.459 15.864 5.962 24.153 1.835 0.291 0.531-17.432-5.136-26.994 -9.742-16.472-29.089-15.135-46.077-18.535C137.921 179.958 121.628 175.542 121.442 167.843L121.442 167.843zM78.558 167.843c-0.186 7.699-16.479 12.115-23.339 13.488 -16.988 3.4-36.335 2.063-46.077 18.535 -5.667 9.563-6.971 27.285-5.136 26.994 0.503-8.289 3.059-19.237 5.962-24.153 8.524-14.405 20.388-15.16 42.297-19.539C60.393 181.541 76.063 178.771 78.558 167.843L78.558 167.843z" fill="#f0beb7" stroke-width="none" opacity="1" stroke="none"/>
          <path id="SvgjsPath3674" d="M51.206 189.513c0 0 28.641 0.299 33.473 1.885 2.314 0.758 8.372 5.633 8.372 5.633s-6.556-3.17-8.658-3.758C79.51 191.909 51.206 189.513 51.206 189.513zM99.795 199.999c2.053-0.041 7.887-3.799 7.887-3.799s-5.574 2.059-7.342 2.16c-1.491 0.086-6.366-1.238-6.366-1.238S98.112 200.032 99.795 199.999zM117.008 192.757c6.75-1.818 29.786-3.23 29.786-3.23s-23.791-0.516-30.51 1.725c-2.252 0.752-7.562 5.16-7.562 5.16S114.786 193.354 117.008 192.757z" fill="#d28176" stroke-width="none" opacity="1" stroke="none"/>
          <path id="SvgjsPath3675" d="M190.858 199.866c-9.741-16.471-29.122-15.142-46.077-18.535 -6.86-1.373-23.153-5.789-23.339-13.488 -0.192-8.066 4.291-40.09 4.291-40.09H74.005c0 0 4.487 32.023 4.294 40.09 -0.184 7.699-16.48 12.115-23.341 13.488 -7.104 1.422-20.125 2.584-26.448 4.6 -6.156 1.963-13.624 3.777-19.632 13.936 -3.644 6.16-6.008 16.133-6.008 27.133h194C196.869 215.999 194.509 206.026 190.858 199.866z" fill="none" stroke="#b34e41" stroke-width="1.5" opacity="1"/>
        </g>
        <g id="svga-group-chinshadow-single">
          <path id="SvgjsPath3937" d="M100.045 171.737c5.593-0.009 13.488-3.608 20.908-8.44 0.448-6.688 1.717-17.243 2.734-25.146 -13.955-1.813-33.739-1.771-47.623 0.105 1.008 7.831 2.258 18.226 2.713 24.89C86.31 168.063 94.37 171.746 100.045 171.737z" fill="url(#SvgjsLinearGradient3938)" opacity="1"/>
        </g>
        <g id="svga-group-clothes-single">
          <path id="SvgjsPath3924" d="M103.441 229.899c-18.333 0-36.705-0.539-54.995-1.778 -15.203-1.031-30.378-2.423-45.577-3.513 -0.395 0.562-0.339-0.934-0.358-1.242 -0.063-1.019-0.104-2.04-0.108-3.061 -0.009-2.058 0.125-4.13 0.574-6.143 0.412-1.843 1.173-3.577 1.822-5.344 0.053-0.144-1.718-1.102-2-1.258 0.727-1.272 1.67-2.456 2.597-3.584 -1.756-1.127-3.547-2.263-5.246-3.476 2.355-2.815 5.602-4.512 8.114-7.131 -1.025-0.663-2.03-1.359-2.985-2.12 -0.249-0.198-0.494-0.4-0.739-0.604 -0.398-0.33-0.075-0.435 0.216-0.759 0.425-0.499 0.867-0.984 1.325-1.454 1.696-1.742 3.599-3.279 5.626-4.62 4.417-2.919 9.418-4.918 14.568-6.104 1.312-0.303 2.636-0.552 3.968-0.749 0.461-0.08 0.925-0.19 1.351-0.075 0.531 0.144 1.088 0.551 1.586 0.79 2.117 1.021 4.265 1.973 6.442 2.859 4.636 1.888 9.383 3.491 14.194 4.869 20.634 5.908 42.528 7.305 63.728 3.957 10.546-1.665 20.96-4.469 30.987-8.119 2.774-1.011 5.52-2.112 8.219-3.31 1.013-0.449 2.021-0.91 3.02-1.389 0.744-0.356 1.186-0.409 2.011-0.421 1.568-0.021 3.148-0.094 4.706 0.141 1.621 0.243 3.188 0.774 4.719 1.343 5.999 2.224 11.475 5.193 16.34 9.392 -0.431 0.458-0.87 0.913-1.323 1.35 1.913 1.457 3.546 3.266 5.062 5.121 0.879 1.077 1.694 2.196 2.517 3.315 0.321 0.438 0.049 2.004 0.067 2.573 0.1 3.061 0.932 5.686 2.035 8.515 0.77 1.973 1.441 3.979 1.761 6.08 0.436 2.859 0.07 5.589-0.246 8.435 -0.124 1.114-0.213 2.231-0.309 3.348 -0.022 0.256-0.044 0.512-0.071 0.768 -0.883 0-1.768 0.036-2.65 0.053 -4.932 0.09-9.864 0.194-14.795 0.344 -13.384 0.405-26.743 1.258-40.132 1.603 -6.907 0.178-13.815 0.343-20.715 0.725C113.639 229.509 108.56 229.899 103.441 229.899z" fill="#92002a" stroke-width="none" opacity="1" stroke="none"/>
          <path id="SvgjsPath3925" d="M77.072 191.553c-1.295 1.902-2.474 3.882-3.612 5.878 0.287-2.083 0.496-4.185 0.693-6.286C75.123 191.296 76.092 191.433 77.072 191.553zM63.583 189.148c-1.714 3.7-3.554 7.359-4.999 11.145 2.029-3.547 4.106-7.188 5.76-10.973 2.949 0.654 5.948 1.226 8.976 1.7 -0.287 2.577-0.464 5.174-0.613 7.761 -0.95 1.683-1.88 3.374-2.84 5.041 -3.623 6.266-4.811 11.162-5.662 14.774 -1.625-0.151-2.969-0.323-3.7-0.436 -4.553-0.704-6.474-1.493-7.751-2.169 1.157-4.26 2.227-8.547 2.989-12.896 0.891-5.067 1.316-10.248 2.384-15.28C59.92 188.301 61.742 188.749 63.583 189.148zM43.154 182.938c-2.722 2.521-4.514 4.708-9.047 10.241 1.425-3.317 3.316-7.444 5.79-11.571C40.966 182.064 42.045 182.513 43.154 182.938zM187.52 189.909c0.012 0.01 0.028 0.027 0.049 0.049 2.069 1.976 4.257 4.631 6.019 6.931v0.009 0.011c-1.635 1.455-2.939 2.823-4.098 3.442 -0.674-0.798-1.366-1.588-2.059-2.398 -1.444-1.682-2.653-3.582-4.147-5.218 -0.079-0.087-0.16-0.183-0.238-0.268 -0.139-0.142-0.275-0.285-0.417-0.418 0.725-0.684 1.427-1.379 2.131-2.074 0.116-0.112 0.225-0.227 0.334-0.34 0.338-0.325 0.664-0.658 0.991-0.99C186.55 189.016 187.024 189.443 187.52 189.909zM173.05 206.446c1.269 1.824 3.257 4.154 5.147 6.285 -2.17 1.178-3.633 2.176-4.634 2.853 -1.474-1.827-3.256-3.832-6.097-7.256 0.149-0.076 0.298-0.151 0.445-0.229 1.682-0.901 2.84-1.862 4.356-2.852 0.206 0.353 0.452 0.741 0.752 1.151C173.021 206.407 173.029 206.426 173.05 206.446zM163.229 180.506c4.891 4.801 9.126 9.662 13.956 16.971 1.199-1.139 2.438-2.243 3.713-3.315 0.588-0.491 1.192-0.973 1.814-1.437 -6.55-6.479-13.323-12.555-22.224-14.804C161.277 178.646 162.18 179.49 163.229 180.506zM148.026 182.634c6.139 7.397 15.392 15.233 18.885 19.114 -4.039-5.621-12.343-13.122-18.212-19.37 2.318-0.885 4.585-1.836 6.823-2.86 6.084 7.7 14.174 19.093 17.991 24.551 -0.493 0.246-0.94 0.486-1.367 0.731 -0.03 0.021-0.057 0.037-0.086 0.058 -1.407 0.848-2.594 1.787-4.702 2.957 -0.071 0.037-0.148 0.076-0.218 0.115 -0.07 0.038-0.129 0.065-0.188 0.096 -1.481 0.768-2.979 1.243-4.653 1.604 -0.791 0.161-1.592 0.334-2.385 0.553 -3.394-4.488-6.057-9.527-9.213-14.169 -2.019-2.978-4.374-5.782-6.257-8.834 -0.535-0.875-1.058-1.797-1.633-2.689C144.574 183.909 146.317 183.29 148.026 182.634zM118.851 190.394c1.889 4.355 2.661 5.896 5.682 15.928 -0.495-2.482-0.931-4.964-1.693-7.379 -0.922-2.899-1.782-5.278-3.324-8.662 2.769-0.506 5.492-1.046 8.153-1.644 2.407 2.69 4.283 6.083 9.641 13.158 2.721 3.549 5.434 7.114 7.739 10.907 -1.166 0.617-2.384 1.141-3.654 1.454 -18.623 5.486-11.567 3.48-20.01 5.041 -0.148 0.026-0.347 0.057-0.565 0.085 -0.583-2.891-1.513-6.551-3.432-12.752 -2.307-7.427-4.168-11.837-5.651-14.986C114.148 191.192 116.515 190.812 118.851 190.394zM106.074 192.247c1.719 4.784 3.046 9.699 4.035 14.692 0.636 3.271 1.181 6.552 1.753 9.822 0.247 1.417 0.477 2.854 0.792 4.271 -4.93 0.818-10.224 0.077-13.531 0.03 0.07-2.283 0.051-2.807 0.189-4.148 0.306-3.042 0.484-6.113 0.802-9.166 0.317-3.178 0.714-6.351 0.671-9.547 -0.029-1.873-0.087-3.748 0.139-5.581C102.649 192.535 104.372 192.409 106.074 192.247zM96.463 192.752c-1.318 4.261-2.733 8.502-3.971 12.79 -0.02-4.279-0.147-8.549-0.386-12.819C93.562 192.761 95.017 192.771 96.463 192.752zM88.019 192.571c-0.396 5.212-0.989 10.394-1.325 15.614 1.197-6.856 1.593-10.974 1.572-15.593 1.17 0.055 2.336 0.104 3.505 0.12 -0.13 5.041-0.1 10.09 0.079 15.129 0 0.01 0 0.01 0 0.01 -1.465 5.439-1.772 9.215-1.841 12.496 -2.801 0.504-5.663 0.741-8.512 0.903 -5.87 0.333-7.988-0.172-10.224-0.353 0.147-0.504 0.316-1.006 0.484-1.513 0.041-0.122 0.09-0.256 0.129-0.379 1.791-5.287 4.147-10.643 5.571-13.475 3.625-7.169 5.316-10.839 6.642-13.228C85.406 192.421 86.713 192.504 88.019 192.571zM52.101 186.085c-0.841 2.995-1.771 7.361-4.414 15.368 -1.138 3.432-2.217 6.847-3.137 10.346 -0.218 0.836-0.327 1.702-0.376 2.577 -1.989-0.78-3.939-1.626-5.889-2.5 -1.218-0.581-2.237-1.087-3.088-1.522 -0.05-0.028-0.109-0.058-0.159-0.087 -0.96-0.492-1.711-0.911-2.326-1.234 2.197-3.14 4.652-6.676 6.77-9.775 3.217-4.688 5.988-9.68 9.433-14.206C49.963 185.4 51.022 185.754 52.101 186.085zM33.762 211.515c-1.861 2.157-3.257 5.315-4.771 8.414 -2.446-0.789-4.911-1.531-7.345-2.357 0.167-0.297 0.335-0.58 0.505-0.877 0.198-0.34 0.396-0.692 0.593-1.055 0.01-0.027 0.02-0.056 0.041-0.084 1.196-2.188 2.405-4.593 3.663-6.344 1.296 0.627 2.72 1.171 4.157 1.599 0.237 0.066 0.484 0.132 0.723 0.199 0.068-0.104 0.148-0.209 0.218-0.313 0.326-0.457 0.652-0.933 0.99-1.417 0.455 0.285 0.939 0.59 1.444 0.903 0.199 0.124 0.416 0.267 0.673 0.408 -0.238 0.229-0.475 0.465-0.691 0.714C33.889 211.37 33.83 211.447 33.762 211.515zM35.532 179.629c-2.483 3.558-4.74 7.324-6.135 11.317 2.098-3.767 4.463-7.37 6.622-11.089 1.108 0.533 2.247 1.046 3.406 1.542 -2.041 2.976-4.188 6.989-6.86 13.683 -2.644 3.319-5.137 6.78-7.295 10.424 -3.583-1.209-8.789-3.045-9.481-3.303 -1.575-0.513-3.713-1.53-5.592-2.528 -0.09-0.048-0.168-0.096-0.259-0.133 -0.959-0.522-1.83-1.026-2.502-1.454 1.099-1.065 2.207-2.113 3.336-3.129 0.168-0.161 0.345-0.322 0.523-0.475 6.623-5.991 13.699-11.251 22.161-15.892C34.126 178.944 34.82 179.288 35.532 179.629zM3.257 202.271c-0.12-0.076-0.248-0.162-0.367-0.237 -0.822-0.53-1.643-1.046-2.435-1.513 1.366-1.501 2.98-2.747 4.494-3.918 0.03-0.026 0.07-0.047 0.1-0.085 1.287-0.979 2.503-1.92 3.404-2.91 0.466 0.287 0.94 0.57 1.406 0.846 -1.039 1.019-2.079 2.085-3.098 3.187 -0.089 0.086-0.169 0.173-0.248 0.267 0.198 0.171 0.406 0.332 0.614 0.485 0.307 0.237 0.634 0.447 0.96 0.628 0.484 0.257 0.96 0.533 1.426 0.817 -1.505 1.103-2.91 2.547-4.069 3.929C4.732 203.27 3.998 202.768 3.257 202.271zM3.108 207.55c0.703-1.01 1.555-2.17 2.494-3.32 0.07-0.077 0.129-0.15 0.188-0.229 1.217-1.454 2.583-2.891 4-4.003 1.009 0.6 2.019 1.206 3.116 1.701 1.744 0.771 3.515 1.455 5.326 2.082 2.197 0.763 4.493 1.531 6.818 2.084 -0.335 0.581-0.661 1.16-0.979 1.75 -0.038 0.058-0.068 0.113-0.099 0.17 0.118 0.077 0.237 0.162 0.357 0.24 0.563 0.37 1.187 0.721 1.85 1.054 -1.296 1.646-2.544 3.966-3.751 6.361 -3.652-1.17-7.304-2.368-10.827-3.841 -1.882-0.828-3.761-1.616-5.583-2.567 -0.098-0.047-0.445-0.229-0.93-0.477 0.238-0.94 0.415-1.891 0.514-2.861 -0.188 0.931-0.465 1.834-0.771 2.729C4.336 208.156 3.722 207.852 3.108 207.55z" fill="#830026" stroke-width="none" opacity="1" stroke="none"/>
          <path id="SvgjsPath3926" d="M194.201 202.214c-0.229-1.597-0.267-3.224-0.257-4.85 0-0.182 0-0.362 0-0.532 0-0.01 0.01-0.01 0.01-0.01 -0.01-0.076-0.01-0.152 0-0.228 -0.041 0.028-0.08 0.057-0.109 0.085 -0.07-0.095-0.141-0.19-0.209-0.294 -1.643-2.292-3.662-4.784-5.621-6.638 0.029-0.02 0.059-0.039 0.09-0.048 -0.031 0.009-0.071 0.019-0.101 0.039 -0.555-0.522-1.1-0.99-1.631-1.399 0.285-0.275 0.563-0.561 0.819-0.846 0.178-0.171 0.339-0.331 0.495-0.504 -0.119-0.105-0.238-0.198-0.355-0.303 -3.525-2.901-7.307-5.517-11.541-7.354 -8.026-3.354-9.216-3.394-13.232-3.318 -0.586 0-1.229 0.021-1.961 0.021 -0.297 0.142-0.604 0.293-0.91 0.436 -0.169 0.077-0.336 0.161-0.505 0.248 -0.159 0.066-0.317 0.143-0.485 0.218 -0.979 0.457-1.979 0.903-3.008 1.352 -0.288 0.114-0.566 0.236-0.854 0.359 -2.225 0.941-4.561 1.866-7.035 2.75 -0.2 0.074-0.396 0.15-0.604 0.219 -1.652 0.59-3.364 1.169-5.137 1.73 -0.156 0.057-0.315 0.104-0.474 0.151 -0.893 0.286-1.811 0.562-2.743 0.837 -0.132 0.038-0.255 0.076-0.386 0.115 -0.82 0.247-1.665 0.484-2.514 0.723 -0.318 0.094-0.644 0.179-0.971 0.266 -1.593 0.437-3.239 0.864-4.917 1.283 -1.041 0.255-2.088 0.505-3.142 0.742 -0.095 0.019-0.195 0.047-0.303 0.067 -2.546 0.559-5.109 1.063-7.68 1.5 -0.21 0.039-0.421 0.067-0.627 0.105 -2.404 0.392-4.83 0.731-7.256 1.007 -0.116 0.013-0.234 0.03-0.355 0.038 -1.632 0.184-3.272 0.333-4.919 0.468 -0.097 0.008-0.188 0.019-0.285 0.019 -1.417 0.104-2.832 0.19-4.257 0.256 -0.07 0-0.128 0.009-0.196 0.009 -1.297 0.06-2.585 0.096-3.881 0.104 -0.061 0.012-0.118 0.012-0.179 0 -0.377 0.012-0.753 0.021-1.129 0.021 -1.296 0.009-2.572 0-3.849-0.03 -0.06 0-0.118 0-0.179 0 -1.207-0.026-2.396-0.065-3.573-0.122 -0.04 0-0.079 0-0.119-0.009 -1.029-0.039-2.049-0.104-3.067-0.174 -0.109 0-0.219-0.009-0.328-0.019 0 0 0 0-0.009 0 -2.129-0.144-4.216-0.33-6.264-0.57 -0.121-0.009-0.248-0.018-0.367-0.037 -1.275-0.142-2.543-0.304-3.791-0.476 -0.268-0.037-0.534-0.076-0.802-0.116 -2.968-0.436-5.849-0.94-8.611-1.5 -0.236-0.048-0.485-0.104-0.721-0.153 -1.98-0.408-3.891-0.854-5.752-1.321 -0.137-0.038-0.277-0.066-0.415-0.104 -1.762-0.448-3.474-0.913-5.117-1.398 -0.15-0.037-0.288-0.084-0.436-0.123 -0.94-0.275-1.86-0.561-2.762-0.846 -0.147-0.047-0.296-0.096-0.435-0.145 -1.632-0.522-3.207-1.056-4.701-1.597 -0.168-0.065-0.336-0.122-0.505-0.19 -1.256-0.455-2.475-0.922-3.632-1.379 -0.138-0.057-0.277-0.114-0.416-0.171 -1.247-0.503-2.425-1.007-3.544-1.491 -0.138-0.066-0.276-0.126-0.405-0.184 -0.594-0.265-1.159-0.531-1.712-0.789 -0.169-0.073-0.338-0.15-0.495-0.234 -0.732-0.346-1.426-0.686-2.079-1.019 -0.109-0.058-0.217-0.117-0.325-0.173 -0.407 0.049-0.813 0.104-1.208 0.173 -11.185 1.655-20.191 6.665-25.547 12.959 -0.188 0.209-0.365 0.419-0.523 0.628 0.178 0.162 0.375 0.323 0.574 0.484 0.989 0.828 2.158 1.665 3.375 2.454 -0.912 0.935-2.158 1.854-3.484 2.873 -0.089-0.049-0.158-0.077-0.178-0.077 -0.04 0 0.01 0.077 0.079 0.153 -1.504 1.15-3.098 2.435-4.375 4.013 -0.049 0.056-0.099 0.113-0.148 0.17 0.089 0.058 0.177 0.123 0.277 0.192 0.703 0.454 1.525 1.007 2.396 1.587 0.109 0.075 0.217 0.153 0.336 0.218 0.722 0.495 1.483 0.998 2.237 1.483 -0.901 1.094-1.644 2.132-2.148 2.911 -0.11 0.162-0.208 0.323-0.307 0.475 -0.051 0.067-0.089 0.142-0.129 0.21 0.099 0.058 0.197 0.124 0.297 0.171 0.614 0.37 1.217 0.742 1.731 1.056 -0.375 1.016-0.782 2.023-1.148 3.063 -1.464 3.907-1.366 8.546-1.04 12.798 0 0.058 0.011 0.105 0.021 0.162 0.148 0 0.297 0 0.455 0 -0.009-0.043-0.009-0.087-0.009-0.13 17.807 1.25 48.215 4.196 69.411 4.714 52.426 1.265 26.427 0.161 65.135-0.779 33.931-0.839 23.727-1.42 59.207-2.037 0.13-0.011 0.269-0.011 0.407-0.011 0-0.063 0.009-0.131 0.019-0.199 0.168-1.844 0.287-3.699 0.564-5.543C199.12 211.467 194.934 207.283 194.201 202.214zM187.52 189.909c0.012 0.01 0.028 0.027 0.049 0.049 2.069 1.976 4.257 4.631 6.019 6.931v0.009 0.011c-1.635 1.455-2.939 2.823-4.098 3.442 -0.674-0.798-1.366-1.588-2.059-2.398 -1.444-1.682-2.653-3.582-4.147-5.218 -0.079-0.087-0.16-0.183-0.238-0.268 -0.139-0.142-0.275-0.285-0.417-0.418 0.725-0.684 1.427-1.379 2.131-2.074 0.116-0.112 0.225-0.227 0.334-0.34 0.338-0.325 0.664-0.658 0.991-0.99C186.55 189.016 187.024 189.443 187.52 189.909zM182.253 206.986c1.221 1.112 2.812 2.712 4.079 4.252 -1.861 1.599-3.563 3.251-5.722 3.756 -0.603-0.742-1.236-1.493-1.869-2.235 -0.071-0.076-0.128-0.143-0.19-0.218 -1.96-2.274-3.919-4.442-5.234-6.115 -0.011-0.01-0.021-0.019-0.021-0.027 -0.356-0.448-0.661-0.866-0.907-1.228 0.404-0.267 0.84-0.543 1.323-0.818 0.446 0.638 0.833 1.189 1.14 1.628 0.028 0.057 0.069 0.112 0.109 0.161 0.188-0.077 0.376-0.145 0.556-0.201 0.019-0.008 0.049-0.008 0.066-0.017 2.297-0.725 3.803-1.495 5.139-2.367 0.067-0.041 0.138-0.088 0.198-0.137 -0.042-0.064-0.073-0.122-0.111-0.177 -1.205-2.008-2.355-3.844-3.474-5.546 1.279-1.074 2.555-2.158 3.832-3.244 0.612-0.502 1.236-1.016 1.868-1.521 1.479 1.808 2.693 3.881 4.219 5.63 0.594 0.675 1.187 1.34 1.77 2.006 0.021 0.02 0.03 0.039 0.05 0.049 0.515 0.587 1.021 1.168 1.504 1.767 -2.671 1.655-5.567 2.892-8.314 4.46 -0.026 0.03-0.068 0.047-0.107 0.068C182.184 206.939 182.215 206.97 182.253 206.986zM173.05 206.446c1.269 1.824 3.257 4.154 5.147 6.285 -2.17 1.178-3.633 2.176-4.634 2.853 -1.474-1.827-3.256-3.832-6.097-7.256 0.149-0.076 0.298-0.151 0.445-0.229 1.682-0.901 2.84-1.862 4.356-2.852 0.206 0.353 0.452 0.741 0.752 1.151C173.021 206.407 173.029 206.426 173.05 206.446zM161.537 176.569c4.921 0.218 11.244 0.911 25.222 10.619 -0.3 0.249-0.595 0.516-0.882 0.8 -0.097 0.076-0.199 0.173-0.288 0.277 -0.356 0.331-0.702 0.685-1.027 1.044 -0.109 0.105-0.21 0.221-0.297 0.325 -0.647 0.71-1.248 1.464-1.804 2.263 -0.059 0.074-0.11 0.141-0.146 0.22 0.036 0.037 0.077 0.083 0.116 0.121 0.13 0.145 0.249 0.275 0.366 0.419 -0.653 0.484-1.284 0.99-1.899 1.504 -1.275 1.072-2.514 2.177-3.713 3.315 -4.83-7.309-9.065-12.17-13.956-16.971 -1.306-1.265-2.393-2.273-3.304-3.1C160.47 177.13 161.003 176.852 161.537 176.569zM159.38 177.681c2.752 2.947 6.721 6.847 10.799 11.875 2.227 2.749 4.376 5.573 6.485 8.427 0.036 0.058 0.075 0.114 0.114 0.171 1.278 1.73 2.545 3.47 3.804 5.21 -2.01 1.087-3.823 1.893-5.17 2.397 -0.056-0.114-0.115-0.239-0.188-0.353 -0.227-0.409-0.503-0.885-0.83-1.417 -0.036-0.074-0.088-0.161-0.147-0.246 -3.374-5.544-11.273-16.992-17.847-24.63C157.401 178.649 158.391 178.174 159.38 177.681zM148.026 182.634c6.139 7.397 15.392 15.233 18.885 19.114 -4.039-5.621-12.343-13.122-18.212-19.37 2.318-0.885 4.585-1.836 6.823-2.86 6.084 7.7 14.174 19.093 17.991 24.551 -0.493 0.246-0.94 0.486-1.367 0.731 -0.03 0.021-0.057 0.037-0.086 0.058 -1.407 0.848-2.594 1.787-4.702 2.957 -0.071 0.037-0.148 0.076-0.218 0.115 -0.07 0.038-0.129 0.065-0.188 0.096 -1.481 0.768-2.979 1.243-4.653 1.604 -0.791 0.161-1.592 0.334-2.385 0.553 -3.394-4.488-6.057-9.527-9.213-14.169 -2.019-2.978-4.374-5.782-6.257-8.834 -0.535-0.875-1.058-1.797-1.633-2.689C144.574 183.909 146.317 183.29 148.026 182.634zM142.24 184.67c0.622 1.188 1.187 2.405 1.811 3.518 1.672 3.025 4.028 5.821 5.978 8.691 3.057 4.526 5.839 9.301 9.49 13.417 0.031 0.048 0.069 0.087 0.109 0.124 0.129-0.028 0.267-0.057 0.405-0.076 1.792-0.313 3.685-0.19 7.226-1.91 1.623 2.178 3.729 4.926 5.81 7.482 0.03 0.047 0.067 0.094 0.108 0.143 0.359 0.447 0.711 0.886 1.06 1.314 -2.039 0.853-4.751 1.567-9.056 2.053 -1.011-1.305-2.138-2.502-3.248-3.709 -1.376-1.484-2.801-2.967-4.047-4.565 -0.355-0.474-0.703-0.949-1.039-1.443 -0.019-0.03-0.039-0.057-0.059-0.097 -0.081 0.019-0.158 0.049-0.238 0.076 -0.583 0.191-1.159 0.41-1.722 0.638 -4.187-7.009-12.672-20.817-13.114-21.576 -0.663-1.111-1.317-2.225-2.04-3.271C140.537 185.222 141.385 184.955 142.24 184.67zM135.783 186.618c3.464 5.05 6.591 10.308 9.72 15.548 -3.789-7.979-6.313-12.135-8.77-15.823 0.819-0.228 1.636-0.466 2.448-0.713 0.661 1.113 1.233 2.283 1.826 3.442 0.99 1.948 8.753 14.776 10.108 16.793 1.088 1.559 2.228 3.08 3.345 4.61 -2.711 1.124-5.284 2.54-8.007 3.663 -0.219-0.505-0.446-0.988-0.692-1.464 -0.039-0.098-0.091-0.191-0.149-0.286 -2.533-5.013-5.601-8.74-7.474-11.185 -5.016-6.606-7.333-10.105-10.028-12.672C130.717 187.952 133.268 187.313 135.783 186.618zM118.851 190.394c1.889 4.355 2.661 5.896 5.682 15.928 -0.495-2.482-0.931-4.964-1.693-7.379 -0.922-2.899-1.782-5.278-3.324-8.662 2.769-0.506 5.492-1.046 8.153-1.644 2.407 2.69 4.283 6.083 9.641 13.158 2.721 3.549 5.434 7.114 7.739 10.907 -1.166 0.617-2.384 1.141-3.654 1.454 -18.623 5.486-11.567 3.48-20.01 5.041 -0.148 0.026-0.347 0.057-0.565 0.085 -0.583-2.891-1.513-6.551-3.432-12.752 -2.307-7.427-4.168-11.837-5.651-14.986C114.148 191.192 116.515 190.812 118.851 190.394zM111.06 191.648c0.05-0.007 0.108-0.017 0.159-0.027 3.276 9.176 6.244 18.428 8.818 27.796 0.03 0.046 0.04 0.105 0.052 0.161 0.255 0.903 0.503 1.814 0.751 2.729 -2.268 0.503-4.534 0.731-6.949 0.637 -0.049 0-0.209-0.009-0.436-0.009 -0.108-0.601-0.207-1.207-0.286-1.817 -0.01-0.055-0.01-0.113-0.021-0.17 -0.196-1.57-0.326-3.149-0.505-4.698 -0.354-3.3-0.931-6.589-1.611-9.842 -1.208-5.829-2.478-9.852-4.505-14.207C108.052 192.049 109.565 191.868 111.06 191.648zM106.074 192.247c1.719 4.784 3.046 9.699 4.035 14.692 0.636 3.271 1.181 6.552 1.753 9.822 0.247 1.417 0.477 2.854 0.792 4.271 -4.93 0.818-10.224 0.077-13.531 0.03 0.07-2.283 0.051-2.807 0.189-4.148 0.306-3.042 0.484-6.113 0.802-9.166 0.317-3.178 0.714-6.351 0.671-9.547 -0.029-1.873-0.087-3.748 0.139-5.581C102.649 192.535 104.372 192.409 106.074 192.247zM100.567 192.63c-0.465 2.156-0.501 4.401-0.621 6.618 -0.198 3.431-0.743 6.854-1.03 10.276 -0.278 3.406-0.604 6.794-0.505 10.214 0 0.066 0.02 0.581 0.039 1.313 0 0.018 0 0.049 0 0.074 0.021 0.476 0.042 1.028 0.061 1.618 -2.664 0.209-5.343 0.058-8.018 0.008 0.07-0.74 0.138-1.501 0.218-2.291 0.01-0.084 0.01-0.161 0.019-0.247 0.258-2.527 0.574-5.344 1.278-8.653 0.138-0.684 0.307-1.387 0.484-2.119 0 0 0-0.01 0-0.021 0.129-0.493 0.258-0.998 0.396-1.521 1.366-5.049 2.792-10.06 3.899-15.155C98.055 192.734 99.313 192.697 100.567 192.63zM96.463 192.752c-1.318 4.261-2.733 8.502-3.971 12.79 -0.02-4.279-0.147-8.549-0.386-12.819C93.562 192.761 95.017 192.771 96.463 192.752zM88.019 192.571c-0.396 5.212-0.989 10.394-1.325 15.614 1.197-6.856 1.593-10.974 1.572-15.593 1.17 0.055 2.336 0.104 3.505 0.12 -0.13 5.041-0.1 10.09 0.079 15.129 0 0.01 0 0.01 0 0.01 -1.465 5.439-1.772 9.215-1.841 12.496 -2.801 0.504-5.663 0.741-8.512 0.903 -5.87 0.333-7.988-0.172-10.224-0.353 0.147-0.504 0.316-1.006 0.484-1.513 0.041-0.122 0.09-0.256 0.129-0.379 1.791-5.287 4.147-10.643 5.571-13.475 3.625-7.169 5.316-10.839 6.642-13.228C85.406 192.421 86.713 192.504 88.019 192.571zM83.596 192.269c-1.694 2.499-3.869 6.446-7.423 13.454 -2.179 4.299-3.959 8.701-5.127 13.275 -2.128-0.021-4.405-0.172-6.346-0.354 1.643-5.267 3.663-10.193 6.247-14.682 0.593-1.027 1.127-1.977 1.612-2.853l0.484-0.864c2.198-4.014 3.356-6.447 4.554-8.614C79.587 191.877 81.587 192.097 83.596 192.269zM77.072 191.553c-1.295 1.902-2.474 3.882-3.612 5.878 0.287-2.083 0.496-4.185 0.693-6.286C75.123 191.296 76.092 191.433 77.072 191.553zM63.583 189.148c-1.714 3.7-3.554 7.359-4.999 11.145 2.029-3.547 4.106-7.188 5.76-10.973 2.949 0.654 5.948 1.226 8.976 1.7 -0.287 2.577-0.464 5.174-0.613 7.761 -0.95 1.683-1.88 3.374-2.84 5.041 -3.623 6.266-4.811 11.162-5.662 14.774 -1.625-0.151-2.969-0.323-3.7-0.436 -4.553-0.704-6.474-1.493-7.751-2.169 1.157-4.26 2.227-8.547 2.989-12.896 0.891-5.067 1.316-10.248 2.384-15.28C59.92 188.301 61.742 188.749 63.583 189.148zM57.624 187.686c-1.415 4.962-2.01 10.117-2.929 15.233 -0.763 4.26-1.663 8.509-2.524 12.75 -0.02 0.068-0.03 0.133-0.04 0.2 -0.159 0.77-0.317 1.54-0.465 2.31 -0.99-0.304-1.99-0.596-2.99-0.894 -0.06-0.018-2.048-0.57-3.979-1.104 0.069-0.513 0.128-0.94 0.178-1.331 0.01-0.065 0.02-0.133 0.029-0.199 0.318-2.206 0.733-3.49 3.812-12.883 1.188-3.615 2.454-7.268 3.087-11.014 0.257-1.502 0.476-3.023 0.791-4.517C54.239 186.743 55.921 187.229 57.624 187.686zM52.101 186.085c-0.841 2.995-1.771 7.361-4.414 15.368 -1.138 3.432-2.217 6.847-3.137 10.346 -0.218 0.836-0.327 1.702-0.376 2.577 -1.989-0.78-3.939-1.626-5.889-2.5 -1.218-0.581-2.237-1.087-3.088-1.522 -0.05-0.028-0.109-0.058-0.159-0.087 -0.96-0.492-1.711-0.911-2.326-1.234 2.197-3.14 4.652-6.676 6.77-9.775 3.217-4.688 5.988-9.68 9.433-14.206C49.963 185.4 51.022 185.754 52.101 186.085zM33.762 211.515c-1.861 2.157-3.257 5.315-4.771 8.414 -2.446-0.789-4.911-1.531-7.345-2.357 0.167-0.297 0.335-0.58 0.505-0.877 0.198-0.34 0.396-0.692 0.593-1.055 0.01-0.027 0.02-0.056 0.041-0.084 1.196-2.188 2.405-4.593 3.663-6.344 1.296 0.627 2.72 1.171 4.157 1.599 0.237 0.066 0.484 0.132 0.723 0.199 0.068-0.104 0.148-0.209 0.218-0.313 0.326-0.457 0.652-0.933 0.99-1.417 0.455 0.285 0.939 0.59 1.444 0.903 0.199 0.124 0.416 0.267 0.673 0.408 -0.238 0.229-0.475 0.465-0.691 0.714C33.889 211.37 33.83 211.447 33.762 211.515zM48.399 184.868c-3.722 4.271-6.631 9.101-9.857 13.799 -1.484 2.159-4.108 6.097-6.572 9.965 -0.038 0.078-0.089 0.152-0.138 0.218 -0.347 0.554-0.683 1.095-1.02 1.626 -1.415-0.436-2.841-0.958-4.158-1.548 -0.088-0.039-0.168-0.078-0.257-0.114 -0.691-0.313-1.336-0.637-1.94-0.98 0.385-0.608 0.792-1.216 1.197-1.825 0.07-0.094 0.139-0.198 0.218-0.303 1.712-2.521 3.554-4.984 5.443-7.399 0.436-0.563 0.881-1.123 1.328-1.683 0.732-0.933 1.483-1.855 2.235-2.775 5.505-6.743 6.702-8.398 8.859-10.681C45.252 183.757 46.806 184.327 48.399 184.868zM43.154 182.938c-2.722 2.521-4.514 4.708-9.047 10.241 1.425-3.317 3.316-7.444 5.79-11.571C40.966 182.064 42.045 182.513 43.154 182.938zM35.532 179.629c-2.483 3.558-4.74 7.324-6.135 11.317 2.098-3.767 4.463-7.37 6.622-11.089 1.108 0.533 2.247 1.046 3.406 1.542 -2.041 2.976-4.188 6.989-6.86 13.683 -2.644 3.319-5.137 6.78-7.295 10.424 -3.583-1.209-8.789-3.045-9.481-3.303 -1.575-0.513-3.713-1.53-5.592-2.528 -0.09-0.048-0.168-0.096-0.259-0.133 -0.959-0.522-1.83-1.026-2.502-1.454 1.099-1.065 2.207-2.113 3.336-3.129 0.168-0.161 0.345-0.322 0.523-0.475 6.623-5.991 13.699-11.251 22.161-15.892C34.126 178.944 34.82 179.288 35.532 179.629zM5.326 190.289c5.265-5.6 13.708-10.716 25.307-13.196 0.743 0.418 1.504 0.826 2.287 1.225 -7.898 3.736-15.372 8.729-22.488 15.577 -0.435-0.313-0.9-0.639-1.366-0.972 -0.098-0.065-0.207-0.143-0.307-0.21C7.552 191.858 6.335 191.004 5.326 190.289zM4.475 196.232c0.029 0.019 0.059 0.049 0.089 0.067 0 0-0.01 0.01-0.021 0.019C4.523 196.281 4.503 196.251 4.475 196.232zM3.257 202.271c-0.12-0.076-0.248-0.162-0.367-0.237 -0.822-0.53-1.643-1.046-2.435-1.513 1.366-1.501 2.98-2.747 4.494-3.918 0.03-0.026 0.07-0.047 0.1-0.085 1.287-0.979 2.503-1.92 3.404-2.91 0.466 0.287 0.94 0.57 1.406 0.846 -1.039 1.019-2.079 2.085-3.098 3.187 -0.089 0.086-0.169 0.173-0.248 0.267 0.198 0.171 0.406 0.332 0.614 0.485 0.307 0.237 0.634 0.447 0.96 0.628 0.484 0.257 0.96 0.533 1.426 0.817 -1.505 1.103-2.91 2.547-4.069 3.929C4.732 203.27 3.998 202.768 3.257 202.271zM3.108 207.55c0.703-1.01 1.555-2.17 2.494-3.32 0.07-0.077 0.129-0.15 0.188-0.229 1.217-1.454 2.583-2.891 4-4.003 1.009 0.6 2.019 1.206 3.116 1.701 1.744 0.771 3.515 1.455 5.326 2.082 2.197 0.763 4.493 1.531 6.818 2.084 -0.335 0.581-0.661 1.16-0.979 1.75 -0.038 0.058-0.068 0.113-0.099 0.17 0.118 0.077 0.237 0.162 0.357 0.24 0.563 0.37 1.187 0.721 1.85 1.054 -1.296 1.646-2.544 3.966-3.751 6.361 -3.652-1.17-7.304-2.368-10.827-3.841 -1.882-0.828-3.761-1.616-5.583-2.567 -0.098-0.047-0.445-0.229-0.93-0.477 0.238-0.94 0.415-1.891 0.514-2.861 -0.188 0.931-0.465 1.834-0.771 2.729C4.336 208.156 3.722 207.852 3.108 207.55zM180.986 226.366c-3.603 0.037-8.088 0.22-13.421 0.419 -6.868 0.267-15.162 0.569-24.814 0.705 -6.083 0.084-12.925 0.388-20.694 0.691 -9.314 0.354-19.982 0.704-32.334 0.647 -6.205-0.018-12.838-0.151-19.934-0.428 -8.324-0.332-17.292-0.864-26.961-1.693 -6.948-0.588-11.887-0.958-15.569-1.188 -9.315-0.574-18.201-0.425-24.288-0.809 0-0.004 0-0.007 0-0.011 -0.068-2.271-0.119-4.543 0.059-6.799 0.099-3.089 1.208-5.961 1.95-8.909 0.594 0.362 1 0.618 1.039 0.637 1.782 1.056 3.722 1.893 5.642 2.663 3.493 1.398 7.047 2.405 10.708 3.263 -0.168 0.342-0.336 0.684-0.503 1.027 -0.029 0.056-0.218 0.425-0.445 0.911 -0.03 0.048-0.06 0.104-0.09 0.162 0.07 0.037 0.139 0.066 0.208 0.094 1.248 0.533 2.515 0.998 3.831 1.418 1.178 0.322 2.355 0.646 3.533 0.95 0.09 0.031 0.178 0.048 0.267 0.066 0.041-0.057 0.071-0.104 0.101-0.161 1.703-3.032 3.058-6.209 4.82-8.452 0.048-0.067 0.098-0.144 0.168-0.209 0.177-0.237 0.375-0.457 0.584-0.666 0.552 0.313 1.216 0.656 1.968 1.018 0.01 0 0.021 0.01 0.039 0.01 2 0.969 4.603 2.033 7.315 2.9 -0.03 0.466-0.04 0.932-0.06 1.396 0 0.105-0.01 0.22-0.01 0.335 0.179 0.067 0.367 0.131 0.555 0.189 2.276 0.741 4.611 1.368 6.947 1.968 0.148 0.038 0.287 0.076 0.436 0.116 0.029-0.096 0.059-0.201 0.089-0.307 0.188-0.685 0.376-1.377 0.563-2.072 1.287 0.874 2.91 1.798 7.712 2.53 1.196 0.179 2.425 0.351 3.661 0.475 0.148 0.019 0.296 0.028 0.435 0.048 2.138 0.199 4.306 0.285 6.434 0.151 -0.119 0.466-0.218 0.932-0.328 1.398 -0.009 0.047-0.019 0.096-0.029 0.152 0.208 0.019 0.425 0.059 0.644 0.085 1.305 0.21 2.613 0.513 3.929 0.695 2.712 0.407 9.304 0.189 14.856-1.15 -0.019 0.722-0.019 1.426-0.029 2.11 0 0.028 0 0.065 0 0.095 0.167 0.019 0.346 0.027 0.514 0.037 2.684 0.229 5.385 0.429 8.037 0.105 0.178-0.019 0.356-0.047 0.545-0.075 0-0.067 0-0.144 0-0.209 0.029-0.573 0.048-1.074 0.048-1.504 0.781 0.085 1.573 0.246 2.337 0.361 1.632 0.267 6.856 0.657 11.239-0.333 0.121 0.572 0.262 1.142 0.42 1.702 0.028 0.095 0.049 0.182 0.074 0.266l0.321 0.021c0.366 0.027 0.632 0.047 0.703 0.057 2.235 0.199 4.502-0.067 6.709-0.629l0.457-0.122c-0.011-0.104-0.029-0.21-0.051-0.314 -0.129-0.866-0.277-1.73-0.456-2.691 0.367-0.029 0.685-0.038 0.901-0.058 8.176-0.809 4.037-0.151 11.987-2.179 5.986-1.521 9.146-2.851 11.471-4.269 0.267 0.438 0.516 0.876 0.771 1.313 0.019 0.048 0.051 0.104 0.08 0.152 0.157-0.048 0.306-0.104 0.466-0.152 2.8-0.97 5.403-2.369 8.075-3.623 0.109-0.047 0.228-0.105 0.336-0.152 0.545-0.257 1.101-0.504 1.664-0.742 1.296 2.272 3.117 4.26 4.929 6.249 1.021 1.102 2.228 2.205 3.128 3.431 0.07 0.097 0.139 0.191 0.198 0.286 0.167-0.01 0.327-0.021 0.484-0.029 3.147-0.207 6.147-0.808 9.036-2.177 0.17-0.084 0.339-0.172 0.507-0.256 -0.042-0.059-0.081-0.115-0.12-0.162 -0.349-0.466-0.693-0.925-1.07-1.38 2.351-1.321 2.844-1.74 4.683-2.814 0.663 0.742 1.307 1.456 1.91 2.103 0.04 0.065 0.099 0.122 0.157 0.179 0.102-0.01 0.211-0.027 0.308-0.047 2.187-0.456 3.901-2.148 5.672-3.813 0.06-0.047 0.109-0.105 0.168-0.161 -0.028-0.037-0.059-0.084-0.1-0.123 -1.198-1.531-2.791-3.071-4.137-4.154 2.998-1.494 5.514-2.341 8.324-4.404 0.108-0.074 0.217-0.162 0.327-0.247 -0.031-0.037-0.062-0.086-0.089-0.125 -0.437-0.579-0.901-1.149-1.375-1.72 1.127-0.522 2.393-1.75 3.998-3.243 -0.179 1.816-0.278 3.634-0.082 5.429 0.625 5.517 4.219 7.049 3.378 18.552 -0.13 1.751-0.109 3.491-0.12 5.23C191.488 226.366 186.232 226.31 180.986 226.366z" fill="#64001d" stroke-width="none" opacity="1" stroke="none"/>
        </g>
        <g id="svga-group-head" transform="matrix(1,0,0,1,0,0)">
          <g id="svga-group-ears-left-move" transform="matrix(1,0,0,1,0,0)">
            <g id="svga-group-ears-left" transform="matrix(1,0,0,1,0,0)">
              <path id="SvgjsPath3809" d="M47.001 83.974c-1.376-2.313-5.638-7.997-9.98-6.603 -2.749 0.882-3.293 3.765-3.735 6.311 -0.588 3.386 0.471 10.083 1.389 12.503 0.881 2.325 3.533 6.816 5.264 8.527 2.13 2.1 4.775 8.793 5.194 9.487 0.66 1.097 1.536 2.745 4.122 2.538 2.853-0.229 4.584-1.742 5.856-1.999C58.253 114.109 50.582 89.995 47.001 83.974z" fill="#e19e95" stroke="#b34e41" stroke-width="1.5" opacity="1"/>
              <path id="SvgjsPath3810" d="M44.197 97.997c-0.132-0.548 0.007-1.47 0.142-2.362 0.124-0.812 0.24-1.579 0.169-2.121 -0.267-2.032-1.773-5.893-2.757-7.985 -1.132-2.407-2.963-5.439-5.262-6.221 -0.95-0.324-1.575 0.063-1.938 0.456 -0.266 0.289-0.325 0.627-0.238 0.667 0.086 0.04 0.285-0.24 0.572-0.504 0.235-0.216 0.579-0.402 1.051-0.363 -0.19 1.011-1.167 6.49-0.744 10.225 0.333 2.938 1.593 5.131 1.79 5.46 0.029 0.346 0.077 0.685 0.148 1.014 0.929 4.287 4.971 9.163 6.378 10.758 0.259 0.295 0.531 0.47 0.598 0.398 0.066-0.072-0.094-0.364-0.353-0.66 -1.388-1.585-5.391-6.442-6.289-10.579 -0.952-4.389 2.318-10.896 3.048-12.272 0.371 0.646 0.687 1.267 0.93 1.785 0.19 0.406 0.402 0.881 0.619 1.395 -0.429 0.718-3.434 5.958-2.338 10.153 0.406 1.546 2.235 3.54 3.447 4.086 0.667 0.301 0.919 0.75 1.209 1.271 0.336 0.604 0.718 1.288 1.828 1.784 0.225 0.102 0.429 0.142 0.61 0.142 0.313 0 0.551-0.126 0.725-0.276 0.018 0.266 0.017 0.604 0.009 0.917 -0.012 0.404 0.042 0.737 0.137 0.745 0.094 0.008 0.196-0.313 0.207-0.717 0.016-0.496 0.013-1.11-0.072-1.403 -0.248-0.865-1.008-1.841-1.813-2.875C45.221 99.896 44.403 98.844 44.197 97.997zM36.95 94.196c-2.177-6.731 0.656-12.54 1.144-13.464 0.85 0.775 1.6 1.811 2.21 2.824C39.86 84.365 37.041 89.669 36.95 94.196zM46.341 104.042c-1.004-0.447-1.339-1.051-1.666-1.633 -0.293-0.527-0.598-1.072-1.369-1.42 -0.168-0.075-0.352-0.191-0.542-0.323 -2.486-5.906 0.272-8.488 0.963-9.017 0.211 0.722 0.369 1.384 0.439 1.915 0.063 0.488-0.052 1.263-0.167 2.012 -0.142 0.929-0.286 1.89-0.137 2.512 0.226 0.926 1.069 2.009 1.884 3.057 0.723 0.929 1.466 1.888 1.721 2.67C47.359 103.972 47.017 104.345 46.341 104.042z" fill="#b34e41" stroke-width="none" opacity="1" stroke="none"/>
            </g>
          </g>
          <g id="svga-group-ears-right-move" transform="matrix(1,0,0,1,0,0)">
            <g id="svga-group-ears-right" transform="matrix(1,0,0,1,0,0)">
              <path id="SvgjsPath3811" d="M152.736 83.974c1.377-2.313 5.639-7.997 9.98-6.603 2.75 0.882 3.293 3.765 3.736 6.311 0.588 3.386-0.471 10.083-1.389 12.503 -0.881 2.325-3.533 6.816-5.266 8.527 -2.129 2.1-4.775 8.793-5.193 9.487 -0.658 1.097-1.535 2.745-4.121 2.538 -2.854-0.229-4.584-1.742-5.857-1.999C141.484 114.109 149.156 89.995 152.736 83.974z" fill="#e19e95" stroke="#b34e41" stroke-width="1.5" opacity="1"/>
              <path id="SvgjsPath3812" d="M153.727 100.913c-0.805 1.033-1.564 2.009-1.813 2.875 -0.086 0.293-0.088 0.907-0.072 1.403 0.012 0.404 0.113 0.725 0.207 0.717s0.148-0.341 0.137-0.745c-0.008-0.313-0.008-0.651 0.01-0.917 0.174 0.15 0.412 0.276 0.725 0.276 0.182 0 0.385-0.04 0.609-0.142 1.109-0.496 1.492-1.18 1.828-1.784 0.289-0.52 0.543-0.969 1.209-1.271 1.213-0.546 3.041-2.54 3.447-4.086 1.096-4.194-1.908-9.435-2.338-10.153 0.217-0.513 0.43-0.988 0.619-1.395 0.244-0.518 0.559-1.139 0.93-1.785 0.73 1.377 4 7.883 3.049 12.272 -0.896 4.137-4.9 8.994-6.289 10.579 -0.258 0.296-0.418 0.588-0.352 0.66 0.066 0.071 0.338-0.104 0.598-0.398 1.406-1.596 5.449-6.471 6.379-10.758 0.07-0.329 0.117-0.668 0.146-1.014 0.197-0.329 1.459-2.523 1.791-5.46 0.422-3.735-0.555-9.214-0.744-10.225 0.473-0.039 0.814 0.146 1.051 0.363 0.287 0.264 0.486 0.544 0.572 0.504s0.027-0.378-0.238-0.667c-0.363-0.393-0.988-0.779-1.938-0.456 -2.299 0.782-4.131 3.814-5.262 6.221 -0.984 2.093-2.49 5.953-2.758 7.985 -0.072 0.542 0.045 1.309 0.17 2.121 0.135 0.892 0.273 1.814 0.141 2.362C155.336 98.844 154.518 99.896 153.727 100.913zM159.434 83.555c0.611-1.013 1.361-2.049 2.211-2.824 0.488 0.925 3.32 6.733 1.145 13.464C162.697 89.669 159.879 84.365 159.434 83.555zM152.27 103.816c0.254-0.782 0.998-1.741 1.721-2.67 0.816-1.048 1.658-2.131 1.885-3.057 0.148-0.622 0.004-1.583-0.137-2.512 -0.115-0.749-0.23-1.524-0.166-2.012 0.068-0.531 0.227-1.193 0.438-1.915 0.691 0.529 3.449 3.111 0.965 9.017 -0.191 0.132-0.375 0.248-0.543 0.323 -0.771 0.348-1.074 0.893-1.369 1.42 -0.326 0.582-0.662 1.186-1.666 1.633C152.721 104.345 152.379 103.972 152.27 103.816z" fill="#b34e41" stroke-width="none" opacity="1" stroke="none"/>
            </g>
          </g>
          <g id="svga-group-faceshape-wrap" transform="matrix(1,0,0,1,0,0)">
            <g id="svga-group-faceshape-single">
              <path id="SvgjsPath3934" d="M158.918 76.762l-0.005 0c-0.012 0.053-9.983 40.707-18.186 53.285 -6.452 9.894-28.899 29.205-40.573 29.223 -11.671 0.02-34.17-19.225-40.652-29.1C51.261 117.618 41.15 77 41.138 76.946h-0.001c-1.298-4.911-1.994-10.066-2.002-15.382C39.082 28.09 66.289 0.919 99.907 0.867c33.621-0.052 60.913 27.033 60.963 60.507C160.879 66.69 160.201 71.846 158.918 76.762z" fill="#e19e95" stroke-width="none" opacity="1" stroke="none"/>
              <path id="SvgjsPath3935" d="M125.898 6.622c19.104 10.248 32.075 30.355 32.039 53.476 -0.009 5.316-0.704 10.471-2.003 15.382h-0.001c-0.012 0.053-10.123 40.672-18.365 53.224 -5.946 9.061-25.288 28.788-37.566 28.788 -12.279 0-31.619-19.728-37.566-28.788 -8.241-12.552-18.353-53.17-18.364-53.224H44.07c-1.298-4.911-1.994-10.066-2.002-15.382C42.031 36.977 55.003 16.87 74.105 6.622 53.411 16.324 39.096 37.28 39.134 61.564c0.008 5.316 0.704 10.471 2.002 15.382h0.001C41.15 77 51.261 117.618 59.503 130.17c4.416 6.728 16.656 19.762 27.233 25.049 -0.529-0.226-1.062-0.466-1.599-0.717 5.408 2.875 10.664 4.763 14.713 4.768 0.049 0 0.103-0.005 0.152-0.005s0.103 0.005 0.152 0.005c4.048-0.005 9.304-1.893 14.713-4.768 -0.538 0.253-1.071 0.491-1.601 0.718 10.577-5.287 22.818-18.322 27.234-25.05 8.242-12.552 18.354-53.17 18.364-53.224h0.002c1.298-4.911 1.994-10.066 2.002-15.382C160.908 37.28 146.595 16.324 125.898 6.622z" fill="#d98f85" stroke-width="none" opacity="1" stroke="none"/>
              <path id="SvgjsPath3936" d="M158.918 76.762l-0.005 0c-0.012 0.053-9.983 40.707-18.186 53.285 -6.452 9.894-28.899 29.205-40.573 29.223 -11.671 0.02-34.17-19.225-40.652-29.1C51.261 117.618 41.15 77 41.138 76.946h-0.001c-1.298-4.911-1.994-10.066-2.002-15.382C39.082 28.09 66.289 0.919 99.907 0.867c33.621-0.052 60.913 27.033 60.963 60.507C160.879 66.69 160.201 71.846 158.918 76.762z" fill="none" stroke="#b34e41" stroke-width="1.5" opacity="1"/>
            </g>
          </g>
          <g id="svga-group-mouth-single-move" transform="matrix(1,0,0,1,0,0)">
            <g id="svga-group-mouth-single" transform="matrix(1,0,0,1,0,0)">
              <path id="SvgjsPath3915" d="M100.457 141.651c-3.24 0-3.697-2.678-3.697-2.678l7.125-0.188C103.884 138.785 103.307 141.651 100.457 141.651z" fill="url(#SvgjsLinearGradient3916)" opacity="1"/>
              <path id="SvgjsPath3919" d="M99.886 139.415c-1.668 0-2.938-0.171-3.027-0.184 -0.137-0.02-0.232-0.146-0.213-0.282 0.019-0.138 0.147-0.227 0.282-0.214 0.037 0.006 3.7 0.5 6.766-0.195 0.146-0.03 0.27 0.057 0.3 0.189 0.03 0.135-0.055 0.269-0.188 0.299C102.485 139.327 101.082 139.415 99.886 139.415zM100.071 134.142c-1.291 0-2.542-0.477-3.8-0.71 -1.408-0.262-2.812-0.038-4.221 0.096 -1.202 0.114-2.384 0.097-3.574-0.118 -0.566-0.103-1.409-0.165-1.893-0.491 -0.496-0.335-0.404-1.114 0.155-1.324 0.528-0.2 1.35 0.216 1.882 0.317 0.608 0.116 1.225 0.189 1.845 0.198 1.366 0.018 2.719-0.258 4.083-0.306 1.445-0.048 2.835 0.352 4.231 0.658 1.247 0.273 2.325 0.09 3.553-0.174 2.13-0.459 4.259-0.573 6.429-0.67 1.073-0.049 2.167-0.256 3.19-0.583 0.436-0.141 0.953-0.512 1.411-0.261 0.528 0.29 0.503 1.082-0.042 1.337 -1.781 0.837-3.78 0.972-5.715 1.061 -1.235 0.056-2.475 0.117-3.694 0.334C102.64 133.731 101.371 134.142 100.071 134.142z" fill="#b34e41" stroke-width="none" opacity="1" stroke="none"/>
            </g>
          </g>
          <g id="svga-group-eyes-left-move" transform="matrix(1,0,0,1,0,0)">
            <g id="svga-group-eyes-left" transform="matrix(1,0,0,1,0,0)">
              <g id="svga-group-eyesback-left">
                <path id="SvgjsPath3855" d="M66.025 80.104c9.208 0.042 15.785 3.133 22.428 9.178 0.138 0.863-0.601 2.567-1.775 2.992 -3.086 0.59-6.199 1.063-9.317 1.41 -7.733 0.859-10.43 0.213-11.361-0.277 -0.518-0.419-0.859-0.95-1.203-1.577 0.039 0.053 0.08 0.11 0.119 0.163C60.692 83.283 63.403 80.092 66.025 80.104z" fill="url(#SvgjsRadialGradient3856)" opacity="1"/>
              </g>
              <g id="svga-group-eyesiriswrapper-left" transform="matrix(1,0,0,1,0,1)">
                <g id="svga-group-eyesiriscontrol-left" transform="matrix(1,0,0,1,0,0)">
                  <g id="svga-group-eyesiris-left" transform="matrix(1,0,0,1,0,0)">
                    <path id="SvgjsPath3748" d="M83.5 87c0 4.694-3.806 8.5-8.499 8.5 -4.694 0-8.501-3.806-8.501-8.5l0 0c0-4.694 3.807-8.5 8.501-8.5C79.694 78.499 83.5 82.305 83.5 87L83.5 87z" fill="#4e60a3" stroke-width="none" opacity="1"/>
                    <path id="SvgjsPath3749" d="M74.048 78.595c-0.033 0.004-0.066 0.008-0.101 0.012 0.041 0.191 0.081 0.384 0.12 0.575C74.06 78.987 74.055 78.789 74.048 78.595zM74.066 79.18c0.099 2.793 0.262 5.282 0.732 6.183C75.047 84.377 74.625 81.92 74.066 79.18zM74.8 85.365c-0.061 0.236-0.153 0.397-0.294 0.452 -0.142 0.053-0.319-0.008-0.521-0.146 0.058 0.236 0.052 0.422-0.051 0.537 -0.102 0.114-0.285 0.142-0.527 0.11 0.16 0.184 0.242 0.353 0.206 0.5 -0.039 0.148-0.189 0.258-0.415 0.343 0.225 0.088 0.376 0.199 0.411 0.347 0.036 0.148-0.046 0.315-0.205 0.498 0.241-0.029 0.426 0.001 0.525 0.115 0.101 0.114 0.106 0.301 0.05 0.537 0.199-0.137 0.376-0.197 0.518-0.142 0.143 0.053 0.234 0.216 0.291 0.454 0.114-0.215 0.243-0.353 0.396-0.368 0.148-0.02 0.307 0.084 0.466 0.267 0.002-0.244 0.053-0.423 0.181-0.51 0.124-0.086 0.311-0.069 0.537 0.018 -0.11-0.216-0.148-0.398-0.078-0.534 0.071-0.135 0.245-0.207 0.487-0.235 -0.199-0.14-0.321-0.283-0.318-0.436 -0.001-0.153 0.119-0.296 0.321-0.434 -0.241-0.03-0.412-0.103-0.484-0.237 -0.07-0.135-0.031-0.319 0.081-0.535 -0.229 0.085-0.413 0.102-0.538 0.016 -0.126-0.086-0.177-0.267-0.178-0.51 -0.158 0.182-0.316 0.282-0.468 0.262C75.041 85.714 74.911 85.58 74.8 85.365zM75.66 85.471c0.679-0.758 1.446-3.13 2.224-5.813C76.674 82.174 75.662 84.453 75.66 85.471zM77.883 79.657c0.085-0.172 0.172-0.348 0.253-0.524 -0.03-0.011-0.06-0.024-0.09-0.037C77.992 79.284 77.938 79.472 77.883 79.657zM76.377 85.965c0.953-0.357 2.736-2.101 4.671-4.115C78.808 83.517 76.851 85.065 76.377 85.965zM81.048 81.851c0.142-0.106 0.287-0.213 0.433-0.318 -0.021-0.025-0.043-0.047-0.06-0.07C81.297 81.59 81.174 81.722 81.048 81.851zM76.777 86.738c1.01 0.125 3.399-0.591 6.052-1.475C80.068 85.698 77.617 86.159 76.777 86.738zM82.829 85.263c0.156-0.022 0.318-0.048 0.478-0.073 -0.007-0.026-0.013-0.054-0.02-0.081C83.135 85.16 82.979 85.212 82.829 85.263zM76.775 87.606c0.836 0.583 3.284 1.057 6.038 1.505C80.171 88.214 77.786 87.484 76.775 87.606zM82.813 89.111c0.135 0.047 0.271 0.095 0.404 0.138 0.007-0.024 0.013-0.047 0.018-0.071C83.098 89.158 82.954 89.135 82.813 89.111zM76.367 88.375c0.471 0.902 2.42 2.462 4.649 4.142C79.092 90.492 77.32 88.737 76.367 88.375zM81.018 92.514c0.083 0.087 0.17 0.179 0.253 0.268 0.014-0.017 0.027-0.031 0.043-0.046C81.215 92.662 81.113 92.587 81.018 92.514zM75.652 88.867c-0.004 1.019 0.995 3.302 2.191 5.827C77.079 92.006 76.327 89.628 75.652 88.867zM77.844 94.694c0.03 0.106 0.062 0.215 0.09 0.324 0.021-0.008 0.036-0.015 0.055-0.02C77.941 94.896 77.892 94.793 77.844 94.694zM74.788 88.968c-0.476 0.902-0.653 3.386-0.768 6.178C74.594 92.413 75.031 89.958 74.788 88.968zM74.021 95.146c-0.023 0.106-0.044 0.214-0.066 0.323 0.02 0.004 0.035 0.005 0.055 0.007C74.013 95.368 74.018 95.254 74.021 95.146zM73.979 88.657c-0.844 0.576-2.154 2.697-3.553 5.114C72.204 91.617 73.733 89.645 73.979 88.657zM70.427 93.771c-0.074 0.09-0.152 0.185-0.229 0.274 0.018 0.012 0.034 0.02 0.053 0.034C70.309 93.976 70.369 93.873 70.427 93.771zM73.405 88.006c-1.015 0.119-3.16 1.385-5.522 2.875C70.46 89.801 72.726 88.768 73.405 88.006zM67.883 90.884c-0.122 0.051-0.247 0.102-0.372 0.156 0.009 0.019 0.021 0.038 0.033 0.057C67.658 91.027 67.771 90.954 67.883 90.884zM73.198 87.161c-0.951-0.365-3.441-0.238-6.227-0.016C69.755 87.383 72.244 87.521 73.198 87.161zM66.972 87.145c-0.151-0.014-0.308-0.028-0.457-0.041 -0.001 0.027-0.003 0.053-0.001 0.08C66.669 87.169 66.822 87.156 66.972 87.145zM73.407 86.318c-0.67-0.763-2.932-1.809-5.499-2.905C70.259 84.915 72.397 86.196 73.407 86.318zM67.908 83.413c-0.147-0.095-0.297-0.189-0.446-0.285 -0.013 0.026-0.026 0.053-0.041 0.078C67.585 83.276 67.75 83.344 67.908 83.413zM73.985 85.67c-0.239-0.989-1.758-2.967-3.521-5.132C71.849 82.963 73.147 85.09 73.985 85.67zM70.465 80.538c-0.095-0.163-0.188-0.329-0.281-0.494 -0.026 0.018-0.055 0.037-0.079 0.054C70.224 80.245 70.348 80.393 70.465 80.538z" fill="url(#SvgjsRadialGradient3750)" opacity="1"/>
                    <path id="SvgjsPath3753" d="M76.255 78.622c-0.034-0.004-0.066-0.01-0.1-0.014 -0.011 0.196-0.022 0.393-0.034 0.586C76.164 79.004 76.211 78.812 76.255 78.622zM76.12 79.193c-0.627 2.724-1.114 5.17-0.892 6.162C75.724 84.467 75.95 81.984 76.12 79.193zM75.229 85.356c-0.119 0.212-0.25 0.344-0.401 0.36 -0.15 0.014-0.306-0.091-0.464-0.276 -0.006 0.243-0.06 0.421-0.188 0.505 -0.128 0.083-0.313 0.063-0.539-0.03 0.107 0.219 0.143 0.403 0.069 0.536 -0.075 0.133-0.249 0.201-0.489 0.224 0.194 0.144 0.312 0.289 0.308 0.441 -0.003 0.152-0.126 0.292-0.327 0.428 0.24 0.034 0.41 0.111 0.478 0.247 0.067 0.136 0.025 0.318-0.091 0.532 0.229-0.081 0.414-0.093 0.537-0.003 0.123 0.088 0.17 0.27 0.164 0.514 0.166-0.177 0.325-0.278 0.478-0.253 0.148 0.02 0.274 0.16 0.382 0.379 0.064-0.236 0.16-0.396 0.306-0.447 0.143-0.051 0.318 0.014 0.515 0.157 -0.051-0.237-0.041-0.423 0.063-0.536s0.29-0.136 0.532-0.102c-0.157-0.187-0.238-0.356-0.195-0.504 0.039-0.148 0.192-0.255 0.423-0.336 -0.226-0.091-0.372-0.206-0.407-0.354 -0.032-0.149 0.053-0.316 0.218-0.495 -0.243 0.023-0.427-0.009-0.524-0.125 -0.099-0.115-0.102-0.303-0.039-0.538 -0.201 0.134-0.38 0.19-0.521 0.132C75.37 85.756 75.281 85.593 75.229 85.356zM76.033 85.683c0.852-0.558 2.206-2.65 3.652-5.04C77.865 82.76 76.298 84.699 76.033 85.683zM79.685 80.641c0.126-0.145 0.255-0.292 0.38-0.44 -0.027-0.019-0.052-0.04-0.078-0.06C79.886 80.31 79.785 80.477 79.685 80.641zM76.597 86.345c1.013-0.099 3.187-1.322 5.577-2.767C79.578 84.609 77.287 85.598 76.597 86.345zM82.173 83.579c0.165-0.065 0.333-0.131 0.501-0.195 -0.014-0.029-0.029-0.056-0.04-0.083C82.481 83.392 82.328 83.487 82.173 83.579zM76.783 87.194c0.943 0.382 3.437 0.309 6.227 0.142C80.231 87.042 77.745 86.853 76.783 87.194zM83.01 87.336c0.158 0.019 0.32 0.036 0.48 0.053 0.001-0.027 0.002-0.055 0.003-0.083C83.332 87.316 83.168 87.326 83.01 87.336zM76.558 88.033c0.655 0.78 2.898 1.871 5.442 3.017C79.679 89.499 77.565 88.177 76.558 88.033zM82 91.049c0.117 0.08 0.236 0.161 0.354 0.238 0.013-0.021 0.024-0.042 0.035-0.063C82.262 91.168 82.129 91.109 82 91.049zM75.964 88.67c0.221 0.993 1.699 3.004 3.419 5.205C78.048 91.419 76.791 89.266 75.964 88.67zM79.384 93.872c0.059 0.106 0.117 0.217 0.176 0.325 0.018-0.013 0.034-0.023 0.053-0.034C79.536 94.065 79.458 93.967 79.384 93.872zM75.146 88.96c-0.267 0.982 0.107 3.447 0.608 6.195C75.711 92.361 75.601 89.87 75.146 88.96zM75.754 95.155c0.002 0.11 0.004 0.224 0.004 0.337 0.021-0.003 0.038-0.005 0.058-0.005C75.796 95.376 75.775 95.264 75.754 95.155zM74.285 88.834c-0.693 0.748-1.508 3.102-2.341 5.769C73.205 92.11 74.265 89.853 74.285 88.834zM71.944 94.603c-0.05 0.096-0.099 0.195-0.147 0.295 0.017 0.008 0.032 0.013 0.051 0.021C71.879 94.815 71.913 94.707 71.944 94.603zM73.584 88.324c-0.964 0.338-2.779 2.048-4.756 4.021C71.104 90.724 73.091 89.215 73.584 88.324zM68.828 92.345c-0.095 0.067-0.194 0.138-0.29 0.206 0.014 0.016 0.027 0.028 0.041 0.045C68.661 92.511 68.746 92.428 68.828 92.345zM73.197 87.546c-1.01-0.148-3.409 0.521-6.078 1.349C69.889 88.518 72.345 88.106 73.197 87.546zM67.119 88.897c-0.131 0.018-0.265 0.034-0.4 0.054 0.005 0.021 0.011 0.042 0.018 0.063C66.865 88.977 66.993 88.936 67.119 88.897zM73.217 86.677c-0.824-0.599-3.263-1.121-6.01-1.627C69.833 86 72.202 86.777 73.217 86.677zM67.207 85.05c-0.143-0.052-0.29-0.106-0.432-0.158 -0.008 0.026-0.016 0.051-0.021 0.077C66.907 84.995 67.06 85.022 67.207 85.05zM73.637 85.917c-0.45-0.911-2.363-2.506-4.561-4.23C70.959 83.747 72.693 85.538 73.637 85.917zM69.076 81.688c-0.118-0.13-0.236-0.26-0.355-0.391 -0.021 0.022-0.041 0.044-0.061 0.065C68.8 81.471 68.941 81.58 69.076 81.688zM74.363 85.44c0.024-1.017-0.93-3.321-2.073-5.868C72.999 82.273 73.704 84.663 74.363 85.44zM72.29 79.572c-0.049-0.182-0.096-0.366-0.144-0.55 -0.029 0.01-0.062 0.021-0.09 0.032C72.134 79.227 72.214 79.401 72.29 79.572z" fill="url(#SvgjsRadialGradient3754)" opacity="1"/>
                    <path id="SvgjsPath3757" d="M78.334 87c0 1.842-1.492 3.333-3.333 3.333S71.666 88.841 71.666 87c0-1.841 1.494-3.334 3.335-3.334C76.844 83.666 78.334 85.159 78.334 87z" fill="#4e60a3" stroke-width="none" opacity="1"/>
                    <path id="SvgjsPath3758" d="M78.334 87c0 1.842-1.492 3.333-3.333 3.333S71.666 88.841 71.666 87c0-1.841 1.494-3.334 3.335-3.334C76.844 83.666 78.334 85.159 78.334 87z" fill="#000000" stroke-width="none" opacity="0.9"/>
                    <path id="SvgjsPath3759" d="M70.35 90.893c0.636-0.427 1.5-0.255 1.927 0.38 0.427 0.637 0.258 1.5-0.379 1.927 -0.638 0.429-1.5 0.258-1.927-0.378C69.544 92.185 69.713 91.32 70.35 90.893L70.35 90.893z" fill="url(#SvgjsLinearGradient3760)" opacity="0.5"/>
                    <path id="SvgjsPath3763" d="M77.635 86.536c-0.356 0.53-1.373 0.468-2.275-0.136 -0.903-0.605-1.346-1.526-0.991-2.055l0.001-0.001c0.354-0.53 1.372-0.469 2.274 0.137 0.903 0.604 1.346 1.524 0.992 2.054C77.635 86.536 77.635 86.536 77.635 86.536z" fill="url(#SvgjsLinearGradient3764)" opacity="0.5"/>
                    <path id="SvgjsPath3767" d="M81.682 85.121c-0.806 1.237-2.884 1.31-4.641 0.166 -1.756-1.145-2.527-3.075-1.722-4.311 0.806-1.235 2.884-1.31 4.641-0.166C81.715 81.956 82.485 83.887 81.682 85.121L81.682 85.121z" fill="url(#SvgjsLinearGradient3768)" opacity="0.75"/>
                  </g>
                </g>
              </g>
              <g id="svga-group-eyesfront-left">
                <path id="SvgjsPath3880" d="M57 88c0 13.808 8.06 24.999 18 24.999S93 101.808 93 88c0-13.809-8.06-25.001-18-25.001S57 74.191 57 88zM64.915 91.992c-4.223-8.709-1.512-11.9 1.11-11.888 9.208 0.042 15.785 3.133 22.428 9.178 0.138 0.863-0.601 2.567-1.775 2.992 -3.086 0.59-6.199 1.063-9.317 1.41 -7.733 0.859-10.43 0.213-11.361-0.277 -0.518-0.419-0.859-0.95-1.203-1.577C64.835 91.882 64.876 91.939 64.915 91.992z" fill="#e19e95" stroke-width="none" opacity="1" stroke="none"/>
                <path id="SvgjsPath3881" d="M59.888 86.375c0.023 7.713 7.896 13.931 17.596 13.89 9.696-0.043 17.541-6.328 17.516-14.041 -0.023-7.714-7.898-13.933-17.598-13.892C67.704 72.376 59.863 78.66 59.888 86.375zM64.915 91.992c-4.223-8.709-1.512-11.9 1.11-11.888 9.208 0.042 15.785 3.133 22.428 9.178 0.138 0.863-0.601 2.567-1.775 2.992 -3.086 0.59-6.199 1.063-9.317 1.41 -7.733 0.859-10.43 0.213-11.361-0.277 -0.518-0.419-0.859-0.95-1.203-1.577C64.835 91.882 64.876 91.939 64.915 91.992z" fill="url(#SvgjsRadialGradient3882)" opacity="1"/>
                <path id="SvgjsPath3886" d="M88.453 89.282c0.138 0.863-0.601 2.567-1.775 2.992 -3.086 0.59-6.199 1.063-9.317 1.41 -7.733 0.859-10.43 0.213-11.361-0.277 -0.518-0.419-0.859-0.95-1.203-1.577 0.039 0.053 0.08 0.11 0.119 0.163 -3.392-6.996-2.308-10.426-0.392-11.5 0.685-0.148 1.378-0.271 2.079-0.373C75.507 80.287 81.952 83.366 88.453 89.282z" fill="url(#SvgjsRadialGradient3887)" opacity="1"/>
                <path id="SvgjsPath3890" d="M89.364 86.486c-4.879-4.498-11.941-7.793-18.25-9.692 -5.849-1.761-10.449-2.086-18.501-1.266 6.934-0.149 12.094-0.277 18.777 1.841C77.733 79.379 83.972 82.54 89.364 86.486z" fill="#b34e41" stroke-width="none" opacity="1" stroke="none"/>
                <path id="SvgjsPath3891" d="M88.584 89.314c-6.688-5.901-13.29-8.915-22.559-8.956 -2.622-0.012-5.333 3.063-1.11 11.455 -2.768-3.59-5.786-8.89-13.915-15.427 4.148 0.993 4.8 0.884 7.131 1.154 -1.786-0.744-3.408-2.237-6.61-4.595 5.178 2.897 7.519 3.967 11.008 5.117 -2.017-1.082-3.605-2.437-5.952-4.387 3.634 2.102 5.978 3.468 8.785 4.61l-2.088-2.608c1.557 1.413 3.101 2.689 4.26 3.205 9.479 0.908 16.21 4.665 21.324 10.109C89.249 89.407 89.012 89.691 88.584 89.314zM65.516 92.776c1.329 2.274 8.103 1.813 10.736 1.609 1.092-0.132 10.735-1.593 10.735-2.268 -0.005-0.027-0.011-0.054-0.017-0.081 -3.182 0.594-6.393 1.063-9.61 1.407C66.093 94.65 65.516 92.776 65.516 92.776z" fill="#153a4d" stroke-width="none" opacity="1" stroke="none"/>
              </g>
            </g>
          </g>
          <g id="svga-group-eyes-right-move" transform="matrix(1,0,0,1,0,0)">
            <g id="svga-group-eyes-right" transform="matrix(1,0,0,1,0,0)">
              <g id="svga-group-eyesback-right">
                <path id="SvgjsPath3863" d="M133.975 80.104c-9.208 0.042-15.785 3.133-22.428 9.178 -0.138 0.863 0.601 2.567 1.775 2.992 3.086 0.59 6.199 1.063 9.317 1.41 7.733 0.859 10.43 0.213 11.361-0.277 0.518-0.419 0.859-0.95 1.203-1.577 -0.039 0.053-0.08 0.11-0.119 0.163C139.308 83.283 136.597 80.092 133.975 80.104z" fill="url(#SvgjsRadialGradient3864)" opacity="1"/>
              </g>
              <g id="svga-group-eyesiriswrapper-right" transform="matrix(1,0,0,1,0,1)">
                <g id="svga-group-eyesiriscontrol-right" transform="matrix(1,0,0,1,0,0)">
                  <g id="svga-group-eyesiris-right" transform="matrix(1,0,0,1,0,0)">
                    <path id="SvgjsPath3771" d="M133.5 87c0 4.694-3.806 8.5-8.499 8.5 -4.694 0-8.501-3.806-8.501-8.5l0 0c0-4.694 3.807-8.5 8.501-8.5C129.694 78.499 133.5 82.305 133.5 87L133.5 87z" fill="#4e60a3" stroke-width="none" opacity="1"/>
                    <path id="SvgjsPath3772" d="M124.048 78.595c-0.033 0.004-0.066 0.008-0.101 0.012 0.041 0.191 0.081 0.384 0.12 0.575C124.06 78.987 124.055 78.789 124.048 78.595zM124.066 79.18c0.099 2.793 0.262 5.282 0.732 6.183C125.047 84.377 124.625 81.92 124.066 79.18zM124.8 85.365c-0.061 0.236-0.153 0.397-0.294 0.452 -0.142 0.053-0.319-0.008-0.521-0.146 0.058 0.236 0.052 0.422-0.051 0.537 -0.102 0.114-0.285 0.142-0.527 0.11 0.16 0.184 0.242 0.353 0.206 0.5 -0.039 0.148-0.189 0.258-0.415 0.343 0.225 0.088 0.376 0.199 0.411 0.347 0.036 0.148-0.046 0.315-0.205 0.498 0.241-0.029 0.426 0.001 0.525 0.115 0.101 0.114 0.106 0.301 0.05 0.537 0.199-0.137 0.376-0.197 0.518-0.142 0.143 0.053 0.234 0.216 0.291 0.454 0.114-0.215 0.243-0.353 0.396-0.368 0.148-0.02 0.307 0.084 0.466 0.267 0.002-0.244 0.053-0.423 0.181-0.51 0.124-0.086 0.311-0.069 0.537 0.018 -0.11-0.216-0.148-0.398-0.078-0.534 0.071-0.135 0.245-0.207 0.487-0.235 -0.199-0.14-0.321-0.283-0.318-0.436 -0.001-0.153 0.119-0.296 0.321-0.434 -0.241-0.03-0.412-0.103-0.484-0.237 -0.07-0.135-0.031-0.319 0.081-0.535 -0.229 0.085-0.413 0.102-0.538 0.016 -0.126-0.086-0.177-0.267-0.178-0.51 -0.158 0.182-0.316 0.282-0.468 0.262C125.041 85.714 124.911 85.58 124.8 85.365zM125.66 85.471c0.679-0.758 1.446-3.13 2.224-5.813C126.674 82.174 125.662 84.453 125.66 85.471zM127.883 79.657c0.085-0.172 0.172-0.348 0.253-0.524 -0.03-0.011-0.06-0.024-0.09-0.037C127.992 79.284 127.938 79.472 127.883 79.657zM126.377 85.965c0.953-0.357 2.736-2.101 4.671-4.115C128.808 83.517 126.851 85.065 126.377 85.965zM131.048 81.851c0.142-0.106 0.287-0.213 0.433-0.318 -0.021-0.025-0.043-0.047-0.06-0.07C131.297 81.59 131.174 81.722 131.048 81.851zM126.777 86.738c1.01 0.125 3.399-0.591 6.052-1.475C130.068 85.698 127.617 86.159 126.777 86.738zM132.829 85.263c0.156-0.022 0.318-0.048 0.478-0.073 -0.007-0.026-0.013-0.054-0.02-0.081C133.135 85.16 132.979 85.212 132.829 85.263zM126.775 87.606c0.836 0.583 3.284 1.057 6.038 1.505C130.171 88.214 127.786 87.484 126.775 87.606zM132.813 89.111c0.135 0.047 0.271 0.095 0.404 0.138 0.007-0.024 0.013-0.047 0.018-0.071C133.098 89.158 132.954 89.135 132.813 89.111zM126.367 88.375c0.471 0.902 2.42 2.462 4.649 4.142C129.092 90.492 127.32 88.737 126.367 88.375zM131.018 92.514c0.083 0.087 0.17 0.179 0.253 0.268 0.014-0.017 0.027-0.031 0.043-0.046C131.215 92.662 131.113 92.587 131.018 92.514zM125.652 88.867c-0.004 1.019 0.995 3.302 2.191 5.827C127.079 92.006 126.327 89.628 125.652 88.867zM127.844 94.694c0.03 0.106 0.062 0.215 0.09 0.324 0.021-0.008 0.036-0.015 0.055-0.02C127.941 94.896 127.892 94.793 127.844 94.694zM124.788 88.968c-0.476 0.902-0.653 3.386-0.768 6.178C124.594 92.413 125.031 89.958 124.788 88.968zM124.021 95.146c-0.023 0.106-0.044 0.214-0.066 0.323 0.02 0.004 0.035 0.005 0.055 0.007C124.013 95.368 124.018 95.254 124.021 95.146zM123.979 88.657c-0.844 0.576-2.154 2.697-3.553 5.114C122.204 91.617 123.733 89.645 123.979 88.657zM120.427 93.771c-0.074 0.09-0.152 0.185-0.229 0.274 0.018 0.012 0.034 0.02 0.053 0.034C120.309 93.976 120.369 93.873 120.427 93.771zM123.405 88.006c-1.015 0.119-3.16 1.385-5.522 2.875C120.46 89.801 122.726 88.768 123.405 88.006zM117.883 90.884c-0.122 0.051-0.247 0.102-0.372 0.156 0.009 0.019 0.021 0.038 0.033 0.057C117.658 91.027 117.771 90.954 117.883 90.884zM123.198 87.161c-0.951-0.365-3.441-0.238-6.227-0.016C119.755 87.383 122.244 87.521 123.198 87.161zM116.972 87.145c-0.151-0.014-0.308-0.028-0.457-0.041 -0.001 0.027-0.003 0.053-0.001 0.08C116.669 87.169 116.822 87.156 116.972 87.145zM123.407 86.318c-0.67-0.763-2.932-1.809-5.499-2.905C120.259 84.915 122.397 86.196 123.407 86.318zM117.908 83.413c-0.147-0.095-0.297-0.189-0.446-0.285 -0.013 0.026-0.026 0.053-0.041 0.078C117.585 83.276 117.75 83.344 117.908 83.413zM123.985 85.67c-0.239-0.989-1.758-2.967-3.521-5.132C121.849 82.963 123.147 85.09 123.985 85.67zM120.465 80.538c-0.095-0.163-0.188-0.329-0.281-0.494 -0.026 0.018-0.055 0.037-0.079 0.054C120.224 80.245 120.348 80.393 120.465 80.538z" fill="url(#SvgjsRadialGradient3773)" opacity="1"/>
                    <path id="SvgjsPath3776" d="M126.255 78.622c-0.034-0.004-0.066-0.01-0.1-0.014 -0.011 0.196-0.022 0.393-0.034 0.586C126.164 79.004 126.211 78.812 126.255 78.622zM126.12 79.193c-0.627 2.724-1.114 5.17-0.892 6.162C125.724 84.467 125.95 81.984 126.12 79.193zM125.229 85.356c-0.119 0.212-0.25 0.344-0.401 0.36 -0.15 0.014-0.306-0.091-0.464-0.276 -0.006 0.243-0.06 0.421-0.188 0.505 -0.128 0.083-0.313 0.063-0.539-0.03 0.107 0.219 0.143 0.403 0.069 0.536 -0.075 0.133-0.249 0.201-0.489 0.224 0.194 0.144 0.312 0.289 0.308 0.441 -0.003 0.152-0.126 0.292-0.327 0.428 0.24 0.034 0.41 0.111 0.478 0.247 0.067 0.136 0.025 0.318-0.091 0.532 0.229-0.081 0.414-0.093 0.537-0.003 0.123 0.088 0.17 0.27 0.164 0.514 0.166-0.177 0.325-0.278 0.478-0.253 0.148 0.02 0.274 0.16 0.382 0.379 0.064-0.236 0.16-0.396 0.306-0.447 0.143-0.051 0.318 0.014 0.515 0.157 -0.051-0.237-0.041-0.423 0.063-0.536s0.29-0.136 0.532-0.102c-0.157-0.187-0.238-0.356-0.195-0.504 0.039-0.148 0.192-0.255 0.423-0.336 -0.226-0.091-0.372-0.206-0.407-0.354 -0.032-0.149 0.053-0.316 0.218-0.495 -0.243 0.023-0.427-0.009-0.524-0.125 -0.099-0.115-0.102-0.303-0.039-0.538 -0.201 0.134-0.38 0.19-0.521 0.132C125.37 85.756 125.281 85.593 125.229 85.356zM126.033 85.683c0.852-0.558 2.206-2.65 3.652-5.04C127.865 82.76 126.298 84.699 126.033 85.683zM129.685 80.641c0.126-0.145 0.255-0.292 0.38-0.44 -0.027-0.019-0.052-0.04-0.078-0.06C129.886 80.31 129.785 80.477 129.685 80.641zM126.597 86.345c1.013-0.099 3.187-1.322 5.577-2.767C129.578 84.609 127.287 85.598 126.597 86.345zM132.173 83.579c0.165-0.065 0.333-0.131 0.501-0.195 -0.014-0.029-0.029-0.056-0.04-0.083C132.481 83.392 132.328 83.487 132.173 83.579zM126.783 87.194c0.943 0.382 3.437 0.309 6.227 0.142C130.231 87.042 127.745 86.853 126.783 87.194zM133.01 87.336c0.158 0.019 0.32 0.036 0.48 0.053 0.001-0.027 0.002-0.055 0.003-0.083C133.332 87.316 133.168 87.326 133.01 87.336zM126.558 88.033c0.655 0.78 2.898 1.871 5.442 3.017C129.679 89.499 127.565 88.177 126.558 88.033zM132 91.049c0.117 0.08 0.236 0.161 0.354 0.238 0.013-0.021 0.024-0.042 0.035-0.063C132.262 91.168 132.129 91.109 132 91.049zM125.964 88.67c0.221 0.993 1.699 3.004 3.419 5.205C128.048 91.419 126.791 89.266 125.964 88.67zM129.384 93.872c0.059 0.106 0.117 0.217 0.176 0.325 0.018-0.013 0.034-0.023 0.053-0.034C129.536 94.065 129.458 93.967 129.384 93.872zM125.146 88.96c-0.267 0.982 0.107 3.447 0.608 6.195C125.711 92.361 125.601 89.87 125.146 88.96zM125.754 95.155c0.002 0.11 0.004 0.224 0.004 0.337 0.021-0.003 0.038-0.005 0.058-0.005C125.796 95.376 125.775 95.264 125.754 95.155zM124.285 88.834c-0.693 0.748-1.508 3.102-2.341 5.769C123.205 92.11 124.265 89.853 124.285 88.834zM121.944 94.603c-0.05 0.096-0.099 0.195-0.147 0.295 0.017 0.008 0.032 0.013 0.051 0.021C121.879 94.815 121.913 94.707 121.944 94.603zM123.584 88.324c-0.964 0.338-2.779 2.048-4.756 4.021C121.104 90.724 123.091 89.215 123.584 88.324zM118.828 92.345c-0.095 0.067-0.194 0.138-0.29 0.206 0.014 0.016 0.027 0.028 0.041 0.045C118.661 92.511 118.746 92.428 118.828 92.345zM123.197 87.546c-1.01-0.148-3.409 0.521-6.078 1.349C119.889 88.518 122.345 88.106 123.197 87.546zM117.119 88.897c-0.131 0.018-0.265 0.034-0.4 0.054 0.005 0.021 0.011 0.042 0.018 0.063C116.865 88.977 116.993 88.936 117.119 88.897zM123.217 86.677c-0.824-0.599-3.263-1.121-6.01-1.627C119.833 86 122.202 86.777 123.217 86.677zM117.207 85.05c-0.143-0.052-0.29-0.106-0.432-0.158 -0.008 0.026-0.016 0.051-0.021 0.077C116.907 84.995 117.06 85.022 117.207 85.05zM123.637 85.917c-0.45-0.911-2.363-2.506-4.561-4.23C120.959 83.747 122.693 85.538 123.637 85.917zM119.076 81.688c-0.118-0.13-0.236-0.26-0.355-0.391 -0.021 0.022-0.041 0.044-0.061 0.065C118.8 81.471 118.941 81.58 119.076 81.688zM124.363 85.44c0.024-1.017-0.93-3.321-2.073-5.868C122.999 82.273 123.704 84.663 124.363 85.44zM122.29 79.572c-0.049-0.182-0.096-0.366-0.144-0.55 -0.029 0.01-0.062 0.021-0.09 0.032C122.134 79.227 122.214 79.401 122.29 79.572z" fill="url(#SvgjsRadialGradient3777)" opacity="1"/>
                    <path id="SvgjsPath3780" d="M128.334 87c0 1.842-1.492 3.333-3.333 3.333s-3.335-1.492-3.335-3.333c0-1.841 1.494-3.334 3.335-3.334C126.844 83.666 128.334 85.159 128.334 87z" fill="#4e60a3" stroke-width="none" opacity="1"/>
                    <path id="SvgjsPath3781" d="M128.334 87c0 1.842-1.492 3.333-3.333 3.333s-3.335-1.492-3.335-3.333c0-1.841 1.494-3.334 3.335-3.334C126.844 83.666 128.334 85.159 128.334 87z" fill="#000000" stroke-width="none" opacity="0.9"/>
                    <path id="SvgjsPath3782" d="M120.35 90.893c0.636-0.427 1.5-0.255 1.927 0.38 0.427 0.637 0.258 1.5-0.379 1.927 -0.638 0.429-1.5 0.258-1.927-0.378C119.544 92.185 119.713 91.32 120.35 90.893L120.35 90.893z" fill="url(#SvgjsLinearGradient3783)" opacity="0.5"/>
                    <path id="SvgjsPath3786" d="M127.635 86.536c-0.356 0.53-1.373 0.468-2.275-0.136 -0.903-0.605-1.346-1.526-0.991-2.055l0.001-0.001c0.354-0.53 1.372-0.469 2.274 0.137 0.903 0.604 1.346 1.524 0.992 2.054C127.635 86.536 127.635 86.536 127.635 86.536z" fill="url(#SvgjsLinearGradient3787)" opacity="0.5"/>
                    <path id="SvgjsPath3790" d="M131.682 85.121c-0.806 1.237-2.884 1.31-4.641 0.166 -1.756-1.145-2.527-3.075-1.722-4.311 0.806-1.235 2.884-1.31 4.641-0.166C131.715 81.956 132.485 83.887 131.682 85.121L131.682 85.121z" fill="url(#SvgjsLinearGradient3791)" opacity="0.75"/>
                  </g>
                </g>
              </g>
              <g id="svga-group-eyesfront-right">
                <path id="SvgjsPath3901" d="M125 62.999c-9.94 0-18 11.193-18 25.001 0 13.808 8.06 24.999 18 24.999S143 101.808 143 88C143 74.191 134.94 62.999 125 62.999zM135.204 91.829c-0.344 0.627-0.686 1.158-1.203 1.577 -0.932 0.491-3.628 1.137-11.361 0.277 -3.118-0.347-6.231-0.82-9.317-1.41 -1.175-0.425-1.913-2.129-1.775-2.992 6.643-6.044 13.22-9.136 22.428-9.178 2.622-0.012 5.333 3.179 1.11 11.888C135.124 91.939 135.165 91.882 135.204 91.829z" fill="#e19e95" stroke-width="none" opacity="1" stroke="none"/>
                <path id="SvgjsPath3902" d="M122.599 72.333c-9.699-0.042-17.574 6.177-17.598 13.892 -0.025 7.713 7.819 13.998 17.516 14.041 9.7 0.041 17.572-6.177 17.596-13.89C140.137 78.66 132.296 72.376 122.599 72.333zM135.204 91.829c-0.344 0.627-0.686 1.158-1.203 1.577 -0.932 0.491-3.628 1.137-11.361 0.277 -3.118-0.347-6.231-0.82-9.317-1.41 -1.175-0.425-1.913-2.129-1.775-2.992 6.643-6.044 13.22-9.136 22.428-9.178 2.622-0.012 5.333 3.179 1.11 11.888C135.124 91.939 135.165 91.882 135.204 91.829z" fill="url(#SvgjsRadialGradient3903)" opacity="1"/>
                <path id="SvgjsPath3907" d="M111.547 89.282c-0.138 0.863 0.601 2.567 1.775 2.992 3.086 0.59 6.199 1.063 9.317 1.41 7.733 0.859 10.43 0.213 11.361-0.277 0.518-0.419 0.859-0.95 1.203-1.577 -0.039 0.053-0.08 0.11-0.119 0.163 3.392-6.996 2.308-10.426 0.392-11.5 -0.685-0.148-1.378-0.271-2.079-0.373C124.493 80.287 118.048 83.366 111.547 89.282z" fill="url(#SvgjsRadialGradient3908)" opacity="1"/>
                <path id="SvgjsPath3911" d="M110.636 86.486c4.879-4.498 11.941-7.793 18.25-9.692 5.849-1.761 10.449-2.086 18.501-1.266 -6.934-0.149-12.094-0.277-18.777 1.841C122.267 79.379 116.028 82.54 110.636 86.486z" fill="#b34e41" stroke-width="none" opacity="1" stroke="none"/>
                <path id="SvgjsPath3912" d="M111.143 88.992c5.114-5.444 11.846-9.201 21.324-10.109 1.159-0.516 2.703-1.792 4.26-3.205l-2.088 2.608c2.808-1.142 5.151-2.509 8.785-4.61 -2.347 1.951-3.936 3.306-5.952 4.387 3.489-1.15 5.83-2.219 11.008-5.117 -3.202 2.358-4.824 3.851-6.61 4.595 2.331-0.27 2.982-0.161 7.131-1.154 -8.129 6.537-11.147 11.837-13.915 15.427 4.223-8.392 1.512-11.467-1.11-11.455 -9.269 0.041-15.87 3.055-22.559 8.956C110.988 89.691 110.751 89.407 111.143 88.992zM122.64 93.444c-3.218-0.345-6.429-0.813-9.61-1.407 -0.006 0.027-0.012 0.054-0.017 0.081 0 0.675 9.644 2.136 10.735 2.268 2.634 0.205 9.407 0.666 10.736-1.609C134.484 92.776 133.907 94.65 122.64 93.444z" fill="#153a4d" stroke-width="none" opacity="1" stroke="none"/>
              </g>
            </g>
          </g>
          <g id="svga-group-facehighlight-single">
            <path id="SvgjsPath3664" d="M140.204 113.007c0.035 22.275-17.995 40.365-40.273 40.396 -22.274 0.036-40.361-17.993-40.396-40.272C59.501 90.857 77.53 72.77 99.808 72.735 122.083 72.701 140.171 90.73 140.204 113.007z" fill="url(#SvgjsRadialGradient3665)" opacity="1"/>
            <path id="SvgjsPath3668" d="M135,55.999c0,19.329-15.671,35-35,35c-19.329,0-35-15.671-35-35s15.671-35,35-35C119.329,20.999,135,36.67,135,55.999z" fill="url(#SvgjsRadialGradient3669)" opacity="1"/>
          </g>
          <g id="svga-group-eyebrows-left-move" transform="matrix(1,0,0,1,0,0)">
            <g id="svga-group-eyebrows-left-rotate" transform="matrix(1,0,0,1,0,0)">
              <g id="svga-group-eyebrows-left" transform="matrix(1,0,0,1,0,0)">
                <path id="SvgjsPath3913" d="M56.113 70.739c32.178-9.407 39.48 9.836 32.802 3.849C81.977 68.368 65.958 68.92 56.113 70.739z" fill="#b7513b" stroke-width="none" opacity="1" stroke="none"/>
              </g>
            </g>
          </g>
          <g id="svga-group-eyebrows-right-move" transform="matrix(1,0,0,1,0,0)">
            <g id="svga-group-eyebrows-right-rotate" transform="matrix(1,0,0,1,0,0)">
              <g id="svga-group-eyebrows-right" transform="matrix(1,0,0,1,0,0)">
                <path id="SvgjsPath3914" d="M143.889 70.731c-9.304-1.701-22.773-2.38-30.946 2.53 -1.01 0.606-5.017 4.041-3.951 1.625C110.929 70.486 123.744 64.882 143.889 70.731z" fill="#b7513b" stroke-width="none" opacity="1" stroke="none"/>
              </g>
            </g>
          </g>
          <g id="svga-group-nose-single-move" transform="matrix(1,0,0,1,0,0)">
            <g id="svga-group-nose-single" transform="matrix(1,0,0,1,0,0)">
              <path id="SvgjsPath3920" d="M93.787 116.99c0 0 1.319-0.969 5.75-0.969 5.24 0 6.685 0.759 6.685 0.759s-3.71 2.4-6.937 1.925C96.513 118.295 93.787 116.99 93.787 116.99z" fill="#d28176" stroke-width="none" opacity="1" stroke="none"/>
              <path id="SvgjsPath3921" d="M100.06 120.097c-1.181 0-2.382-0.529-3.423-1.045 -0.423-0.208-0.838-0.374-1.304-0.461 -0.582-0.109-1.656 0.086-2.085-0.356 -0.457-0.473-0.085-1.217 0.54-1.244 0.771 0.012 1.551 0.067 2.298 0.267 1.309 0.35 2.427 1.254 3.814 1.366 1.051 0.084 2.219-0.58 3.159-0.977 0.738-0.312 3.209-1.475 3.805-0.457 0.369 0.629-0.222 1.075-0.789 1.107 -0.702 0.039-1.394 0.277-2.043 0.534C102.777 119.327 101.441 120.097 100.06 120.097z" fill="#c2665a" stroke-width="none" opacity="1" stroke="none"/>
              <path id="SvgjsPath3922" d="M99.989 116.076c0.556 0 1.853-0.647 1.64-1.902 -1.26-7.41-1.64-20.245-1.64-20.245s-0.964 15.033-1.788 20.245C98.001 115.443 99.36 116.076 99.989 116.076z" fill="#ffe0dc" stroke-width="none" opacity="0.2" stroke="none"/>
            </g>
          </g>
          <g id="svga-group-hair-front" transform="matrix(1,0,0,1,0,0)">
            <path id="SvgjsPath3833" d="M151.686 97.871c0-11.927-0.214-18.574-3.512-30.116 -1.318-4.613-5.302-8.946-8.959-13.721 -3.451-4.509-6.078-10.609-9.096-16.049 -5.616 3.104-11.944 5.362-20.059 6.589 -4.189 0.633-9.402 1.421-15.795 2.708 -22.479 4.515-44.862 12.433-47.426 30.883 -2.551 14.437-13.806-33.235 53.641-45.936 49.198-9.264 63.93 13.61 60.493 39.159C159.061 85.624 151.686 97.871 151.686 97.871z" fill="#b7513b" stroke-width="none" opacity="0.1" stroke="none"/>
            <path id="SvgjsPath3834" d="M151.417 100.722c2.836-14.29 3.792-26.049-0.761-36.989 -1.874-4.503-5.385-9.09-9.102-13.947 -3.507-4.582-7.132-9.319-10.193-14.848 -5.702 3.156-11.177 3.985-19.42 5.232 -4.256 0.644-9.551 1.445-16.048 2.752 -22.833 4.591-44.64 11.3-49.561 29.146 -2.594 14.676 0.425 24.889 0.562 25.339l0.031 0.095 -0.043 0.136 -0.06 0.083h-0.25l-0.059-0.193c-0.084-0.259-0.868-2.604-3.153-7.5 -7.005-15.01-12.961-31.84-2.395-57.841C47.262 16.686 55.446 6.695 67.499-0.208 77.797-6.107 87.54-8.975 97.284-8.975c8.261 0 21.392 3.475 21.588 4.475 8.281 0.491 15.644-0.313 27.202 12.248 8.979 9.761 21.073 33.709 17.583 59.679 -1.943 14.471-7.979 25.874-10.557 30.743 -0.692 1.308-1.193 2.253-1.294 2.643L151.417 100.722z" fill="#b7513b" stroke-width="none" opacity="1" stroke="none"/>
            <path id="SvgjsPath3835" d="M163.657 67.426c-1.984 14.777-11.24 32.525-12.24 32.296 2.836-14.29 3.792-25.049-0.761-35.989 -4.134-9.933-16.133-20.627-18.963-28.787 -2.224 1.728-8.598 3.397-19.752 5.224 -4.248 0.696-9.551 1.445-16.048 2.752 -22.833 4.591-44.64 11.3-49.561 29.146 -3.892 22.017 4.976 35.981-2.973 18.959 -7.005-15.01-12.961-33.14-2.395-59.141C47.648 15.432 58.337 0.003 75.085-5.464c2.904-0.948 3.78-0.194 0.897 0.961C61.014 1.515 52.744 15.485 45.689 33.832c0 0 0.304-7.335 3.513-13.843 -7.833 13.622-13.98 27.905-8.879 51.601 -0.951-16.854 7.507-30.616 16.673-37.783 -8.38 11.338-12.324 20.929-12.294 31.598 5.167-13.667 16.371-22.259 31.5-24.667 18.59-2.958 48.883-7.153 56.491-13.126 0.312-0.347 0.653-0.686 1.066-1.008 0 6.396 2.777 9.232 5.24 11.396 13.915 12.229 19 28 18 45 2-17-1-34-10-48 8 8 12 19 14 30 1.22-17.085-3.16-33.417-10.611-48.104 2.134 6.681 2.111 12.406 2.39 12.865 -0.604-1-3.022-28.786-28.181-34.475C150.934-1.238 167.531 38.596 163.657 67.426zM149.595 45.788c-0.771-1.002-10.38-14.231-10.343-22.229C138.123 33.06 142.384 36.429 149.595 45.788zM64.803 31.048c8.477-6.569 14.928-9.919 25.442-12.212 6.227-1.359 15.22-1.644 27.042-4.067 0.04-0.008 0.081-0.019 0.122-0.026 0 0-10.631 3.032-26.412 5.793C80.345 22.399 75.041 24.457 64.803 31.048zM84.513 4.102c19.225-4.631 36.823-3.665 50.436 10.549C126.995 6.347 110.959-0.393 84.513 4.102z" fill="#a83c25" stroke-width="none" opacity="1" stroke="none"/>
            <path id="SvgjsPath3836" d="M49.353 54.83c6.177-10.488 12.681-17.599 24.109-21.923 21.07-7.974 37.013-3.576 60.369-11.915 -4.557 1.627-7.094 4.249-33.97 7.959 -17.238 2.382-25.38 4.37-31.725 7.597C59.112 41.139 54.101 47.572 49.353 54.83zM102.038 5.505c-0.013 0.002-0.087 0.005-0.09 0.005 -7.204 0.476-33.15-0.68-52.604 29.249C66.716 12.814 83.166 9.125 102.038 5.505z" fill="#982a13" stroke-width="none" opacity="1" stroke="none"/>
            <path id="SvgjsPath3837" d="M51.695 46.43c10.477-13.847 18.136-17.225 29.399-18.928C66.793 29.664 51.695 45.36 51.695 46.43 52.058 45.951 51.695 46.43 51.695 46.43zM67.385 8.454C51.056 18.625 47.031 32.039 46.892 33.039 49.467 26.4 59.661 13.267 67.385 8.454zM157.313 77.406c-0.259-9.621 0.057-23.952-14.679-35.755C154.329 52.545 155.494 65.235 157.313 77.406zM57.213 33.421c-0.637 0.263-5.713 5.016-6.229 5.533 -9.832 9.842-11.415 18.801-10.542 32.632C40.237 45.783 56.213 33.833 57.213 33.421zM141.658 19.382c7.828 10.565 12.673 21.56 15.459 29.502 -2.193-5.436-5.308-10.323-10.242-14.787 6.684 7.154 13.271 23.233 13.731 28.865C160.524 61.956 161.244 40.477 141.658 19.382zM100.645 37.108c25.392-4.578 25.475-6.359 33.177-10.399 -8.732 4.581-10.754 5.984-33.37 9.444 -25.869 3.957-47.642 6.37-54.768 27.178C53.682 42.119 75.816 41.586 100.645 37.108z" fill="#c66854" stroke-width="none" opacity="1" stroke="none"/>
            <path id="SvgjsPath3838" d="M151.28 11.084c-7.513-9.719-18.752-17.241-30.852-15.839C89.597-19.604 53.174-3.752 38.345 33.664 25.039 67.235 46.132 101.756 47.706 101c2.401-1.154-4.167-18.054 1.153-30.882 5.416-13.059 25.43-19.579 45.658-24.673 19.117-4.815 27.417-4.69 36.338-9.523 0.003-0.001 0.005-0.003 0.008-0.005 6.412 12.427 14.565 20.061 18.671 31.197 4.276 11.604-0.18 34.874 0.916 35.321 2.902 1.185 11.388-19.541 13.871-30.778C169.387 48.739 163.207 26.516 151.28 11.084zM163.459 67.399c-2.461 18.324-11.344 30.421-11.846 32.362 2.592-13.059 4.02-24.59-0.772-36.105 -3.604-8.663-12.96-17.276-19.401-28.991 -8.695 4.882-16.492 4.22-35.586 8.06C75.84 46.75 51.348 53.125 46.139 72.015c-3.956 22.372 3.399 31.39-2.599 18.928 -4.586-9.527-12.923-32.762-2.391-58.681C46.815 18.316 54.489 7.473 67.599-0.035c19.982-11.446 35.868-10.229 50.924-4.437 1.509-0.282-8.718 2.916-13.15 3.695 6.495 3.255 19.759-13.941 40.555 8.659C155.79 18.604 166.764 42.811 163.459 67.399z" fill="#891b03" stroke-width="none" opacity="1" stroke="none"/>
          </g>
          <g id="svga-group-glasses-single-move" transform="matrix(1,0,0,1,0,0)">
            <g id="svga-group-glasses-single" transform="matrix(1,0,0,1,0,0)">
              <path id="SvgjsPath3796" d="M100,18.13L100,18.13L100,18.13L100,18.13z" fill="#26120b" stroke-width="none" opacity="1"/>
            </g>
          </g>
        </g>
      </g>
    </g>
    <rect id="SvgjsRect3649" width="200" height="15" x="0" y="185" fill="#ecf0f1" opacity="0.5" style="display: none;"/>
    <text id="SvgjsText3650" font-family="Roboto, Helvetica, Arial, sans-serif" font-size="10px" text-anchor="start" font-weight="400" anchor="start" fill="#333333" x="57.982696533203125" y="182.42838287353516" style="display: none;">
      <tspan id="SvgjsTspan3651" dy="13" x="57.982696533203125">Created on face.co</tspan>
    </text>
  </g>
</svg>
