<?xml version="1.0"?>
<svg xmlns="http://www.w3.org/2000/svg" version="1.1" width="600px" height="600px" viewBox="0 0 200 200" style="overflow:hidden!important;">
  <defs id="SvgjsDefs3942">
    <radialGradient id="SvgjsRadialGradient4003" cx="100" cy="113" r="40" gradientUnits="userSpaceOnUse" class="svga-on-canvas-facehighlight-gradient-single-0">
      <stop id="SvgjsStop4004" stop-opacity="0.5" stop-color="#ffe2d6" offset="0"/>
      <stop id="SvgjsStop4005" stop-opacity="0" stop-color="#ffd0bc" offset="0.9"/>
    </radialGradient>
    <radialGradient id="SvgjsRadialGradient4007" cx="100" cy="57" r="36" gradientUnits="userSpaceOnUse" class="svga-on-canvas-facehighlight-gradient-single-1">
      <stop id="SvgjsStop4008" stop-opacity="0.5" stop-color="#ffe2d6" offset="0"/>
      <stop id="SvgjsStop4009" stop-opacity="0" stop-color="#ffd0bc" offset="0.9"/>
    </radialGradient>
    <radialGradient id="SvgjsRadialGradient4088" cx="-558.588" cy="-490.918" r="84.646" gradientTransform="matrix(0.096 -0.0248 0.0245 0.0961 140.5478 120.3577)" gradientUnits="userSpaceOnUse" class="svga-on-canvas-eyesiris-gradient-left-1">
      <stop id="SvgjsStop4089" stop-opacity="0.8" stop-color="#ffffff" offset="0"/>
      <stop id="SvgjsStop4090" stop-opacity="0" stop-color="#ffffff" offset="1"/>
    </radialGradient>
    <radialGradient id="SvgjsRadialGradient4092" cx="-565.337" cy="-492.691" r="84.644" gradientTransform="matrix(0.0991 8.856325e-004 -0.0011 0.0991 130.3774 136.3533)" gradientUnits="userSpaceOnUse" class="svga-on-canvas-eyesiris-gradient-left-2">
      <stop id="SvgjsStop4093" stop-opacity="0.8" stop-color="#ffffff" offset="0"/>
      <stop id="SvgjsStop4094" stop-opacity="0" stop-color="#ffffff" offset="1"/>
    </radialGradient>
    <linearGradient id="SvgjsLinearGradient4098" x1="122.283" y1="93.047" x2="123.61" y2="91.466" gradientTransform="matrix(1 0 0 1 -52 0)" gradientUnits="userSpaceOnUse" class="svga-on-canvas-eyesiris-gradient-left-5">
      <stop id="SvgjsStop4099" stop-opacity="1" stop-color="#ffffff" offset="0"/>
      <stop id="SvgjsStop4100" stop-opacity="0" stop-color="#ffffff" offset="1"/>
    </linearGradient>
    <linearGradient id="SvgjsLinearGradient4102" x1="127" y1="85" x2="125" y2="87" gradientTransform="matrix(1 0 0 1 -50 0)" gradientUnits="userSpaceOnUse" class="svga-on-canvas-eyesiris-gradient-left-6">
      <stop id="SvgjsStop4103" stop-opacity="1" stop-color="#ffffff" offset="0"/>
      <stop id="SvgjsStop4104" stop-opacity="0" stop-color="#ffffff" offset="1"/>
    </linearGradient>
    <linearGradient id="SvgjsLinearGradient4106" x1="130" y1="81" x2="126" y2="85" gradientTransform="matrix(1 0 0 1 -50 0)" gradientUnits="userSpaceOnUse" class="svga-on-canvas-eyesiris-gradient-left-7">
      <stop id="SvgjsStop4107" stop-opacity="1" stop-color="#ffffff" offset="0"/>
      <stop id="SvgjsStop4108" stop-opacity="0" stop-color="#ffffff" offset="1"/>
    </linearGradient>
    <radialGradient id="SvgjsRadialGradient4111" cx="-578.76" cy="-490.73" r="84.646" gradientTransform="matrix(0.096 -0.0248 0.0245 0.0961 192.4794 119.8404)" gradientUnits="userSpaceOnUse" class="svga-on-canvas-eyesiris-gradient-right-1">
      <stop id="SvgjsStop4112" stop-opacity="0.8" stop-color="#ffffff" offset="0"/>
      <stop id="SvgjsStop4113" stop-opacity="0" stop-color="#ffffff" offset="1"/>
    </radialGradient>
    <radialGradient id="SvgjsRadialGradient4115" cx="-584.778" cy="-487.329" r="84.644" gradientTransform="matrix(0.0991 8.856325e-004 -0.0011 0.0991 182.3104 135.839)" gradientUnits="userSpaceOnUse" class="svga-on-canvas-eyesiris-gradient-right-2">
      <stop id="SvgjsStop4116" stop-opacity="0.8" stop-color="#ffffff" offset="0"/>
      <stop id="SvgjsStop4117" stop-opacity="0" stop-color="#ffffff" offset="1"/>
    </radialGradient>
    <linearGradient id="SvgjsLinearGradient4121" x1="120.284" y1="93.047" x2="121.611" y2="91.467" gradientUnits="userSpaceOnUse" class="svga-on-canvas-eyesiris-gradient-right-5">
      <stop id="SvgjsStop4122" stop-opacity="1" stop-color="#ffffff" offset="0"/>
      <stop id="SvgjsStop4123" stop-opacity="0" stop-color="#ffffff" offset="1"/>
    </linearGradient>
    <linearGradient id="SvgjsLinearGradient4125" x1="127" y1="85" x2="125" y2="87" gradientUnits="userSpaceOnUse" class="svga-on-canvas-eyesiris-gradient-right-6">
      <stop id="SvgjsStop4126" stop-opacity="1" stop-color="#ffffff" offset="0"/>
      <stop id="SvgjsStop4127" stop-opacity="0" stop-color="#ffffff" offset="1"/>
    </linearGradient>
    <linearGradient id="SvgjsLinearGradient4129" x1="130" y1="81" x2="126" y2="85" gradientUnits="userSpaceOnUse" class="svga-on-canvas-eyesiris-gradient-right-7">
      <stop id="SvgjsStop4130" stop-opacity="1" stop-color="#ffffff" offset="0"/>
      <stop id="SvgjsStop4131" stop-opacity="0" stop-color="#ffffff" offset="1"/>
    </linearGradient>
    <linearGradient id="SvgjsLinearGradient4137" x1="100" y1="141" x2="100" y2="138" gradientUnits="userSpaceOnUse" class="svga-on-canvas-mouth-gradient-single-0">
      <stop id="SvgjsStop4138" stop-opacity="1" stop-color="#f7c1aa" offset="0.1"/>
      <stop id="SvgjsStop4139" stop-opacity="1" stop-color="#f0b399" offset="1"/>
    </linearGradient>
    <radialGradient id="SvgjsRadialGradient4190" cx="126.485" cy="86.435" r="13.37" gradientTransform="matrix(-1.0172 0 0 1.0172 202.565 -1.469)" gradientUnits="userSpaceOnUse" class="svga-on-canvas-eyesback-gradient-left-0">
      <stop id="SvgjsStop4191" stop-opacity="1" stop-color="#ffffff" offset="0"/>
      <stop id="SvgjsStop4192" stop-opacity="1" stop-color="#fdfefe" offset="0.544"/>
      <stop id="SvgjsStop4193" stop-opacity="1" stop-color="#f6f8f9" offset="0.74"/>
      <stop id="SvgjsStop4194" stop-opacity="1" stop-color="#eaeff2" offset="0.879"/>
      <stop id="SvgjsStop4195" stop-opacity="1" stop-color="#d9e3e8" offset="0.992"/>
      <stop id="SvgjsStop4196" stop-opacity="1" stop-color="#d8e2e7" offset="1"/>
    </radialGradient>
    <radialGradient id="SvgjsRadialGradient4198" cx="126.484" cy="86.435" r="13.371" gradientTransform="matrix(1.0172 0 0 1.0172 -2.565 -1.469)" gradientUnits="userSpaceOnUse" class="svga-on-canvas-eyesback-gradient-right-0">
      <stop id="SvgjsStop4199" stop-opacity="1" stop-color="#ffffff" offset="0"/>
      <stop id="SvgjsStop4200" stop-opacity="1" stop-color="#fdfefe" offset="0.544"/>
      <stop id="SvgjsStop4201" stop-opacity="1" stop-color="#f6f8f9" offset="0.74"/>
      <stop id="SvgjsStop4202" stop-opacity="1" stop-color="#eaeff2" offset="0.879"/>
      <stop id="SvgjsStop4203" stop-opacity="1" stop-color="#d9e3e8" offset="0.992"/>
      <stop id="SvgjsStop4204" stop-opacity="1" stop-color="#d8e2e7" offset="1"/>
    </radialGradient>
    <radialGradient id="SvgjsRadialGradient4206" cx="126.485" cy="86.435" r="13.37" gradientTransform="matrix(-1.0172 0 0 1.0172 202.565 -1.469)" gradientUnits="userSpaceOnUse" class="svga-on-canvas-eyesfront-gradient-left-0">
      <stop id="SvgjsStop4207" stop-opacity="1" stop-color="#ffffff" offset="0"/>
      <stop id="SvgjsStop4208" stop-opacity="1" stop-color="#fdfefe" offset="0.544"/>
      <stop id="SvgjsStop4209" stop-opacity="1" stop-color="#f6f8f9" offset="0.74"/>
      <stop id="SvgjsStop4210" stop-opacity="1" stop-color="#eaeff2" offset="0.879"/>
      <stop id="SvgjsStop4211" stop-opacity="1" stop-color="#d9e3e8" offset="0.992"/>
      <stop id="SvgjsStop4212" stop-opacity="1" stop-color="#d8e2e7" offset="1"/>
    </radialGradient>
    <radialGradient id="SvgjsRadialGradient4216" cx="121.915" cy="85.945" fx="133.772" fy="85.978" r="16.863" gradientTransform="matrix(0.9998 0.0208 0.0166 -0.7998 -45.2343 152.149)" gradientUnits="userSpaceOnUse" class="svga-on-canvas-eyesfront-gradient-left-3">
      <stop id="SvgjsStop4217" stop-opacity="1" stop-color="#f0b399" offset="0"/>
      <stop id="SvgjsStop4218" stop-opacity="0.3" stop-color="#f0b399" offset="0.7"/>
      <stop id="SvgjsStop4219" stop-opacity="0" stop-color="#ffd0bc" offset="1"/>
    </radialGradient>
    <radialGradient id="SvgjsRadialGradient4221" cx="72.994" cy="103.619" r="22.097" gradientTransform="matrix(1.0455 -0.0545 0.0548 1.0391 -8.9357 0.7632)" gradientUnits="userSpaceOnUse" class="svga-on-canvas-eyesfront-gradient-left-4">
      <stop id="SvgjsStop4222" stop-opacity="0" stop-color="#000000" offset="0.95"/>
      <stop id="SvgjsStop4223" stop-opacity="0.3" stop-color="#000000" offset="1"/>
    </radialGradient>
    <radialGradient id="SvgjsRadialGradient4227" cx="126.484" cy="86.435" r="13.371" gradientTransform="matrix(1.0172 0 0 1.0172 -2.565 -1.469)" gradientUnits="userSpaceOnUse" class="svga-on-canvas-eyesfront-gradient-right-0">
      <stop id="SvgjsStop4228" stop-opacity="1" stop-color="#ffffff" offset="0"/>
      <stop id="SvgjsStop4229" stop-opacity="1" stop-color="#fdfefe" offset="0.544"/>
      <stop id="SvgjsStop4230" stop-opacity="1" stop-color="#f6f8f9" offset="0.74"/>
      <stop id="SvgjsStop4231" stop-opacity="1" stop-color="#eaeff2" offset="0.879"/>
      <stop id="SvgjsStop4232" stop-opacity="1" stop-color="#d9e3e8" offset="0.992"/>
      <stop id="SvgjsStop4233" stop-opacity="1" stop-color="#d8e2e7" offset="1"/>
    </radialGradient>
    <radialGradient id="SvgjsRadialGradient4237" cx="121.915" cy="85.945" fx="133.772" fy="85.978" r="16.863" gradientTransform="matrix(-0.9998 0.0208 -0.0166 -0.7998 245.2343 152.149)" gradientUnits="userSpaceOnUse" class="svga-on-canvas-eyesfront-gradient-right-3">
      <stop id="SvgjsStop4238" stop-opacity="1" stop-color="#f0b399" offset="0"/>
      <stop id="SvgjsStop4239" stop-opacity="0.3" stop-color="#f0b399" offset="0.7"/>
      <stop id="SvgjsStop4240" stop-opacity="0" stop-color="#ffd0bc" offset="1"/>
    </radialGradient>
    <radialGradient id="SvgjsRadialGradient4242" cx="72.994" cy="103.619" r="22.097" gradientTransform="matrix(-1.0455 -0.0545 -0.0548 1.0391 208.9357 0.7632)" gradientUnits="userSpaceOnUse" class="svga-on-canvas-eyesfront-gradient-right-4">
      <stop id="SvgjsStop4243" stop-opacity="0" stop-color="#000000" offset="0.95"/>
      <stop id="SvgjsStop4244" stop-opacity="0.3" stop-color="#000000" offset="1"/>
    </radialGradient>
    <linearGradient id="SvgjsLinearGradient4283" x1="99.98" y1="171.27" x2="99.98" y2="136.351" gradientUnits="userSpaceOnUse" class="svga-on-canvas-chinshadow-gradient-single-0">
      <stop id="SvgjsStop4284" stop-opacity="0.8" stop-color="#f0b399" offset="0"/>
      <stop id="SvgjsStop4285" stop-opacity="1" stop-color="#d17f5b" offset="0.7"/>
    </linearGradient>
  </defs>
  <g id="svga-group-wrapper">
    <g id="svga-group-backs-single">
      <path id="SvgjsPath4156" d="M225,225H-25V-25h250V225z" fill="#aee239" stroke-width="none" opacity="1" stroke="none"/>
      <path id="SvgjsPath4157" d="M137.635-25h14.142L225,48.224v14.142L137.635-25z M225,90.649V76.507L123.492-25h-14.142L225,90.649z M225,118.934v-14.142L95.208-25H81.065L225,118.934z M225,147.219v-14.143L66.925-25H52.782L225,147.219z M225,225v-7.071L-17.929-25H-25v7.071L217.929,225H225z M225,5.796V-8.345L208.345-25h-14.142L225,5.796z M225,34.081V19.939L180.061-25h-14.142L225,34.081z M225,175.503V161.36L38.64-25H24.497L225,175.503z M222.487-25L225-22.487V-25H222.487z M48.224,225h14.143L-25,137.635v14.142L48.224,225z M19.938,225h14.143L-25,165.919v14.143L19.938,225z M-8.345,225H5.798L-25,194.203v14.143L-8.345,225z M76.507,225h14.143L-25,109.351v14.142L76.507,225z M-22.487,225L-25,222.487V225H-22.487z M161.36,225h14.143L-25,24.497V38.64L161.36,225z M104.792,225h14.142L-25,81.066v14.142L104.792,225z M189.645,225h14.142L-25-3.787v14.142L189.645,225z M225,203.787v-14.143L10.354-25H-3.786L225,203.787z M133.076,225h14.142L-25,52.782v14.142L133.076,225z" fill="#9cd320" stroke-width="none" opacity="1" stroke="none"/>
    </g>
    <g id="svga-group-humanwrap-move" transform="matrix(1,0,0,1,0,0)">
      <g id="svga-group-humanwrap" transform="matrix(1,0,0,1,0,0)">
        <g id="svga-group-hair-back-move" transform="matrix(1,0,0,1,0,0)">
          <g id="svga-group-hair-back" transform="matrix(1,0,0,1,0,0)">
            <path id="SvgjsPath4169" d="M100.5,100.5h-1v-1h1V100.5z" fill="#6b4e40" stroke-width="none" opacity="1" stroke="none"/>
          </g>
        </g>
        <g id="svga-group-humanbody-single">
          <path id="SvgjsPath4010" d="M190.858 199.866c-6.008-10.158-13.474-11.973-19.628-13.936 -6.323-2.016-19.346-3.178-26.449-4.6 -6.86-1.373-23.153-5.789-23.339-13.488 -0.192-8.066 4.291-40.09 4.291-40.09H74.005c0 0 4.487 32.023 4.294 40.09 -0.184 7.699-16.48 12.115-23.341 13.488 -7.104 1.422-20.125 2.584-26.448 4.6 -6.156 1.963-13.624 3.777-19.632 13.936 -3.644 6.16-6.008 16.133-6.008 27.133h194C196.869 215.999 194.509 206.026 190.858 199.866z" fill="#ffd0bc" stroke-width="none" opacity="1" stroke="none"/>
          <path id="SvgjsPath4011" d="M121.442 167.843c2.495 10.929 18.165 13.698 26.293 15.325 21.909 4.379 33.772 5.134 42.297 19.539 2.903 4.916 5.459 15.864 5.962 24.153 1.835 0.291 0.531-17.432-5.136-26.994 -9.742-16.472-29.089-15.135-46.077-18.535C137.921 179.958 121.628 175.542 121.442 167.843L121.442 167.843zM78.558 167.843c-0.186 7.699-16.479 12.115-23.339 13.488 -16.988 3.4-36.335 2.063-46.077 18.535 -5.667 9.563-6.971 27.285-5.136 26.994 0.503-8.289 3.059-19.237 5.962-24.153 8.524-14.405 20.388-15.16 42.297-19.539C60.393 181.541 76.063 178.771 78.558 167.843L78.558 167.843z" fill="#ffe2d6" stroke-width="none" opacity="1" stroke="none"/>
          <path id="SvgjsPath4012" d="M51.206 189.513c0 0 28.641 0.299 33.473 1.885 2.314 0.758 8.372 5.633 8.372 5.633s-6.556-3.17-8.658-3.758C79.51 191.909 51.206 189.513 51.206 189.513zM99.795 199.999c2.053-0.041 7.887-3.799 7.887-3.799s-5.574 2.059-7.342 2.16c-1.491 0.086-6.366-1.238-6.366-1.238S98.112 200.032 99.795 199.999zM117.008 192.757c6.75-1.818 29.786-3.23 29.786-3.23s-23.791-0.516-30.51 1.725c-2.252 0.752-7.562 5.16-7.562 5.16S114.786 193.354 117.008 192.757z" fill="#f0b399" stroke-width="none" opacity="1" stroke="none"/>
          <path id="SvgjsPath4013" d="M190.858 199.866c-9.741-16.471-29.122-15.142-46.077-18.535 -6.86-1.373-23.153-5.789-23.339-13.488 -0.192-8.066 4.291-40.09 4.291-40.09H74.005c0 0 4.487 32.023 4.294 40.09 -0.184 7.699-16.48 12.115-23.341 13.488 -7.104 1.422-20.125 2.584-26.448 4.6 -6.156 1.963-13.624 3.777-19.632 13.936 -3.644 6.16-6.008 16.133-6.008 27.133h194C196.869 215.999 194.509 206.026 190.858 199.866z" fill="none" stroke="#d17f5b" stroke-width="1.5" opacity="1"/>
        </g>
        <g id="svga-group-chinshadow-single">
          <path id="SvgjsPath4282" d="M74.767 128.517c0.64 4.627 3.508 25.717 4.085 35.813 6.457 3.646 14.213 6.676 21.15 6.676 6.579 0 14.345-2.999 20.882-6.619 0.57-10.076 3.446-31.235 4.086-35.869l0.017-0.113H74.751L74.767 128.517z" fill="url(#SvgjsLinearGradient4283)" opacity="1"/>
        </g>
        <g id="svga-group-clothes-single">
          <path id="SvgjsPath4268" d="M1.21 226.811c-0.09-1.096 0.089-6.144 0.169-7.69 1.305-24.199 9.403-29.321 42.489-39.116 15.99-4.732 20.453-6.269 26.144-18.359 1.614-3.43 3.009-6.393 6.011-7.444 15.289 8.429 28.472 8.16 47.416 1.143 3.516 0.491 4.597 4.978 5.414 8.217 5.254 20.016 37.606 15.497 52.146 23.753 15.091 7.44 15.778 32.33 15.631 39.781 0.003 0.021 0.005 0.039 0.006 0.056C177.005 227.983 25.68 228.386 1.21 226.811z" fill="#335529" stroke-width="none" opacity="1" stroke="none"/>
          <path id="SvgjsPath4269" d="M176.786 216.725c0.847-10.266 1.101-18.312 4.157-27.83 -4.426 14.753 1.476 26.354-7.266 34.423C174.774 220.681 176.516 219.998 176.786 216.725zM24 203c-1.608-3.938-3.672-7.405-4.444-13.604 -0.28 0.134-0.394-0.626-0.666-0.492 1.111 11.097 4.736 15.713 5.84 31.829C24.556 214.957 25.534 206.758 24 203zM121.459 156.274c-0.581 0.144-1.164 0.78-1.75 0.899 8.181 7.474 2.813 10.296 14.771 23.422 0.333-0.167 1.415-0.766 2.718-1.523C129.319 174.611 127.548 163.537 121.459 156.274zM126 180c0.447 1.342 1.101 2.482 1.859 3.603 -0.457 0.174-0.908 0.362-1.37 0.522 -2.363-3.073-4.632-6.134-6.139-12.489 -1.558-6.561-0.884-5.584-5.94-12.752 0.319-0.045 0.954-0.411 1.448-0.491C120.643 165.023 122.608 172.368 126 180zM133.719 181.005c-0.481 0.25-0.969 0.488-1.457 0.725 -6.715-7.001-9.364-15.664-13.832-23.789 0.307-0.059 0.907-0.818 1.188-0.876 3.964 4.215 3.947 6.305 5.151 10.061C126.338 171.828 130.603 177.889 133.719 181.005zM111.212 160.025c3.591 9.259 5.941 16.57 6.595 26.388 -0.469 0.085-0.937 0.17-1.407 0.242 -0.65-5.13-1.491-10.462-1.739-11.689 -0.992-4.915-2.781-11.482-4.401-14.82C110.578 160.113 110.894 160.063 111.212 160.025zM125.619 184.426c-0.555 0.185-1.115 0.352-1.676 0.519 -5.889-7.32-5.781-16.893-10.411-26.211 0.182-0.025 0.465-0.041 0.646-0.068 5.14 8.711 3.5 6.198 5.83 15.03C121.229 178.313 123.751 182.464 125.619 184.426zM115.509 186.785c-0.369 0.053-0.746 0.089-1.12 0.133 -1.339-9.809-1.877-17.542-5.437-26.651 0.249-0.022 0.499-0.037 0.747-0.062C112.922 168.123 114.231 179.352 115.509 186.785zM91.081 160.364c-3.267 8.975-3.961 15.986-4.586 25.452 -0.369-0.063-0.742-0.123-1.105-0.191 0.281-8.057 1.408-18.063 4.9-25.33C90.553 160.322 90.817 160.34 91.081 160.364zM75.389 182.894c-0.419-0.152-0.842-0.297-1.26-0.458 5.056-6.227 7.374-16.511 7.99-24.521 0.332 0.081 0.663 0.15 0.995 0.226C83.353 167.592 79.914 174.831 75.389 182.894zM89.779 160.245c-4.003 7.147-5.299 17.074-5.13 25.23 -0.319-0.063-0.618-0.137-0.93-0.203 -0.337-9.561 0.856-17.051 5.107-25.256C89.146 160.056 89.455 160.212 89.779 160.245zM66.165 179.01c-0.527-0.256-1.054-0.51-1.576-0.774 2.807-1.871 5.653-4.711 7.56-7.97 1.716-2.93 5.611-11.628 6.41-14.44 0.269 0.104 0.543 0.189 0.816 0.282C77.312 165.13 72.909 173.355 66.165 179.01zM73.509 182.205c-0.559-0.215-1.106-0.456-1.661-0.682 4.743-7.656 6.889-16.213 7.854-25.317 0.614 0.203 1.23 1.398 1.847 1.56C80.13 166.507 78.633 174.861 73.509 182.205zM78.229 155.705c-0.65 1.82-1.54 3.55-2.45 5.311 -2.167 4.379-4.345 11.597-11.83 16.88 -0.542-0.276-1.08-0.564-1.618-0.854 6.891-5.698 10.479-14.131 14.154-21.908C77.048 155.346 77.63 155.466 78.229 155.705z" fill="#24461b" stroke-width="none" opacity="1" stroke="none"/>
          <path id="SvgjsPath4270" d="M60.172 177.15l-1.928-1.29c-16.809 6.537-42.125 8.875-52 25.125 -3.719 6.119-4.913 15.014-4.913 26.014 2.027-5.485 0.759-14.439 6.636-23.292C19.401 186.481 39.771 188.32 60.172 177.15zM190.033 203.707c5.067 9.34 4.608 17.807 6.636 23.292 0-11-2.281-19.354-4.913-26.014 -7.483-18.933-33.191-16.791-50-23.328l-1.928 1.29C160.229 190.117 178.203 181.902 190.033 203.707z" fill="#44643a" stroke-width="none" opacity="1" stroke="none"/>
          <path id="SvgjsPath4271" d="M181.049 187.226c-14.496-8.229-46.88-3.804-52.1-23.69 -0.653-2.542-1.702-7.762-5.53-8.29 -0.188 0.037-0.761-0.129-0.76-0.129 -15.076 5.88-30.845 7.63-46.67-1.011 -7.111 2.493-5.169 15.246-18.61 21.22 -5.86 2.654-13.6 4.395-24.6 7.98 -25.782 8.41-30.463 16.581-31.5 35.81 -0.073 1.41-0.273 6.859-0.16 7.79 27.119 1.767 181.426 0.968 195.61 0.34 0.01-0.05 0.01-0.1 0-0.149C197.017 212.672 193.824 193.524 181.049 187.226zM123.799 155.824c7.203 2.412-0.831 13.455 15.84 21.791 -2.201 1.354-4.629 2.715-5.159 2.98 -11.958-13.126-6.443-15.043-14.173-23.123C121.739 156.826 122.459 156.244 123.799 155.824zM119.917 157.563c3.964 4.215 3.648 5.807 4.853 9.563 1.568 4.703 5.833 10.764 8.949 13.88 -2.33 1.211-4.75 2.261-7.229 3.12 -2.363-3.073-4.408-6.164-6.039-12.489 -1.438-5.573-0.936-6.018-5.741-12.652C115.709 158.843 118.341 157.886 119.917 157.563zM114.278 159.063c5.14 8.711 3.4 5.8 5.73 14.632 1.22 4.618 3.742 8.769 5.61 10.73 -3.01 1-6.1 1.75-9.22 2.229 -0.65-5.13-1.414-10.458-1.64-11.689 -1-5.454-2.881-11.482-4.501-14.82C111.539 160.016 113.009 159.254 114.278 159.063zM109.699 160.205c3.223 7.918 4.532 19.146 5.81 26.58 -2.942 0.418-6.063 0.57-8.979 0.57 -0.001-0.025-1.897-15.809-2.641-26.162C105.917 160.893 108.049 160.662 109.699 160.205zM103.389 161.213c0.05 11.677 0.956 14.712 2.41 26.152 -3.489 0.01-6.97-0.149-10.459-0.45 2.365-19.61 3.55-25.632 3.55-25.632C100.732 161.283 102.403 161.246 103.389 161.213zM98.269 161.283c-2.776 15.35-3.252 19.064-3.58 25.572 -3.189-0.268-6.325-0.668-9.3-1.23 0.281-8.057 1.408-18.063 4.9-25.33C92.939 160.565 95.609 161.273 98.269 161.283zM89.779 160.245c-4.003 7.147-5.299 17.074-5.13 25.23 -3.873-0.771-7.202-1.758-10.52-3.04 5.056-6.227 7.374-16.511 7.99-24.521C84.642 158.53 87.31 159.698 89.779 160.245zM81.549 157.766c-1.419 8.741-2.916 17.096-8.04 24.439 -3.04-1.17-6.02-2.5-8.92-3.97 2.807-1.871 5.653-4.711 7.56-7.97 1.716-2.93 5.511-11.429 6.31-14.241C79.439 156.404 80.549 157.505 81.549 157.766zM75.789 154.804c0.77 0.471 1.49 0.761 2.34 1.101 -0.65 1.82-1.44 3.351-2.35 5.111 -2.167 4.379-4.345 11.597-11.83 16.88 -1.39-0.71-2.77-1.46-4.12-2.25C71.408 169.404 69.452 157.678 75.789 154.804zM1.559 226.655c0.136-3.996 0.887-16.321 3.59-22.41 2.73-6.149 8-10.39 13.88-13.52 -0.402 9.421 4.184 10.589 4.5 21.85 0.09 3.41 0.56 6.76 1.13 10.12 -0.26-3.53-0.37-7.03-0.35-10.57 0.058-10.247-4.58-12.021-4.58-21.779 7.43-3.782 15.967-6.216 24.41-8.761 4.94-1.479 9.94-3.029 14.56-5.359 13.184 8.692 25.449 13.279 47.35 13.149 15.873 0 25.119-4.104 34.9-11.109 13.149 6.077 30.126 5.28 39.46 10.91 -1.655 4.925-2.791 7.494-3.1 10.18 -0.715 6.32 0.347 10.814-0.561 16.62 -0.53 3.37-3.12 5.85-3.82 9.16 2.036-6.202 5.709-3.93 5.261-18.551 -0.257-8.245 0.476-8.458 2.779-17.069 11.486 7.199 14.441 24.116 15.091 37.58C162.822 226.877 14.665 226.935 1.559 226.655z" fill="#0e2707" stroke-width="none" opacity="1" stroke="none"/>
        </g>
        <g id="svga-group-head" transform="matrix(1,0,0,1,0,0)">
          <g id="svga-group-ears-left-move" transform="matrix(1,0,0,1,0,0)">
            <g id="svga-group-ears-left" transform="matrix(1,0,0,1,0,0)">
              <path id="SvgjsPath4147" d="M47.001 83.974c-1.376-2.313-5.638-7.997-9.98-6.603 -2.749 0.882-3.293 3.765-3.735 6.311 -0.588 3.386 0.471 10.083 1.389 12.503 0.881 2.325 3.533 6.816 5.264 8.527 2.13 2.1 4.775 8.793 5.194 9.487 0.66 1.097 1.536 2.745 4.122 2.538 2.853-0.229 4.584-1.742 5.856-1.999C58.253 114.109 50.582 89.995 47.001 83.974z" fill="#ffd0bc" stroke="#d17f5b" stroke-width="1.5" opacity="1"/>
              <path id="SvgjsPath4148" d="M44.197 97.997c-0.132-0.548 0.007-1.47 0.142-2.362 0.124-0.812 0.24-1.579 0.169-2.121 -0.267-2.032-1.773-5.893-2.757-7.985 -1.132-2.407-2.963-5.439-5.262-6.221 -0.95-0.324-1.575 0.063-1.938 0.456 -0.266 0.289-0.325 0.627-0.238 0.667 0.086 0.04 0.285-0.24 0.572-0.504 0.235-0.216 0.579-0.402 1.051-0.363 -0.19 1.011-1.167 6.49-0.744 10.225 0.333 2.938 1.593 5.131 1.79 5.46 0.029 0.346 0.077 0.685 0.148 1.014 0.929 4.287 4.971 9.163 6.378 10.758 0.259 0.295 0.531 0.47 0.598 0.398 0.066-0.072-0.094-0.364-0.353-0.66 -1.388-1.585-5.391-6.442-6.289-10.579 -0.952-4.389 2.318-10.896 3.048-12.272 0.371 0.646 0.687 1.267 0.93 1.785 0.19 0.406 0.402 0.881 0.619 1.395 -0.429 0.718-3.434 5.958-2.338 10.153 0.406 1.546 2.235 3.54 3.447 4.086 0.667 0.301 0.919 0.75 1.209 1.271 0.336 0.604 0.718 1.288 1.828 1.784 0.225 0.102 0.429 0.142 0.61 0.142 0.313 0 0.551-0.126 0.725-0.276 0.018 0.266 0.017 0.604 0.009 0.917 -0.012 0.404 0.042 0.737 0.137 0.745 0.094 0.008 0.196-0.313 0.207-0.717 0.016-0.496 0.013-1.11-0.072-1.403 -0.248-0.865-1.008-1.841-1.813-2.875C45.221 99.896 44.403 98.844 44.197 97.997zM36.95 94.196c-2.177-6.731 0.656-12.54 1.144-13.464 0.85 0.775 1.6 1.811 2.21 2.824C39.86 84.365 37.041 89.669 36.95 94.196zM46.341 104.042c-1.004-0.447-1.339-1.051-1.666-1.633 -0.293-0.527-0.598-1.072-1.369-1.42 -0.168-0.075-0.352-0.191-0.542-0.323 -2.486-5.906 0.272-8.488 0.963-9.017 0.211 0.722 0.369 1.384 0.439 1.915 0.063 0.488-0.052 1.263-0.167 2.012 -0.142 0.929-0.286 1.89-0.137 2.512 0.226 0.926 1.069 2.009 1.884 3.057 0.723 0.929 1.466 1.888 1.721 2.67C47.359 103.972 47.017 104.345 46.341 104.042z" fill="#d17f5b" stroke-width="none" opacity="1" stroke="none"/>
            </g>
          </g>
          <g id="svga-group-ears-right-move" transform="matrix(1,0,0,1,0,0)">
            <g id="svga-group-ears-right" transform="matrix(1,0,0,1,0,0)">
              <path id="SvgjsPath4149" d="M152.736 83.974c1.377-2.313 5.639-7.997 9.98-6.603 2.75 0.882 3.293 3.765 3.736 6.311 0.588 3.386-0.471 10.083-1.389 12.503 -0.881 2.325-3.533 6.816-5.266 8.527 -2.129 2.1-4.775 8.793-5.193 9.487 -0.658 1.097-1.535 2.745-4.121 2.538 -2.854-0.229-4.584-1.742-5.857-1.999C141.484 114.109 149.156 89.995 152.736 83.974z" fill="#ffd0bc" stroke="#d17f5b" stroke-width="1.5" opacity="1"/>
              <path id="SvgjsPath4150" d="M153.727 100.913c-0.805 1.033-1.564 2.009-1.813 2.875 -0.086 0.293-0.088 0.907-0.072 1.403 0.012 0.404 0.113 0.725 0.207 0.717s0.148-0.341 0.137-0.745c-0.008-0.313-0.008-0.651 0.01-0.917 0.174 0.15 0.412 0.276 0.725 0.276 0.182 0 0.385-0.04 0.609-0.142 1.109-0.496 1.492-1.18 1.828-1.784 0.289-0.52 0.543-0.969 1.209-1.271 1.213-0.546 3.041-2.54 3.447-4.086 1.096-4.194-1.908-9.435-2.338-10.153 0.217-0.513 0.43-0.988 0.619-1.395 0.244-0.518 0.559-1.139 0.93-1.785 0.73 1.377 4 7.883 3.049 12.272 -0.896 4.137-4.9 8.994-6.289 10.579 -0.258 0.296-0.418 0.588-0.352 0.66 0.066 0.071 0.338-0.104 0.598-0.398 1.406-1.596 5.449-6.471 6.379-10.758 0.07-0.329 0.117-0.668 0.146-1.014 0.197-0.329 1.459-2.523 1.791-5.46 0.422-3.735-0.555-9.214-0.744-10.225 0.473-0.039 0.814 0.146 1.051 0.363 0.287 0.264 0.486 0.544 0.572 0.504s0.027-0.378-0.238-0.667c-0.363-0.393-0.988-0.779-1.938-0.456 -2.299 0.782-4.131 3.814-5.262 6.221 -0.984 2.093-2.49 5.953-2.758 7.985 -0.072 0.542 0.045 1.309 0.17 2.121 0.135 0.892 0.273 1.814 0.141 2.362C155.336 98.844 154.518 99.896 153.727 100.913zM159.434 83.555c0.611-1.013 1.361-2.049 2.211-2.824 0.488 0.925 3.32 6.733 1.145 13.464C162.697 89.669 159.879 84.365 159.434 83.555zM152.27 103.816c0.254-0.782 0.998-1.741 1.721-2.67 0.816-1.048 1.658-2.131 1.885-3.057 0.148-0.622 0.004-1.583-0.137-2.512 -0.115-0.749-0.23-1.524-0.166-2.012 0.068-0.531 0.227-1.193 0.438-1.915 0.691 0.529 3.449 3.111 0.965 9.017 -0.191 0.132-0.375 0.248-0.543 0.323 -0.771 0.348-1.074 0.893-1.369 1.42 -0.326 0.582-0.662 1.186-1.666 1.633C152.721 104.345 152.379 103.972 152.27 103.816z" fill="#d17f5b" stroke-width="none" opacity="1" stroke="none"/>
            </g>
          </g>
          <g id="svga-group-faceshape-wrap" transform="matrix(1,0,0,1,0,0)">
            <g id="svga-group-faceshape-single">
              <path id="SvgjsPath4279" d="M100.002 0.867C66.384 0.919 39.082 28.09 39.134 61.564c0.009 5.316 0.704 10.471 2.002 15.382h0.001c0.012 0.053 8.341 20.15 10.463 32.669 2.38 14.046 10.462 29.745 16.302 35.209 6.052 5.663 20.281 14.445 32.099 14.445 11.267 0 26.046-8.782 32.099-14.445 5.84-5.464 13.922-21.163 16.302-35.209 2.122-12.519 10.452-32.616 10.463-32.669h0.002c1.298-4.911 1.994-10.066 2.002-15.382C160.923 28.09 133.62 0.919 100.002 0.867z" fill="#ffd0bc" stroke-width="none" opacity="1" stroke="none"/>
              <path id="SvgjsPath4280" d="M136.901 13.326c12.866 11.136 21.063 27.958 21.036 46.772 -0.009 5.316-0.671 10.471-1.906 15.382h-0.001c-0.011 0.053-7.939 20.15-9.959 32.669 -2.267 14.047-9.959 29.745-15.517 35.209 -5.761 5.664-19.828 14.445-30.552 14.445 -11.249 0-24.792-8.781-30.552-14.445 -5.558-5.464-13.25-21.162-15.516-35.209 -2.02-12.519-9.948-32.616-9.959-32.669h-0.001c-1.236-4.911-1.898-10.066-1.906-15.382 -0.028-18.813 8.168-35.634 21.033-46.77C48.519 24.422 39.104 41.901 39.134 61.564c0.009 5.316 0.704 10.471 2.002 15.382h0.001c0.012 0.053 8.341 20.15 10.463 32.669 2.38 14.046 10.462 29.745 16.302 35.209 6.052 5.663 20.281 14.445 32.099 14.445 11.267 0 26.046-8.782 32.099-14.445 5.84-5.464 13.922-21.163 16.302-35.209 2.122-12.519 10.452-32.616 10.463-32.669h0.002c1.298-4.911 1.994-10.066 2.002-15.382C160.901 41.9 151.485 24.42 136.901 13.326z" fill="#f7c1aa" stroke-width="none" opacity="1" stroke="none"/>
              <path id="SvgjsPath4281" d="M100.002 0.867C66.384 0.919 39.082 28.09 39.134 61.564c0.009 5.316 0.704 10.471 2.002 15.382h0.001c0.012 0.053 8.341 20.15 10.463 32.669 2.38 14.046 10.462 29.745 16.302 35.209 6.052 5.663 20.281 14.445 32.099 14.445 11.267 0 26.046-8.782 32.099-14.445 5.84-5.464 13.922-21.163 16.302-35.209 2.122-12.519 10.452-32.616 10.463-32.669h0.002c1.298-4.911 1.994-10.066 2.002-15.382C160.923 28.09 133.62 0.919 100.002 0.867z" fill="none" stroke="#d17f5b" stroke-width="1.5" opacity="1"/>
            </g>
          </g>
          <g id="svga-group-mouth-single-move" transform="matrix(1,0,0,1,0,0)">
            <g id="svga-group-mouth-single" transform="matrix(1,0,0,1,0,0)">
              <path id="SvgjsPath4259" d="M99.867 142.685c-4.159 0-7.651-3.162-7.651-3.162 7.261 1.131 16.154-0.671 16.154-0.671S105.119 142.685 99.867 142.685z" fill="#f0b399" stroke-width="none" opacity="1" stroke="none"/>
              <path id="SvgjsPath4260" d="M99.869 138.507c-2.691 0.025-8.86-1.635-11.18-2.938 -1.374-0.769-3.749-3.433-5.4-4.788 -0.635-0.521-0.371-1.528 0.466-1.569 2.036-0.099 4.65 0.979 5.876 1.169 2.565 0.389 5.805 1.835 10.195 1.835 3.262 0 6.828-1.15 9.101-1.574 1.367-0.254 4.529-1.376 6.755-1.501 0.838-0.05 1.18 0.777 0.56 1.316 -1.739 1.526-4.526 4.328-6.028 5.112C107.783 136.837 102.294 138.485 99.869 138.507z" fill="#000000" stroke-width="none" opacity="0.5"/>
              <path id="SvgjsPath4261" d="M86.859 129.328c0 0 0.286 2.427 0.722 3.12 0.6 0.954 4.257 2.914 5.717 3.188 0.993 0.184 2.814 0.476 3.816 0.613 1.085 0.148 1.695 0.015 2.791-0.021 1.179-0.038 2.186 0.132 3.336-0.135 0.819-0.19 3.215-0.834 3.997-1.145 0.604-0.242 1.814-0.643 2.364-0.992 0.456-0.288 1.866-1.333 2.146-1.795 0.366-0.605 0.709-2.752 0.709-2.752L86.859 129.328z" fill="#ffffff" stroke-width="none" opacity="1"/>
              <path id="SvgjsPath4262" d="M92.17 129.748c0 0-0.522 5.283-0.568 5.375 -0.047 0.092-0.179-5.375-0.179-5.375H92.17zM94.364 130.335l0.464 5.601 0.298-5.601H94.364zM99.485 131.161l0.579 5.088 0.375-5.176L99.485 131.161zM103.978 130.093c0.973 0.088 1.298 5.446 1.298 5.446l0.134-5.446H103.978zM107.705 129.438c0 0 0.386 5.114 0.44 5.018 0.053-0.097 0.153-5.018 0.153-5.018H107.705zM88.876 129.436l0.283 4.181 0.283-4.181H88.876zM110.375 129.011l0.086 4.38 0.432-4.413L110.375 129.011z" fill="#000000" stroke-width="none" opacity="0.1"/>
              <path id="SvgjsPath4263" d="M116.764 129.126c-1.218-0.406-3.771-0.125-5.061-0.294 -1.83-0.239-5.542-0.409-7.392-0.356 -1.161 0.034-3.449 0.457-4.608 0.484 -1.191 0.027-3.562-0.461-4.751-0.471 -1.888-0.012-5.689 0.214-7.54 0.534 -1.279 0.222-3.89-0.113-4.914 0.475 -0.237 0.137-0.095 0.75 0 0.981 0.862 2.089 4.188 5.489 7.067 7.497 3.698 2.579 7.586 3.38 10.643 3.381 4.035 0.003 8.785-2.247 12.762-5.639 1.758-1.5 3.982-4.091 4.353-5.537C117.512 129.451 117.079 129.231 116.764 129.126zM99.816 136.352c-2.488 0.019-8.26-1.229-10.697-2.494 -1.461-0.759-3.7-2.577-5.226-3.708 -0.588-0.435-0.454-0.789 0.321-0.822 1.882-0.084 5.042 0.944 6.177 1.1 2.371 0.324 5.366 1.531 9.425 1.531 3.013 0 6.312-0.959 8.414-1.311 1.264-0.213 4.833-1.278 6.89-1.384 0.775-0.04 0.926 0.276 0.354 0.727 -1.61 1.271-4.326 3.216-6.055 4.066C107.224 135.139 102.057 136.328 99.816 136.352z" fill="#1e78a2" stroke="#0c6893" stroke-width="0.75" opacity="1"/>
              <path id="SvgjsPath4264" d="M86.869 134.124c2.588 0.523 8.417 3.611 13.315 3.444 5.105-0.175 12.685-4.745 13.685-4.244 0.373 1.199-9.853 6.985-13.685 7.077C96.747 140.482 85.786 135.485 86.869 134.124zM99.485 131.161c3.109-0.042 6.909-0.442 9.469-1.672 -2.918-1.013-6.938 0.115-9.251 0.168 -3 0.07-5.51-0.934-8.289 0.058C94.069 130.622 96.798 131.198 99.485 131.161z" fill="#3389b1" stroke-width="none" opacity="1" stroke="none"/>
              <path id="SvgjsPath4265" d="M97.732 139.024c-1.881-0.424-1.945-0.596-0.162-0.42 1.09 0.106 2.18 0.132 3.238 0.03 0.141-0.015 0.281-0.029 0.419-0.049 1.195-0.157 2.479-0.546 3.768-1.051 2.015-0.792 2.051-0.6 0.053 0.446 -1.467 0.767-2.831 1.324-3.798 1.44l-0.062 0.007C100.364 139.509 99.123 139.34 97.732 139.024z" fill="#4a9bc1" stroke-width="none" opacity="1" stroke="none"/>
              <path id="SvgjsPath4266" d="M79.599 130.722c0 0-0.561-1.256-0.482-1.724 0.11-0.657 1.521-1.958 1.521-1.958s-0.854 1.498-0.986 1.971C79.523 129.468 79.599 130.722 79.599 130.722zM120.163 130.881c0 0 0.609-1.364 0.523-1.873 -0.119-0.714-1.652-2.127-1.652-2.127s0.929 1.628 1.072 2.142C120.245 129.519 120.163 130.881 120.163 130.881z" fill="#d17f5b" stroke-width="none" opacity="1" stroke="none"/>
            </g>
          </g>
          <g id="svga-group-eyes-left-move" transform="matrix(1,0,0,1,0,0)">
            <g id="svga-group-eyes-left" transform="matrix(1,0,0,1,0,0)">
              <g id="svga-group-eyesback-left">
                <path id="SvgjsPath4189" d="M86.929 86.347c0.161 0.571 0.257 1.157 0.257 1.758 0 1.481-0.523 2.881-1.44 4.135 -4.077 0.038-16.966 0.706-18.935-0.303 -2.813-1.441-5.323-7.369-5.506-8.827C71.3 77.36 78.675 78.479 86.929 86.347z" fill="url(#SvgjsRadialGradient4190)" opacity="1"/>
              </g>
              <g id="svga-group-eyesiriswrapper-left" transform="matrix(1,0,0,1,0,0.5)">
                <g id="svga-group-eyesiriscontrol-left" transform="matrix(1,0,0,1,0,0)">
                  <g id="svga-group-eyesiris-left" transform="matrix(1,0,0,1,0,0)">
                    <path id="SvgjsPath4247" d="M85.129 90.705c-1.521 7.45-7.283 11.838-12.882 9.792 -5.594-2.044-8.899-9.75-7.376-17.2 1.521-7.454 7.296-11.841 12.89-9.794C83.351 75.546 86.652 83.251 85.129 90.705z" fill="#681711" stroke="#3a0400" stroke-width="0.5" opacity="1"/>
                    <path id="SvgjsPath4248" d="M83.496 90.879c-1.484 5.719-5.964 9.057-10.323 7.465 -4.024-1.474-6.565-6.625-6.235-12.067 1.495-0.156 3.126-0.205 4.822-0.093 -0.017 0.078-0.047 0.145-0.063 0.225 -0.533 2.626 0.713 5.377 2.787 6.138 2.081 0.759 4.202-0.764 4.738-3.387 0.066-0.343 0.103-0.687 0.113-1.025C80.757 88.826 82.153 89.72 83.496 90.879z" fill="#77251f" stroke-width="none" opacity="1" stroke="none"/>
                    <path id="SvgjsPath4249" d="M76.421 82.826c-2.102-0.804-4.249 0.797-4.791 3.59 -0.544 2.781 0.721 5.689 2.823 6.493 2.107 0.805 4.254-0.797 4.797-3.577C79.798 86.537 78.527 83.627 76.421 82.826zM76.882 92.7c-0.875 0.362-1.78-0.119-2.021-1.079 -0.232-0.958 0.286-2.022 1.167-2.377 0.881-0.362 1.782 0.12 2.025 1.073C78.29 91.271 77.769 92.337 76.882 92.7z" fill="#000000" stroke-width="none" opacity="0.9"/>
                    <path id="SvgjsPath4250" d="M69.42 94.372c-0.648 0.518-1.613 0.056-2.168-1.042 -0.554-1.088-0.47-2.391 0.181-2.911 0.641-0.51 1.618-0.047 2.168 1.042C70.145 92.551 70.067 93.855 69.42 94.372z" fill="#ffffff" stroke-width="none" opacity="0.6"/>
                    <path id="SvgjsPath4251" d="M83.243 86.395c-1.481 1.181-3.707 0.116-4.966-2.38 -1.26-2.5-1.07-5.489 0.41-6.667 1.478-1.188 3.704-0.123 4.958 2.378C84.904 82.226 84.723 85.209 83.243 86.395z" fill="#ffffff" stroke-width="none" opacity="0.9"/>
                  </g>
                </g>
              </g>
              <g id="svga-group-eyesfront-left">
                <path id="SvgjsPath4214" d="M56 88c0 13.808 8.06 24.999 18 24.999S92 101.808 92 88c0-13.809-8.06-25.001-18-25.001S56 74.191 56 88zM61.305 83.109c9.995-5.749 17.37-4.63 25.624 3.237 0.161 0.571 0.257 1.157 0.257 1.758 0 1.481-0.523 2.881-1.44 4.135 -4.077 0.038-16.966 0.706-18.935-0.303C63.998 90.496 61.487 84.568 61.305 83.109z" fill="#ffd0bc" stroke-width="none" opacity="1" stroke="none"/>
                <path id="SvgjsPath4215" d="M61.409 83.595c0.522 1.979 2.833 7.026 5.401 8.342 1.969 1.009 14.857 0.341 18.935 0.303 0.917-1.253 1.44-2.653 1.44-4.135 0-0.601-0.096-1.187-0.257-1.758 -8.166-7.784-15.476-8.95-25.31-3.407 1.968-5.724 8.522-9.952 16.34-9.987 9.393-0.04 17.018 5.981 17.041 13.451 0.023 7.469-7.572 13.554-16.961 13.596 -9.393 0.04-17.016-5.981-17.039-13.45C60.997 85.534 61.146 84.547 61.409 83.595z" fill="url(#SvgjsRadialGradient4216)" opacity="1"/>
                <path id="SvgjsPath4220" d="M66.811 91.937c-2.813-1.441-5.323-7.369-5.506-8.827 9.995-5.749 17.37-4.63 25.624 3.237 0.161 0.571 0.257 1.157 0.257 1.758 0 1.481-0.523 2.881-1.44 4.135C81.668 92.277 68.779 92.945 66.811 91.937z" fill="url(#SvgjsRadialGradient4221)" opacity="1"/>
                <path id="SvgjsPath4224" d="M61.338 79.989c3.414-1.34 14.297-4.254 19.581-1.339C73.348 76.293 65.782 78.817 61.338 79.989zM83.487 80.982c1.651 0.614 2.711 1.961 3.462 3.018C85.852 82.836 84.318 81.606 83.487 80.982z" fill="#d17f5b" stroke-width="none" opacity="1" stroke="none"/>
                <path id="SvgjsPath4225" d="M84.061 80.665C75.721 78 69.195 78.032 60.873 81.46c-3.914 0.541-5.456 0.196-7.438-0.252 1.121 0.955 2.072 1.884 4.313 2.033 -1.188 0.298-1.629 0.301-2.938 0.361 1.983 0.619 3.232 1.038 5.29 1.375 -0.863 0.409-2.028 0.538-3.103 0.438 0.925 0.726 2.301 0.661 3.688 1.124 3.867 5.08 4.676 6.192 5.875 6.251 10.059 0.608 16.311-0.248 20.313-0.813 -1.499-0.19-17.826 0.781-20.063-0.313 -2.813-1.375-5.323-7.031-5.506-8.423 10.251-5.626 17.743-4.379 26.256 3.659 -1.948-2.957-4.397-4.875-7.75-6.485L84.061 80.665z" fill="#2a150e" stroke-width="none" opacity="1" stroke="none"/>
              </g>
            </g>
          </g>
          <g id="svga-group-eyes-right-move" transform="matrix(1,0,0,1,0,0)">
            <g id="svga-group-eyes-right" transform="matrix(1,0,0,1,0,0)">
              <g id="svga-group-eyesback-right">
                <path id="SvgjsPath4197" d="M113.071 86.347c-0.161 0.571-0.257 1.157-0.257 1.758 0 1.481 0.523 2.881 1.44 4.135 4.077 0.038 16.966 0.706 18.935-0.303 2.813-1.441 5.323-7.369 5.506-8.827C128.7 77.36 121.325 78.479 113.071 86.347z" fill="url(#SvgjsRadialGradient4198)" opacity="1"/>
              </g>
              <g id="svga-group-eyesiriswrapper-right" transform="matrix(1,0,0,1,0,0.5)">
                <g id="svga-group-eyesiriscontrol-right" transform="matrix(1,0,0,1,0,0)">
                  <g id="svga-group-eyesiris-right" transform="matrix(1,0,0,1,0,0)">
                    <path id="SvgjsPath4252" d="M135.129 90.705c-1.521 7.45-7.283 11.838-12.882 9.792 -5.594-2.044-8.899-9.75-7.376-17.2 1.521-7.454 7.296-11.841 12.89-9.794C133.351 75.546 136.652 83.251 135.129 90.705z" fill="#681711" stroke="#3a0400" stroke-width="0.5" opacity="1"/>
                    <path id="SvgjsPath4253" d="M133.496 90.879c-1.484 5.719-5.964 9.057-10.323 7.465 -4.024-1.474-6.565-6.625-6.235-12.067 1.495-0.156 3.126-0.205 4.822-0.093 -0.017 0.078-0.047 0.145-0.063 0.225 -0.533 2.626 0.713 5.377 2.787 6.138 2.081 0.759 4.202-0.764 4.738-3.387 0.066-0.343 0.103-0.687 0.113-1.025C130.757 88.826 132.153 89.72 133.496 90.879z" fill="#77251f" stroke-width="none" opacity="1" stroke="none"/>
                    <path id="SvgjsPath4254" d="M126.421 82.826c-2.102-0.804-4.249 0.797-4.791 3.59 -0.544 2.781 0.721 5.689 2.823 6.493 2.107 0.805 4.254-0.797 4.797-3.577C129.798 86.537 128.527 83.627 126.421 82.826zM126.882 92.7c-0.875 0.362-1.78-0.119-2.021-1.079 -0.232-0.958 0.286-2.022 1.167-2.377 0.881-0.362 1.782 0.12 2.025 1.073C128.29 91.271 127.769 92.337 126.882 92.7z" fill="#000000" stroke-width="none" opacity="0.9"/>
                    <path id="SvgjsPath4255" d="M119.42 94.372c-0.648 0.518-1.613 0.056-2.168-1.042 -0.554-1.088-0.47-2.391 0.181-2.911 0.641-0.51 1.618-0.047 2.168 1.042C120.145 92.551 120.067 93.855 119.42 94.372z" fill="#ffffff" stroke-width="none" opacity="0.6"/>
                    <path id="SvgjsPath4256" d="M133.243 86.395c-1.481 1.181-3.707 0.116-4.966-2.38 -1.26-2.5-1.07-5.489 0.41-6.667 1.478-1.188 3.704-0.123 4.958 2.378C134.904 82.226 134.723 85.209 133.243 86.395z" fill="#ffffff" stroke-width="none" opacity="0.9"/>
                  </g>
                </g>
              </g>
              <g id="svga-group-eyesfront-right">
                <path id="SvgjsPath4235" d="M126 62.999c-9.94 0-18 11.193-18 25.001 0 13.808 8.06 24.999 18 24.999S144 101.808 144 88C144 74.191 135.94 62.999 126 62.999zM133.189 91.937c-1.969 1.009-14.857 0.341-18.935 0.303 -0.917-1.253-1.44-2.653-1.44-4.135 0-0.601 0.096-1.187 0.257-1.758 8.254-7.868 15.629-8.986 25.624-3.237C138.513 84.568 136.002 90.496 133.189 91.937z" fill="#ffd0bc" stroke-width="none" opacity="1" stroke="none"/>
                <path id="SvgjsPath4236" d="M138.591 83.595c-0.522 1.979-2.833 7.026-5.401 8.342 -1.969 1.009-14.857 0.341-18.935 0.303 -0.917-1.253-1.44-2.653-1.44-4.135 0-0.601 0.096-1.187 0.257-1.758 8.166-7.784 15.476-8.95 25.31-3.407 -1.968-5.724-8.522-9.952-16.34-9.987 -9.393-0.04-17.018 5.981-17.041 13.451 -0.023 7.469 7.572 13.554 16.961 13.596 9.393 0.04 17.016-5.981 17.039-13.45C139.003 85.534 138.854 84.547 138.591 83.595z" fill="url(#SvgjsRadialGradient4237)" opacity="1"/>
                <path id="SvgjsPath4241" d="M133.189 91.937c2.813-1.441 5.323-7.369 5.506-8.827 -9.995-5.749-17.37-4.63-25.624 3.237 -0.161 0.571-0.257 1.157-0.257 1.758 0 1.481 0.523 2.881 1.44 4.135C118.332 92.277 131.221 92.945 133.189 91.937z" fill="url(#SvgjsRadialGradient4242)" opacity="1"/>
                <path id="SvgjsPath4245" d="M119.081 78.65c5.284-2.915 16.167-0.001 19.581 1.339C134.218 78.817 126.652 76.293 119.081 78.65zM113.051 84c0.751-1.057 1.811-2.404 3.462-3.018C115.682 81.606 114.148 82.836 113.051 84z" fill="#d17f5b" stroke-width="none" opacity="1" stroke="none"/>
                <path id="SvgjsPath4246" d="M115.939 80.665c8.34-2.665 14.865-2.633 23.188 0.795 3.914 0.541 5.456 0.196 7.438-0.252 -1.121 0.955-2.072 1.884-4.313 2.033 1.188 0.298 1.629 0.301 2.938 0.361 -1.983 0.619-3.232 1.038-5.29 1.375 0.863 0.409 2.028 0.538 3.103 0.438 -0.925 0.726-2.301 0.661-3.688 1.124 -3.867 5.08-4.676 6.192-5.875 6.251 -10.059 0.608-16.311-0.248-20.313-0.813 1.499-0.19 17.826 0.781 20.063-0.313 2.813-1.375 5.323-7.031 5.506-8.423 -10.251-5.626-17.743-4.379-26.256 3.659 1.948-2.957 4.397-4.875 7.75-6.485L115.939 80.665z" fill="#2a150e" stroke-width="none" opacity="1" stroke="none"/>
              </g>
            </g>
          </g>
          <g id="svga-group-facehighlight-single">
            <path id="SvgjsPath4002" d="M140.204 113.007c0.035 22.275-17.995 40.365-40.273 40.396 -22.274 0.036-40.361-17.993-40.396-40.272C59.501 90.857 77.53 72.77 99.808 72.735 122.083 72.701 140.171 90.73 140.204 113.007z" fill="url(#SvgjsRadialGradient4003)" opacity="1"/>
            <path id="SvgjsPath4006" d="M135,55.999c0,19.329-15.671,35-35,35c-19.329,0-35-15.671-35-35s15.671-35,35-35C119.329,20.999,135,36.67,135,55.999z" fill="url(#SvgjsRadialGradient4007)" opacity="1"/>
          </g>
          <g id="svga-group-eyebrows-left-move" transform="matrix(1,0,0,1,0,0)">
            <g id="svga-group-eyebrows-left-rotate" transform="matrix(1,0,0,1,0,0)">
              <g id="svga-group-eyebrows-left" transform="matrix(1,0,0,1,0,0)">
                <path id="SvgjsPath4257" d="M56.113 70.739c32.178-9.407 39.48 9.836 32.802 3.849C81.977 68.368 65.958 68.92 56.113 70.739z" fill="#6b4e40" stroke-width="none" opacity="1" stroke="none"/>
              </g>
            </g>
          </g>
          <g id="svga-group-eyebrows-right-move" transform="matrix(1,0,0,1,0,0)">
            <g id="svga-group-eyebrows-right-rotate" transform="matrix(1,0,0,1,0,0)">
              <g id="svga-group-eyebrows-right" transform="matrix(1,0,0,1,0,0)">
                <path id="SvgjsPath4258" d="M143.889 70.731c-9.304-1.701-22.773-2.38-30.946 2.53 -1.01 0.606-5.017 4.041-3.951 1.625C110.929 70.486 123.744 64.882 143.889 70.731z" fill="#6b4e40" stroke-width="none" opacity="1" stroke="none"/>
              </g>
            </g>
          </g>
          <g id="svga-group-nose-single-move" transform="matrix(1,0,0,1,0,0)">
            <g id="svga-group-nose-single" transform="matrix(1,0,0,1,0,0)">
              <path id="SvgjsPath4144" d="M92.281 116.235c-0.745 2.063 5.028 4.289 7.218 4.426 2.374 0.147 9.024-2.899 7.896-4.991 -1.185-2.197-5.63-0.286-7.547-0.286C97.94 115.384 93.276 113.479 92.281 116.235z" fill="#f0b399" stroke-width="none" opacity="1" stroke="none"/>
              <path id="SvgjsPath4145" d="M102.207 117.221c-0.243-0.522 1.194-1.333 1.748-1.493 0.777-0.226 2.505 0.238 2.438 0.831 -0.06 0.521-1.603-0.169-2.105-0.022C103.767 116.687 102.435 117.712 102.207 117.221zM95.214 116.742c0.706 0 1.753 0.457 1.945 0.057 0.229-0.479-1.56-1.065-2.086-1 -0.434 0.052-1.991 0.958-1.777 1.338C93.496 117.49 94.284 116.742 95.214 116.742z" fill="#d17f5b" stroke-width="none" opacity="1" stroke="none"/>
              <path id="SvgjsPath4146" d="M99.857 113.479c0.669 0 1.807-0.637 1.978-1.9 0.754-5.575-0.521-20.246-1.978-20.246 -1.365 0-2.508 15.024-2.155 20.246C97.789 112.86 99.099 113.479 99.857 113.479" fill="#fff4ef" stroke-width="none" opacity="0.2" stroke="none"/>
            </g>
          </g>
          <g id="svga-group-hair-front" transform="matrix(1,0,0,1,0,0)">
            <path id="SvgjsPath4171" d="M158.43 41.325C140-4.765 100 0.405 100 0.405s-40-5.169-58.43 40.92c-9.245 23.12 2.158 50.324 2.158 50.324h5.826c0 0-2.881-12.303-1.722-16.915 0.281-1.118 2.791-3.66 2.898-4.807 0.118-1.255-0.3-3.367-0.421-4.622 -0.592-6.112 1.982-18.029 5.245-23.173 1.603-2.526 5.369-6.659 8.174-7.699 3.8-1.408 10.327-1.739 14.312-1 2.276 0.422 6.297 1.857 8.542 2.421C89.851 36.676 100 36.722 100 36.722s10.148-0.046 13.418-0.867c2.245-0.563 6.267-1.898 8.543-2.321 3.984-0.739 10.512-0.408 14.312 1 2.806 1.04 6.871 4.972 8.474 7.499 3.263 5.144 5.537 16.16 4.945 22.272 -0.121 1.255-0.539 4.367-0.422 5.623 0.107 1.147 2.617 3.689 2.898 4.807 1.16 4.612-1.722 16.915-1.722 16.915h5.825C156.271 91.649 167.676 64.445 158.43 41.325z" fill="#6b4e40" stroke-width="none" opacity="1" stroke="none"/>
            <path id="SvgjsPath4172" d="M154.938 31.163C136.178-3.114 101.979-0.631 100-0.455c-1.979-0.176-36.177-2.659-54.938 31.618C30.57 57.641 41.57 88.137 42.907 91.612c0.076 0.197 1.576 0.038 1.576 0.038 -0.006-0.015-0.104-0.392-0.166-0.55 -1.209-3.12-12.189-33.18 2.061-59.216C65.111-2.342 99.595 1.007 99.94 1.046L100 0.504l0.06 0.542c0.345-0.039 34.829-3.388 53.563 30.837 14.563 26.61 2.773 57.423 1.996 59.383 -0.021 0.055-0.107 0.375-0.111 0.383 0 0 1.506 0.169 1.575-0.011C158.374 88.294 169.467 57.709 154.938 31.163z" fill="#3d2012" stroke-width="none" opacity="1" stroke="none"/>
          </g>
          <g id="svga-group-glasses-single-move" transform="matrix(1,0,0,1,0,0)">
            <g id="svga-group-glasses-single" transform="matrix(1,0,0,1,0,0)">
              <path id="SvgjsPath4134" d="M100,18.13L100,18.13L100,18.13L100,18.13z" fill="#26120b" stroke-width="none" opacity="1"/>
            </g>
          </g>
        </g>
      </g>
    </g>
    <rect id="SvgjsRect3987" width="200" height="15" x="0" y="185" fill="#ecf0f1" opacity="0.5" style="display: none;"/>
    <text id="SvgjsText3988" font-family="Roboto, Helvetica, Arial, sans-serif" font-size="10px" text-anchor="start" font-weight="400" anchor="start" fill="#333333" x="57.982696533203125" y="182.42838287353516" style="display: none;">
      <tspan id="SvgjsTspan3989" dy="13" x="57.982696533203125">Created on face.co</tspan>
    </text>
  </g>
</svg>
