<?xml version="1.0"?>
<svg xmlns="http://www.w3.org/2000/svg" version="1.1" width="600px" height="600px" viewBox="0 0 200 200" style="overflow:hidden!important;">
  <defs id="SvgjsDefs4977">
    <radialGradient id="SvgjsRadialGradient5038" cx="100" cy="113" r="40" gradientUnits="userSpaceOnUse" class="svga-on-canvas-facehighlight-gradient-single-0">
      <stop id="SvgjsStop5039" stop-opacity="0.5" stop-color="#c27e4b" offset="0"/>
      <stop id="SvgjsStop5040" stop-opacity="0" stop-color="#b36a33" offset="0.9"/>
    </radialGradient>
    <radialGradient id="SvgjsRadialGradient5042" cx="100" cy="57" r="36" gradientUnits="userSpaceOnUse" class="svga-on-canvas-facehighlight-gradient-single-1">
      <stop id="SvgjsStop5043" stop-opacity="0.5" stop-color="#c27e4b" offset="0"/>
      <stop id="SvgjsStop5044" stop-opacity="0" stop-color="#b36a33" offset="0.9"/>
    </radialGradient>
    <radialGradient id="SvgjsRadialGradient5123" cx="-558.588" cy="-490.918" r="84.646" gradientTransform="matrix(0.096 -0.0248 0.0245 0.0961 140.5478 120.3577)" gradientUnits="userSpaceOnUse" class="svga-on-canvas-eyesiris-gradient-left-1">
      <stop id="SvgjsStop5124" stop-opacity="0.8" stop-color="#ffffff" offset="0"/>
      <stop id="SvgjsStop5125" stop-opacity="0" stop-color="#ffffff" offset="1"/>
    </radialGradient>
    <radialGradient id="SvgjsRadialGradient5127" cx="-565.337" cy="-492.691" r="84.644" gradientTransform="matrix(0.0991 8.856325e-004 -0.0011 0.0991 130.3774 136.3533)" gradientUnits="userSpaceOnUse" class="svga-on-canvas-eyesiris-gradient-left-2">
      <stop id="SvgjsStop5128" stop-opacity="0.8" stop-color="#ffffff" offset="0"/>
      <stop id="SvgjsStop5129" stop-opacity="0" stop-color="#ffffff" offset="1"/>
    </radialGradient>
    <linearGradient id="SvgjsLinearGradient5133" x1="122.283" y1="93.047" x2="123.61" y2="91.466" gradientTransform="matrix(1 0 0 1 -52 0)" gradientUnits="userSpaceOnUse" class="svga-on-canvas-eyesiris-gradient-left-5">
      <stop id="SvgjsStop5134" stop-opacity="1" stop-color="#ffffff" offset="0"/>
      <stop id="SvgjsStop5135" stop-opacity="0" stop-color="#ffffff" offset="1"/>
    </linearGradient>
    <linearGradient id="SvgjsLinearGradient5141" x1="130" y1="81" x2="126" y2="85" gradientTransform="matrix(1 0 0 1 -50 0)" gradientUnits="userSpaceOnUse" class="svga-on-canvas-eyesiris-gradient-left-7">
      <stop id="SvgjsStop5142" stop-opacity="1" stop-color="#ffffff" offset="0"/>
      <stop id="SvgjsStop5143" stop-opacity="0" stop-color="#ffffff" offset="1"/>
    </linearGradient>
    <radialGradient id="SvgjsRadialGradient5146" cx="-578.76" cy="-490.73" r="84.646" gradientTransform="matrix(0.096 -0.0248 0.0245 0.0961 192.4794 119.8404)" gradientUnits="userSpaceOnUse" class="svga-on-canvas-eyesiris-gradient-right-1">
      <stop id="SvgjsStop5147" stop-opacity="0.8" stop-color="#ffffff" offset="0"/>
      <stop id="SvgjsStop5148" stop-opacity="0" stop-color="#ffffff" offset="1"/>
    </radialGradient>
    <radialGradient id="SvgjsRadialGradient5150" cx="-584.778" cy="-487.329" r="84.644" gradientTransform="matrix(0.0991 8.856325e-004 -0.0011 0.0991 182.3104 135.839)" gradientUnits="userSpaceOnUse" class="svga-on-canvas-eyesiris-gradient-right-2">
      <stop id="SvgjsStop5151" stop-opacity="0.8" stop-color="#ffffff" offset="0"/>
      <stop id="SvgjsStop5152" stop-opacity="0" stop-color="#ffffff" offset="1"/>
    </radialGradient>
    <linearGradient id="SvgjsLinearGradient5156" x1="120.284" y1="93.047" x2="121.611" y2="91.467" gradientUnits="userSpaceOnUse" class="svga-on-canvas-eyesiris-gradient-right-5">
      <stop id="SvgjsStop5157" stop-opacity="1" stop-color="#ffffff" offset="0"/>
      <stop id="SvgjsStop5158" stop-opacity="0" stop-color="#ffffff" offset="1"/>
    </linearGradient>
    <linearGradient id="SvgjsLinearGradient5164" x1="130" y1="81" x2="126" y2="85" gradientUnits="userSpaceOnUse" class="svga-on-canvas-eyesiris-gradient-right-7">
      <stop id="SvgjsStop5165" stop-opacity="1" stop-color="#ffffff" offset="0"/>
      <stop id="SvgjsStop5166" stop-opacity="0" stop-color="#ffffff" offset="1"/>
    </linearGradient>
    <radialGradient id="SvgjsRadialGradient5228" cx="125.523" cy="88.627" r="13.218" gradientTransform="matrix(-1.0975 0.096 0.0956 1.0928 203.2283 -20.8703)" gradientUnits="userSpaceOnUse" class="svga-on-canvas-eyesback-gradient-left-0">
      <stop id="SvgjsStop5229" stop-opacity="1" stop-color="#ffffff" offset="0"/>
      <stop id="SvgjsStop5230" stop-opacity="1" stop-color="#fdfefe" offset="0.544"/>
      <stop id="SvgjsStop5231" stop-opacity="1" stop-color="#f6f8f9" offset="0.74"/>
      <stop id="SvgjsStop5232" stop-opacity="1" stop-color="#eaeff2" offset="0.879"/>
      <stop id="SvgjsStop5233" stop-opacity="1" stop-color="#d9e3e8" offset="0.992"/>
      <stop id="SvgjsStop5234" stop-opacity="1" stop-color="#d8e2e7" offset="1"/>
    </radialGradient>
    <radialGradient id="SvgjsRadialGradient5236" cx="125.523" cy="88.627" r="13.218" gradientTransform="matrix(1.0975 0.096 -0.0956 1.0928 -3.2288 -20.8703)" gradientUnits="userSpaceOnUse" class="svga-on-canvas-eyesback-gradient-right-0">
      <stop id="SvgjsStop5237" stop-opacity="1" stop-color="#ffffff" offset="0"/>
      <stop id="SvgjsStop5238" stop-opacity="1" stop-color="#fdfefe" offset="0.544"/>
      <stop id="SvgjsStop5239" stop-opacity="1" stop-color="#f6f8f9" offset="0.74"/>
      <stop id="SvgjsStop5240" stop-opacity="1" stop-color="#eaeff2" offset="0.879"/>
      <stop id="SvgjsStop5241" stop-opacity="1" stop-color="#d9e3e8" offset="0.992"/>
      <stop id="SvgjsStop5242" stop-opacity="1" stop-color="#d8e2e7" offset="1"/>
    </radialGradient>
    <radialGradient id="SvgjsRadialGradient5244" cx="125.523" cy="88.627" r="13.218" gradientTransform="matrix(-1.0975 0.096 0.0956 1.0928 203.2283 -20.8703)" gradientUnits="userSpaceOnUse" class="svga-on-canvas-eyesfront-gradient-left-0">
      <stop id="SvgjsStop5245" stop-opacity="1" stop-color="#ffffff" offset="0"/>
      <stop id="SvgjsStop5246" stop-opacity="1" stop-color="#fdfefe" offset="0.544"/>
      <stop id="SvgjsStop5247" stop-opacity="1" stop-color="#f6f8f9" offset="0.74"/>
      <stop id="SvgjsStop5248" stop-opacity="1" stop-color="#eaeff2" offset="0.879"/>
      <stop id="SvgjsStop5249" stop-opacity="1" stop-color="#d9e3e8" offset="0.992"/>
      <stop id="SvgjsStop5250" stop-opacity="1" stop-color="#d8e2e7" offset="1"/>
    </radialGradient>
    <radialGradient id="SvgjsRadialGradient5254" cx="122.915" cy="85.507" fx="136.35" fy="84.425" r="17.038" gradientTransform="matrix(0.9926 0.1216 0.1079 -0.8805 -54.1424 145.8439)" gradientUnits="userSpaceOnUse" class="svga-on-canvas-eyesfront-gradient-left-3">
      <stop id="SvgjsStop5255" stop-opacity="1" stop-color="#a4581e" offset="0"/>
      <stop id="SvgjsStop5256" stop-opacity="0.3" stop-color="#a4581e" offset="0.7"/>
      <stop id="SvgjsStop5257" stop-opacity="0" stop-color="#b36a33" offset="1"/>
    </radialGradient>
    <radialGradient id="SvgjsRadialGradient5259" cx="78.447" cy="85.328" r="26.192" gradientTransform="matrix(0.7158 -0.1012 0.1016 0.7275 7.9808 45.9445)" gradientUnits="userSpaceOnUse" class="svga-on-canvas-eyesfront-gradient-left-4">
      <stop id="SvgjsStop5260" stop-opacity="0" stop-color="#000000" offset="0.9"/>
      <stop id="SvgjsStop5261" stop-opacity="0.3" stop-color="#000000" offset="1"/>
    </radialGradient>
    <radialGradient id="SvgjsRadialGradient5265" cx="125.523" cy="88.627" r="13.218" gradientTransform="matrix(1.0975 0.096 -0.0956 1.0928 -3.2288 -20.8703)" gradientUnits="userSpaceOnUse" class="svga-on-canvas-eyesfront-gradient-right-0">
      <stop id="SvgjsStop5266" stop-opacity="1" stop-color="#ffffff" offset="0"/>
      <stop id="SvgjsStop5267" stop-opacity="1" stop-color="#fdfefe" offset="0.544"/>
      <stop id="SvgjsStop5268" stop-opacity="1" stop-color="#f6f8f9" offset="0.74"/>
      <stop id="SvgjsStop5269" stop-opacity="1" stop-color="#eaeff2" offset="0.879"/>
      <stop id="SvgjsStop5270" stop-opacity="1" stop-color="#d9e3e8" offset="0.992"/>
      <stop id="SvgjsStop5271" stop-opacity="1" stop-color="#d8e2e7" offset="1"/>
    </radialGradient>
    <radialGradient id="SvgjsRadialGradient5275" cx="122.915" cy="85.507" fx="136.35" fy="84.425" r="17.038" gradientTransform="matrix(-0.9926 0.1216 -0.1079 -0.8805 254.1424 145.8439)" gradientUnits="userSpaceOnUse" class="svga-on-canvas-eyesfront-gradient-right-3">
      <stop id="SvgjsStop5276" stop-opacity="1" stop-color="#a4581e" offset="0"/>
      <stop id="SvgjsStop5277" stop-opacity="0.3" stop-color="#a4581e" offset="0.7"/>
      <stop id="SvgjsStop5278" stop-opacity="0" stop-color="#b36a33" offset="1"/>
    </radialGradient>
    <radialGradient id="SvgjsRadialGradient5280" cx="78.447" cy="85.328" r="26.192" gradientTransform="matrix(-0.7158 -0.1012 -0.1016 0.7275 192.0192 45.9445)" gradientUnits="userSpaceOnUse" class="svga-on-canvas-eyesfront-gradient-right-4">
      <stop id="SvgjsStop5281" stop-opacity="0" stop-color="#000000" offset="0.9"/>
      <stop id="SvgjsStop5282" stop-opacity="0.3" stop-color="#000000" offset="1"/>
    </radialGradient>
    <linearGradient id="SvgjsLinearGradient5292" x1="130" y1="81" x2="126" y2="85" gradientTransform="matrix(1 0 0 1 -50 0)" gradientUnits="userSpaceOnUse" class="svga-on-canvas-eyesiris-gradient-left-6">
      <stop id="SvgjsStop5293" stop-opacity="1" stop-color="#ffffff" offset="0"/>
      <stop id="SvgjsStop5294" stop-opacity="0" stop-color="#ffffff" offset="1"/>
    </linearGradient>
    <linearGradient id="SvgjsLinearGradient5302" x1="130" y1="81" x2="126" y2="85" gradientUnits="userSpaceOnUse" class="svga-on-canvas-eyesiris-gradient-right-6">
      <stop id="SvgjsStop5303" stop-opacity="1" stop-color="#ffffff" offset="0"/>
      <stop id="SvgjsStop5304" stop-opacity="0" stop-color="#ffffff" offset="1"/>
    </linearGradient>
    <linearGradient id="SvgjsLinearGradient5308" x1="100" y1="141" x2="100" y2="137" gradientUnits="userSpaceOnUse" class="svga-on-canvas-mouth-gradient-single-0">
      <stop id="SvgjsStop5309" stop-opacity="1" stop-color="#ab6128" offset="0.1"/>
      <stop id="SvgjsStop5310" stop-opacity="1" stop-color="#a4581e" offset="1"/>
    </linearGradient>
    <linearGradient id="SvgjsLinearGradient5339" x1="99.98" y1="171.27" x2="99.98" y2="136.351" gradientUnits="userSpaceOnUse" class="svga-on-canvas-chinshadow-gradient-single-0">
      <stop id="SvgjsStop5340" stop-opacity="0.8" stop-color="#a4581e" offset="0"/>
      <stop id="SvgjsStop5341" stop-opacity="1" stop-color="#853900" offset="0.7"/>
    </linearGradient>
  </defs>
  <g id="svga-group-wrapper">
    <g id="svga-group-backs-single">
      <path id="SvgjsPath5191" d="M225,225H-25V-25h250V225z" fill="#ece5ce" stroke-width="none" opacity="1" stroke="none"/>
      <path id="SvgjsPath5192" d="M16,9.999c0,3.313-2.687,6-6,6s-6-2.687-6-6s2.687-6,6-6S16,6.686,16,9.999z M28,3.999c-3.313,0-6,2.687-6,6s2.687,6,6,6s6-2.687,6-6S31.313,3.999,28,3.999z M46,3.999c-3.313,0-6,2.687-6,6s2.687,6,6,6s6-2.687,6-6S49.313,3.999,46,3.999z M64,3.999c-3.313,0-6,2.687-6,6s2.687,6,6,6s6-2.687,6-6S67.313,3.999,64,3.999z M82,3.999c-3.313,0-6,2.687-6,6s2.687,6,6,6s6-2.687,6-6S85.313,3.999,82,3.999z M100,3.999c-3.313,0-6,2.687-6,6s2.687,6,6,6s6-2.687,6-6S103.313,3.999,100,3.999z M118,3.999c-3.313,0-6,2.687-6,6s2.687,6,6,6s6-2.687,6-6S121.313,3.999,118,3.999z M136,3.999c-3.313,0-6,2.687-6,6s2.687,6,6,6s6-2.687,6-6S139.313,3.999,136,3.999z M154,3.999c-3.313,0-6,2.687-6,6s2.687,6,6,6s6-2.687,6-6S157.313,3.999,154,3.999z M172,3.999c-3.313,0-6,2.687-6,6s2.687,6,6,6s6-2.687,6-6S175.313,3.999,172,3.999z M190,3.999c-3.313,0-6,2.687-6,6s2.687,6,6,6s6-2.687,6-6S193.313,3.999,190,3.999z M16,27.999c0,3.313-2.687,6-6,6s-6-2.687-6-6s2.687-6,6-6S16,24.686,16,27.999z M28,21.999c-3.313,0-6,2.687-6,6s2.687,6,6,6s6-2.687,6-6S31.313,21.999,28,21.999z M46,21.999c-3.313,0-6,2.687-6,6s2.687,6,6,6s6-2.687,6-6S49.313,21.999,46,21.999z M64,21.999c-3.313,0-6,2.687-6,6s2.687,6,6,6s6-2.687,6-6S67.313,21.999,64,21.999z M82,21.999c-3.313,0-6,2.687-6,6s2.687,6,6,6s6-2.687,6-6S85.313,21.999,82,21.999z M100,21.999c-3.313,0-6,2.687-6,6s2.687,6,6,6s6-2.687,6-6S103.313,21.999,100,21.999z M118,21.999c-3.313,0-6,2.687-6,6s2.687,6,6,6s6-2.687,6-6S121.313,21.999,118,21.999z M136,21.999c-3.313,0-6,2.687-6,6s2.687,6,6,6s6-2.687,6-6S139.313,21.999,136,21.999z M154,21.999c-3.313,0-6,2.687-6,6s2.687,6,6,6s6-2.687,6-6S157.313,21.999,154,21.999z M172,21.999c-3.313,0-6,2.687-6,6s2.687,6,6,6s6-2.687,6-6S175.313,21.999,172,21.999z M190,21.999c-3.313,0-6,2.687-6,6s2.687,6,6,6s6-2.687,6-6S193.313,21.999,190,21.999z M16,45.999c0,3.313-2.687,6-6,6s-6-2.687-6-6s2.687-6,6-6S16,42.686,16,45.999z M28,39.999c-3.313,0-6,2.687-6,6s2.687,6,6,6s6-2.687,6-6S31.313,39.999,28,39.999z M46,39.999c-3.313,0-6,2.687-6,6s2.687,6,6,6s6-2.687,6-6S49.313,39.999,46,39.999z M64,39.999c-3.313,0-6,2.687-6,6s2.687,6,6,6s6-2.687,6-6S67.313,39.999,64,39.999z M82,39.999c-3.313,0-6,2.687-6,6s2.687,6,6,6s6-2.687,6-6S85.313,39.999,82,39.999z M100,39.999c-3.313,0-6,2.687-6,6s2.687,6,6,6s6-2.687,6-6S103.313,39.999,100,39.999z M118,39.999c-3.313,0-6,2.687-6,6s2.687,6,6,6s6-2.687,6-6S121.313,39.999,118,39.999z M136,39.999c-3.313,0-6,2.687-6,6s2.687,6,6,6s6-2.687,6-6S139.313,39.999,136,39.999z M154,39.999c-3.313,0-6,2.687-6,6s2.687,6,6,6s6-2.687,6-6S157.313,39.999,154,39.999z M172,39.999c-3.313,0-6,2.687-6,6s2.687,6,6,6s6-2.687,6-6S175.313,39.999,172,39.999z M190,39.999c-3.313,0-6,2.687-6,6s2.687,6,6,6s6-2.687,6-6S193.313,39.999,190,39.999z M16,63.999c0,3.313-2.687,6-6,6s-6-2.687-6-6s2.687-6,6-6S16,60.686,16,63.999z M28,57.999c-3.313,0-6,2.687-6,6s2.687,6,6,6s6-2.687,6-6S31.313,57.999,28,57.999z M46,57.999c-3.313,0-6,2.687-6,6s2.687,6,6,6s6-2.687,6-6S49.313,57.999,46,57.999z M64,57.999c-3.313,0-6,2.687-6,6s2.687,6,6,6s6-2.687,6-6S67.313,57.999,64,57.999z M82,57.999c-3.313,0-6,2.687-6,6s2.687,6,6,6s6-2.687,6-6S85.313,57.999,82,57.999z M100,57.999c-3.313,0-6,2.687-6,6s2.687,6,6,6s6-2.687,6-6S103.313,57.999,100,57.999z M118,57.999c-3.313,0-6,2.687-6,6s2.687,6,6,6s6-2.687,6-6S121.313,57.999,118,57.999z M136,57.999c-3.313,0-6,2.687-6,6s2.687,6,6,6s6-2.687,6-6S139.313,57.999,136,57.999z M154,57.999c-3.313,0-6,2.687-6,6s2.687,6,6,6s6-2.687,6-6S157.313,57.999,154,57.999z M172,57.999c-3.313,0-6,2.687-6,6s2.687,6,6,6s6-2.687,6-6S175.313,57.999,172,57.999z M190,57.999c-3.313,0-6,2.687-6,6s2.687,6,6,6s6-2.687,6-6S193.313,57.999,190,57.999z M16,81.999c0,3.313-2.687,6-6,6s-6-2.687-6-6s2.687-6,6-6S16,78.686,16,81.999z M28,75.999c-3.313,0-6,2.687-6,6s2.687,6,6,6s6-2.687,6-6S31.313,75.999,28,75.999z M46,75.999c-3.313,0-6,2.687-6,6s2.687,6,6,6s6-2.687,6-6S49.313,75.999,46,75.999z M64,75.999c-3.313,0-6,2.687-6,6s2.687,6,6,6s6-2.687,6-6S67.313,75.999,64,75.999z M82,75.999c-3.313,0-6,2.687-6,6s2.687,6,6,6s6-2.687,6-6S85.313,75.999,82,75.999z M100,75.999c-3.313,0-6,2.687-6,6s2.687,6,6,6s6-2.687,6-6S103.313,75.999,100,75.999z M118,75.999c-3.313,0-6,2.687-6,6s2.687,6,6,6s6-2.687,6-6S121.313,75.999,118,75.999z M136,75.999c-3.313,0-6,2.687-6,6s2.687,6,6,6s6-2.687,6-6S139.313,75.999,136,75.999z M154,75.999c-3.313,0-6,2.687-6,6s2.687,6,6,6s6-2.687,6-6S157.313,75.999,154,75.999z M172,75.999c-3.313,0-6,2.687-6,6s2.687,6,6,6s6-2.687,6-6S175.313,75.999,172,75.999z M190,75.999c-3.313,0-6,2.687-6,6s2.687,6,6,6s6-2.687,6-6S193.313,75.999,190,75.999z M16,99.999c0,3.313-2.687,6-6,6s-6-2.687-6-6s2.687-6,6-6S16,96.686,16,99.999z M28,93.999c-3.313,0-6,2.687-6,6s2.687,6,6,6s6-2.687,6-6S31.313,93.999,28,93.999z M46,93.999c-3.313,0-6,2.687-6,6s2.687,6,6,6s6-2.687,6-6S49.313,93.999,46,93.999z M64,93.999c-3.313,0-6,2.687-6,6s2.687,6,6,6s6-2.687,6-6S67.313,93.999,64,93.999z M82,93.999c-3.313,0-6,2.687-6,6s2.687,6,6,6s6-2.687,6-6S85.313,93.999,82,93.999z M100,93.999c-3.313,0-6,2.687-6,6s2.687,6,6,6s6-2.687,6-6S103.313,93.999,100,93.999z M118,93.999c-3.313,0-6,2.687-6,6s2.687,6,6,6s6-2.687,6-6S121.313,93.999,118,93.999z M136,93.999c-3.313,0-6,2.687-6,6s2.687,6,6,6s6-2.687,6-6S139.313,93.999,136,93.999z M154,93.999c-3.313,0-6,2.687-6,6s2.687,6,6,6s6-2.687,6-6S157.313,93.999,154,93.999z M172,93.999c-3.313,0-6,2.687-6,6s2.687,6,6,6s6-2.687,6-6S175.313,93.999,172,93.999z M190,93.999c-3.313,0-6,2.687-6,6s2.687,6,6,6s6-2.687,6-6S193.313,93.999,190,93.999z M16,171.999c0,3.313-2.687,6-6,6s-6-2.687-6-6s2.687-6,6-6S16,168.686,16,171.999z M28,165.999c-3.313,0-6,2.687-6,6s2.687,6,6,6s6-2.687,6-6S31.313,165.999,28,165.999z M46,165.999c-3.313,0-6,2.687-6,6s2.687,6,6,6s6-2.687,6-6S49.313,165.999,46,165.999z M64,165.999c-3.313,0-6,2.687-6,6s2.687,6,6,6s6-2.687,6-6S67.313,165.999,64,165.999z M82,165.999c-3.313,0-6,2.687-6,6s2.687,6,6,6s6-2.687,6-6S85.313,165.999,82,165.999z M100,165.999c-3.313,0-6,2.687-6,6s2.687,6,6,6s6-2.687,6-6S103.313,165.999,100,165.999z M118,165.999c-3.313,0-6,2.687-6,6s2.687,6,6,6s6-2.687,6-6S121.313,165.999,118,165.999z M136,165.999c-3.313,0-6,2.687-6,6s2.687,6,6,6s6-2.687,6-6S139.313,165.999,136,165.999z M154,165.999c-3.313,0-6,2.687-6,6s2.687,6,6,6s6-2.687,6-6S157.313,165.999,154,165.999z M172,165.999c-3.313,0-6,2.687-6,6s2.687,6,6,6s6-2.687,6-6S175.313,165.999,172,165.999z M190,165.999c-3.313,0-6,2.687-6,6s2.687,6,6,6s6-2.687,6-6S193.313,165.999,190,165.999z M16,189.999c0,3.313-2.687,6-6,6s-6-2.687-6-6s2.687-6,6-6S16,186.686,16,189.999z M28,183.999c-3.313,0-6,2.687-6,6s2.687,6,6,6s6-2.687,6-6S31.313,183.999,28,183.999z M46,183.999c-3.313,0-6,2.687-6,6s2.687,6,6,6s6-2.687,6-6S49.313,183.999,46,183.999z M64,183.999c-3.313,0-6,2.687-6,6s2.687,6,6,6s6-2.687,6-6S67.313,183.999,64,183.999z M82,183.999c-3.313,0-6,2.687-6,6s2.687,6,6,6s6-2.687,6-6S85.313,183.999,82,183.999z M100,183.999c-3.313,0-6,2.687-6,6s2.687,6,6,6s6-2.687,6-6S103.313,183.999,100,183.999z M118,183.999c-3.313,0-6,2.687-6,6s2.687,6,6,6s6-2.687,6-6S121.313,183.999,118,183.999z M136,183.999c-3.313,0-6,2.687-6,6s2.687,6,6,6s6-2.687,6-6S139.313,183.999,136,183.999z M154,183.999c-3.313,0-6,2.687-6,6s2.687,6,6,6s6-2.687,6-6S157.313,183.999,154,183.999z M172,183.999c-3.313,0-6,2.687-6,6s2.687,6,6,6s6-2.687,6-6S175.313,183.999,172,183.999z M190,183.999c-3.313,0-6,2.687-6,6s2.687,6,6,6s6-2.687,6-6S193.313,183.999,190,183.999z M16,117.999c0,3.313-2.687,6-6,6s-6-2.687-6-6s2.687-6,6-6S16,114.686,16,117.999z M28,111.999c-3.313,0-6,2.687-6,6s2.687,6,6,6s6-2.687,6-6S31.313,111.999,28,111.999z M46,111.999c-3.313,0-6,2.687-6,6s2.687,6,6,6s6-2.687,6-6S49.313,111.999,46,111.999z M64,111.999c-3.313,0-6,2.687-6,6s2.687,6,6,6s6-2.687,6-6S67.313,111.999,64,111.999z M82,111.999c-3.313,0-6,2.687-6,6s2.687,6,6,6s6-2.687,6-6S85.313,111.999,82,111.999z M100,111.999c-3.313,0-6,2.687-6,6s2.687,6,6,6s6-2.687,6-6S103.313,111.999,100,111.999z M118,111.999c-3.313,0-6,2.687-6,6s2.687,6,6,6s6-2.687,6-6S121.313,111.999,118,111.999z M136,111.999c-3.313,0-6,2.687-6,6s2.687,6,6,6s6-2.687,6-6S139.313,111.999,136,111.999z M154,111.999c-3.313,0-6,2.687-6,6s2.687,6,6,6s6-2.687,6-6S157.313,111.999,154,111.999z M172,111.999c-3.313,0-6,2.687-6,6s2.687,6,6,6s6-2.687,6-6S175.313,111.999,172,111.999z M190,111.999c-3.313,0-6,2.687-6,6s2.687,6,6,6s6-2.687,6-6S193.313,111.999,190,111.999z M16,135.999c0,3.313-2.687,6-6,6s-6-2.687-6-6s2.687-6,6-6S16,132.686,16,135.999z M28,129.999c-3.313,0-6,2.687-6,6s2.687,6,6,6s6-2.687,6-6S31.313,129.999,28,129.999z M46,129.999c-3.313,0-6,2.687-6,6s2.687,6,6,6s6-2.687,6-6S49.313,129.999,46,129.999z M64,129.999c-3.313,0-6,2.687-6,6s2.687,6,6,6s6-2.687,6-6S67.313,129.999,64,129.999z M82,129.999c-3.313,0-6,2.687-6,6s2.687,6,6,6s6-2.687,6-6S85.313,129.999,82,129.999z M100,129.999c-3.313,0-6,2.687-6,6s2.687,6,6,6s6-2.687,6-6S103.313,129.999,100,129.999z M118,129.999c-3.313,0-6,2.687-6,6s2.687,6,6,6s6-2.687,6-6S121.313,129.999,118,129.999z M136,129.999c-3.313,0-6,2.687-6,6s2.687,6,6,6s6-2.687,6-6S139.313,129.999,136,129.999z M154,129.999c-3.313,0-6,2.687-6,6s2.687,6,6,6s6-2.687,6-6S157.313,129.999,154,129.999z M172,129.999c-3.313,0-6,2.687-6,6s2.687,6,6,6s6-2.687,6-6S175.313,129.999,172,129.999z M190,129.999c-3.313,0-6,2.687-6,6s2.687,6,6,6s6-2.687,6-6S193.313,129.999,190,129.999z M16,153.999c0,3.313-2.687,6-6,6s-6-2.687-6-6s2.687-6,6-6S16,150.686,16,153.999z M28,147.999c-3.313,0-6,2.687-6,6s2.687,6,6,6s6-2.687,6-6S31.313,147.999,28,147.999z M46,147.999c-3.313,0-6,2.687-6,6s2.687,6,6,6s6-2.687,6-6S49.313,147.999,46,147.999z M64,147.999c-3.313,0-6,2.687-6,6s2.687,6,6,6s6-2.687,6-6S67.313,147.999,64,147.999z M82,147.999c-3.313,0-6,2.687-6,6s2.687,6,6,6s6-2.687,6-6S85.313,147.999,82,147.999z M100,147.999c-3.313,0-6,2.687-6,6s2.687,6,6,6s6-2.687,6-6S103.313,147.999,100,147.999z M118,147.999c-3.313,0-6,2.687-6,6s2.687,6,6,6s6-2.687,6-6S121.313,147.999,118,147.999z M136,147.999c-3.313,0-6,2.687-6,6s2.687,6,6,6s6-2.687,6-6S139.313,147.999,136,147.999z M154,147.999c-3.313,0-6,2.687-6,6s2.687,6,6,6s6-2.687,6-6S157.313,147.999,154,147.999z M172,147.999c-3.313,0-6,2.687-6,6s2.687,6,6,6s6-2.687,6-6S175.313,147.999,172,147.999z M190,147.999c-3.313,0-6,2.687-6,6s2.687,6,6,6s6-2.687,6-6S193.313,147.999,190,147.999z" fill="#ddd1ab" stroke-width="none" opacity="1" stroke="none"/>
    </g>
    <g id="svga-group-humanwrap-move" transform="matrix(1,0,0,1,0,0)">
      <g id="svga-group-humanwrap" transform="matrix(1,0,0,1,0,0)">
        <g id="svga-group-hair-back-move" transform="matrix(1,0,0,1,0,0)">
          <g id="svga-group-hair-back" transform="matrix(1,0,0,1,0,0)">
            <path id="SvgjsPath5204" d="M151.582 41.064l-99.508-5.662c0 0-25.074 182.88-25.074 188.596 0 0 100.899 0.72 143.907 0C170.103 216.079 151.582 41.064 151.582 41.064z" fill="#4c2d1e" stroke-width="none" opacity="1" stroke="none"/>
          </g>
        </g>
        <g id="svga-group-humanbody-single">
          <path id="SvgjsPath5045" d="M190.858 199.866c-6.008-10.158-13.474-11.973-19.628-13.936 -6.323-2.016-19.346-3.178-26.449-4.6 -6.86-1.373-23.153-5.789-23.339-13.488 -0.192-8.066 4.291-40.09 4.291-40.09H74.005c0 0 4.487 32.023 4.294 40.09 -0.184 7.699-16.48 12.115-23.341 13.488 -7.104 1.422-20.125 2.584-26.448 4.6 -6.156 1.963-13.624 3.777-19.632 13.936 -3.644 6.16-6.008 16.133-6.008 27.133h194C196.869 215.999 194.509 206.026 190.858 199.866z" fill="#b36a33" stroke-width="none" opacity="1" stroke="none"/>
          <path id="SvgjsPath5046" d="M121.442 167.843c2.495 10.929 18.165 13.698 26.293 15.325 21.909 4.379 33.772 5.134 42.297 19.539 2.903 4.916 5.459 15.864 5.962 24.153 1.835 0.291 0.531-17.432-5.136-26.994 -9.742-16.472-29.089-15.135-46.077-18.535C137.921 179.958 121.628 175.542 121.442 167.843L121.442 167.843zM78.558 167.843c-0.186 7.699-16.479 12.115-23.339 13.488 -16.988 3.4-36.335 2.063-46.077 18.535 -5.667 9.563-6.971 27.285-5.136 26.994 0.503-8.289 3.059-19.237 5.962-24.153 8.524-14.405 20.388-15.16 42.297-19.539C60.393 181.541 76.063 178.771 78.558 167.843L78.558 167.843z" fill="#c27e4b" stroke-width="none" opacity="1" stroke="none"/>
          <path id="SvgjsPath5047" d="M51.206 189.513c0 0 28.641 0.299 33.473 1.885 2.314 0.758 8.372 5.633 8.372 5.633s-6.556-3.17-8.658-3.758C79.51 191.909 51.206 189.513 51.206 189.513zM99.795 199.999c2.053-0.041 7.887-3.799 7.887-3.799s-5.574 2.059-7.342 2.16c-1.491 0.086-6.366-1.238-6.366-1.238S98.112 200.032 99.795 199.999zM117.008 192.757c6.75-1.818 29.786-3.23 29.786-3.23s-23.791-0.516-30.51 1.725c-2.252 0.752-7.562 5.16-7.562 5.16S114.786 193.354 117.008 192.757z" fill="#a4581e" stroke-width="none" opacity="1" stroke="none"/>
          <path id="SvgjsPath5048" d="M190.858 199.866c-9.741-16.471-29.122-15.142-46.077-18.535 -6.86-1.373-23.153-5.789-23.339-13.488 -0.192-8.066 4.291-40.09 4.291-40.09H74.005c0 0 4.487 32.023 4.294 40.09 -0.184 7.699-16.48 12.115-23.341 13.488 -7.104 1.422-20.125 2.584-26.448 4.6 -6.156 1.963-13.624 3.777-19.632 13.936 -3.644 6.16-6.008 16.133-6.008 27.133h194C196.869 215.999 194.509 206.026 190.858 199.866z" fill="none" stroke="#853900" stroke-width="1.5" opacity="1"/>
        </g>
        <g id="svga-group-chinshadow-single">
          <path id="SvgjsPath5338" d="M100.002 171.005c7.489 0 14.565-1.857 20.808-4.958 0.274-8.445 2.988-28.94 3.95-35.996 -4.783-0.815-10.15-1.364-15.722-1.647H90.966c-5.673 0.289-11.134 0.853-15.982 1.691 0.963 7.063 3.646 27.319 3.942 35.82C85.233 169.097 92.406 171.005 100.002 171.005z" fill="url(#SvgjsLinearGradient5339)" opacity="1"/>
        </g>
        <g id="svga-group-clothes-single">
          <path id="SvgjsPath5324" d="M43.52 224.812c-25.518 0-39.538-0.228-41.685-0.677l-0.006-0.106c-1.693-26.63 13.847-40.759 47.508-43.193 12.458 7.729 32.47 11.655 59.42 11.655 28.606 0 56.588-4.536 67.29-6.486 15.393 8.005 21.154 18.146 21.173 37.391 -3.973 0.296-97.133 1.417-153.692 1.417C43.524 224.812 43.523 224.812 43.52 224.812z" fill="#ab4ae5" stroke-width="none" opacity="1" stroke="none"/>
          <path id="SvgjsPath5325" d="M197.22 223.395c0 0 0.123-29.332-29.542-35.087 4.5-0.689 5.727-1.822 8.369-2.304C191.439 194.009 197.201 204.15 197.22 223.395zM149.079 189.982c-28.224 3.263-75.592 5.834-99.743-9.147 -29.679 2.148-49.28 13.477-47.501 43.3 0.125 0.026 0.294 0.052 0.5 0.076 1.263-17.184 6.809-23.152 16.483-29.703 3.413 4.323 5.416 12.663 5.416 18.717 0-8.584 0.171-12.44-1.001-21.023 9.145-5.108 19.212-6.182 28.034-7.614C80.659 198.762 128.615 197.274 149.079 189.982z" fill="#c067f4" stroke-width="none" opacity="1" stroke="none"/>
          <path id="SvgjsPath5326" d="M37.72 183.39c27.476 18.844 85.402 17.577 118.296 13.195C164.233 195.185 78.922 212.784 37.72 183.39z" fill="#9830d6" stroke-width="none" opacity="1" stroke="none"/>
          <path id="SvgjsPath5327" d="M176.029 185.905c-34.551 6.296-97.805 12.705-126.7-5.17 -30.352 2.195-49.475 13.813-47.6 43.3 0 0.061 0.01 0.12 0.01 0.181 7.252 1.769 192.442-0.348 195.58-0.73C197.319 205.35 192.637 194.517 176.029 185.905zM1.869 224.035c0-15.576 5.009-27.341 17.333-33.974 1.613 2.277 3.151 8.374 3.471 9.014 0 0-0.755-7.2-2.224-9.776 3.821-2.025 8.463-4.228 17.2-6.094 25.036 18.93 93.373 20.543 130.85 10.5 -0.01 0-0.03 0.011-0.06 0.011 -30.759 8.372-103.456 7.688-130.41-10.591 1.55-0.478 9.214-1.622 11.12-1.89 41.865 26.274 125.692 5.373 126.692 5.373 15.153 8.502 20.633 18.511 21.219 36.707C128.054 221.169 39.365 224.866 1.869 224.035z" fill="#7404b7" stroke-width="none" opacity="1" stroke="none"/>
        </g>
        <g id="svga-group-head" transform="matrix(1,0,0,1,0,0)">
          <g id="svga-group-ears-left-move" transform="matrix(1,0,0,1,0,0)" style="display: none;">
            <g id="svga-group-ears-left" transform="matrix(1,0,0,1,0,0)">
              <path id="SvgjsPath5319" d="M45.671 83.846c-1.485-2.408-6.327-8.995-10.031-8.071 -3.012 0.755-2.973 4.861-3.206 7.289 -0.34 3.563-0.464 9.771 0.525 12.29 0.951 2.418 3.96 7.092 5.828 8.874 2.299 2.185 5.97 9.15 6.422 9.872 0.711 1.142 2.137 2.776 4.325 2.647 3.071-0.181 5.724-3.018 5.965-4.386C56.8 104.941 49.536 90.11 45.671 83.846z" fill="#b36a33" stroke="#853900" stroke-width="1.5" opacity="1"/>
              <path id="SvgjsPath5320" d="M44.2 98.511c-0.143-0.55 0.007-1.479 0.154-2.375 0.133-0.817 0.258-1.588 0.182-2.134 -0.289-2.043-1.915-5.926-2.976-8.03 -1.223-2.421-3.199-5.471-5.679-6.257 -1.024-0.326-1.699 0.063-2.089 0.458 -0.288 0.29-0.353 0.63-0.259 0.671 0.095 0.04 0.307-0.242 0.617-0.508 0.254-0.217-0.508-0.039 0 0 -0.205 1.017-0.865 6.162-0.41 9.918 0.358 2.955 1.05 5.162 1.263 5.492 0.031 0.349 0.083 0.689 0.16 1.02 1.002 4.312 7.518 9.95 9.034 11.557 0.28 0.296 0.574 0.473 0.646 0.4 0.072-0.073-0.101-0.365-0.379-0.664 -1.498-1.595-7.971-7.214-8.939-11.375 -1.027-4.414 3.912-10.958 4.699-12.343 0.401 0.65 0.742 1.274 1.004 1.795 0.207 0.408 0.434 0.886 0.67 1.403 -0.463 0.721-5.118 5.992-3.934 10.21 0.438 1.556 3.822 3.561 5.131 4.11 0.72 0.303 0.99 0.754 1.304 1.277 0.364 0.608 0.033 2.179 1.23 2.677 0.244 0.103 0.464 0.144 0.659 0.144 0.338 0 0.594-0.127 0.783-0.278 0.02 0.266 0.019 0.605 0.009 0.921 -0.012 0.407 0.047 0.596 0.148 0.604 0.103 0.008 0.21-0.17 0.223-0.574 0.017-0.5 0.014-1.116-0.077-1.412 -0.269-0.868-1.088-1.851-1.957-2.89C44.563 101.304 44.422 99.364 44.2 98.511zM34.969 94.688c-2.348-6.77 1.283-12.936 1.81-13.865 1.012 0.39 2.562 2.145 3.221 3.163C39.52 84.802 35.067 90.135 34.969 94.688zM45.772 105.475c-1.084-0.451-0.706-1.939-1.056-2.525 -0.318-0.531-0.646-1.078-1.479-1.429 -0.18-0.076-0.379-0.191-0.583-0.325 -2.682-5.939 0.293-8.537 1.039-9.068 0.229 0.726 0.399 1.392 0.476 1.926 0.068 0.49-0.059 1.27-0.181 2.023 -0.153 0.934-0.31 1.901-0.147 2.526 0.244 0.931 0.411 2.904 1.291 3.958 0.781 0.935 1.583 1.899 1.857 2.685C46.871 105.403 46.5 105.778 45.772 105.475z" fill="#853900" stroke-width="none" opacity="1" stroke="none"/>
            </g>
          </g>
          <g id="svga-group-ears-right-move" transform="matrix(1,0,0,1,0,0)" style="display: none;">
            <g id="svga-group-ears-right" transform="matrix(1,0,0,1,0,0)">
              <path id="SvgjsPath5321" d="M154.066 83.846c1.486-2.408 6.328-8.995 10.031-8.071 3.012 0.755 2.973 4.861 3.207 7.289 0.34 3.563 0.463 9.771-0.525 12.29 -0.951 2.418-3.961 7.092-5.828 8.874 -2.299 2.185-5.971 9.15-6.422 9.872 -0.711 1.142-2.137 2.776-4.326 2.647 -3.07-0.181-5.723-3.018-5.965-4.386C142.938 104.941 150.203 90.11 154.066 83.846z" fill="#b36a33" stroke="#853900" stroke-width="1.5" opacity="1"/>
              <path id="SvgjsPath5322" d="M154.322 102.327c-0.869 1.039-1.688 2.022-1.957 2.89 -0.092 0.296-0.094 0.912-0.078 1.412 0.014 0.404 0.121 0.582 0.225 0.574 0.102-0.008 0.16-0.196 0.148-0.604 -0.01-0.315-0.012-0.655 0.008-0.921 0.189 0.151 0.445 0.278 0.783 0.278 0.195 0 0.416-0.041 0.66-0.144 1.195-0.498 0.865-2.068 1.229-2.677 0.314-0.523 0.584-0.975 1.305-1.277 1.309-0.549 4.693-2.554 5.131-4.11 1.184-4.218-3.471-9.489-3.934-10.21 0.234-0.517 0.463-0.995 0.668-1.403 0.264-0.521 0.604-1.145 1.006-1.795 0.787 1.384 5.725 7.929 4.699 12.343 -0.969 4.161-7.441 9.781-8.939 11.375 -0.279 0.299-0.453 0.591-0.381 0.664 0.074 0.072 0.367-0.104 0.646-0.4 1.516-1.606 8.031-7.245 9.033-11.557 0.078-0.33 0.131-0.671 0.162-1.02 0.211-0.331 0.904-2.537 1.262-5.492 0.455-3.756-0.205-8.901-0.41-9.918 0.508-0.039-0.254-0.217 0 0 0.311 0.266 0.523 0.548 0.617 0.508 0.094-0.041 0.029-0.381-0.258-0.671 -0.391-0.394-1.066-0.784-2.09-0.458 -2.48 0.786-4.457 3.836-5.68 6.257 -1.061 2.104-2.686 5.987-2.975 8.03 -0.076 0.546 0.049 1.317 0.182 2.134 0.146 0.896 0.297 1.824 0.154 2.375C155.316 99.364 155.176 101.304 154.322 102.327zM159.738 83.987c0.66-1.019 2.209-2.773 3.221-3.163 0.527 0.929 4.158 7.095 1.811 13.865C164.672 90.135 160.219 84.802 159.738 83.987zM152.75 105.246c0.273-0.785 1.076-1.75 1.857-2.685 0.879-1.053 1.047-3.026 1.291-3.958 0.162-0.625 0.006-1.592-0.146-2.526 -0.123-0.754-0.25-1.534-0.182-2.023 0.076-0.535 0.246-1.201 0.475-1.926 0.746 0.531 3.721 3.128 1.039 9.068 -0.203 0.133-0.402 0.249-0.584 0.325 -0.832 0.351-1.16 0.898-1.479 1.429 -0.35 0.586 0.029 2.074-1.055 2.525C153.238 105.778 152.867 105.403 152.75 105.246z" fill="#853900" stroke-width="none" opacity="1" stroke="none"/>
            </g>
          </g>
          <g id="svga-group-faceshape-wrap" transform="matrix(1,0,0,1,0,0)">
            <g id="svga-group-faceshape-single">
              <path id="SvgjsPath5335" d="M100.002 0.867C66.381 0.814 39.186 27.899 39.134 61.374c-0.008 5.316 0.669 10.473 1.953 15.389l0.004 0c0.011 0.053 8.845 35.17 15.375 53.208 5.578 15.41 23.021 29.3 43.536 29.3 20.514 0 37.958-13.89 43.537-29.3 6.529-18.038 15.362-53.155 15.374-53.208l0.005 0c1.283-4.916 1.961-10.072 1.952-15.389C160.819 27.899 133.623 0.814 100.002 0.867z" fill="#b36a33" stroke-width="none" opacity="1" stroke="none"/>
              <path id="SvgjsPath5336" d="M146.769 22.635c7.449 10.15 11.881 22.804 11.902 36.538 0.008 5.316-0.644 10.473-1.884 15.389l-0.005 0c-0.012 0.053-8.522 35.17-14.816 53.208 -5.376 15.409-22.191 29.3-41.963 29.3 -19.773 0-36.585-13.891-41.961-29.3 -6.296-18.038-14.809-53.155-14.82-53.208l-0.004 0c-1.237-4.916-1.891-10.072-1.882-15.389 0.021-13.73 4.448-26.381 11.895-36.529 -8.781 10.491-14.072 23.989-14.095 38.729 -0.008 5.316 0.669 10.473 1.953 15.389l0.004 0c0.011 0.053 8.845 35.17 15.375 53.208 5.578 15.41 23.021 29.3 43.536 29.3 20.514 0 37.958-13.89 43.537-29.3 6.529-18.038 15.362-53.155 15.374-53.208l0.005 0c1.283-4.916 1.961-10.072 1.952-15.389C160.848 46.629 155.554 33.127 146.769 22.635z" fill="#ab6128" stroke-width="none" opacity="1" stroke="none"/>
              <path id="SvgjsPath5337" d="M100.002 0.867C66.381 0.814 39.186 27.899 39.134 61.374c-0.008 5.316 0.669 10.473 1.953 15.389l0.004 0c0.011 0.053 8.845 35.17 15.375 53.208 5.578 15.41 23.021 29.3 43.536 29.3 20.514 0 37.958-13.89 43.537-29.3 6.529-18.038 15.362-53.155 15.374-53.208l0.005 0c1.283-4.916 1.961-10.072 1.952-15.389C160.819 27.899 133.623 0.814 100.002 0.867z" fill="none" stroke="#853900" stroke-width="1.5" opacity="1"/>
            </g>
          </g>
          <g id="svga-group-mouth-single-move" transform="matrix(1,0,0,1,0,0)">
            <g id="svga-group-mouth-single" transform="matrix(1,0,0,1,0,0)">
              <path id="SvgjsPath5307" d="M99.867 141.087c-4.159 0-7.258-4.297-7.258-4.297 7.261 3.32 14.915 0 14.915 0S103.516 141.087 99.867 141.087z" fill="url(#SvgjsLinearGradient5308)" opacity="1"/>
              <path id="SvgjsPath5311" d="M112.127 131.943c0 0.625-7.773 3.456-12.258 3.575 -4.18 0.112-12.333-2.682-12.333-3.575 0-0.892 6.441-1.558 12.729-1.558C106.555 130.386 112.127 131.052 112.127 131.943z" fill="#ffffff" stroke-width="none" opacity="1"/>
              <path id="SvgjsPath5312" d="M95.441 127.853c0.99-0.131 2.728 0.908 4.824 0.909 1.541 0.002 3.426-1.067 4.612-0.909 2.529 0.341 3.857 1.882 10.491 2.47 0 0-3.22 1.083-4.075 1.15 -2.72 0.216-7.215-0.169-11.287-0.181 -4.556-0.02-8.941 0.43-11.697 0.301 -0.994-0.051-3.941-1.137-3.941-1.137C89.901 130.196 92.547 128.235 95.441 127.853zM84.369 130.818c0 0 4.514 3.538 6.253 4.76 2.007 1.411 5.029 3.623 9.474 3.557 3.563-0.058 6.641-1.816 8.477-2.986 1.978-1.259 6.796-5.463 6.796-5.463 -2.77 0.633-2.77 0.633-4.075 1.149 -2.741 1.084-7.477 2.722-11.173 2.722 -4.563 0-8.936-1.639-11.811-2.603C86.315 131.286 84.369 130.818 84.369 130.818z" fill="#43194b" stroke="#340e3c" stroke-width="0.75" opacity="1"/>
              <path id="SvgjsPath5313" d="M115.592 130.572c-0.458 0.663-2.14 0.715-2.888 0.977 -1.098 0.383-2.162 0.856-3.259 1.245 -2.693 0.954-5.51 1.792-8.375 1.98 -5.336 0.351-10.599-1.808-15.596-3.41 -0.424-0.136-0.994-0.175-1.359-0.449 -0.326-0.244-0.015-0.768 0.336-0.701 1.051 0.199 2.092 0.731 3.141 0.994 1.224 0.308 2.583 0.16 3.832 0.113 1.592-0.059 3.184-0.146 4.777-0.207 2.927-0.109 5.842-0.053 8.768 0.059 2.621 0.101 5.366 0.402 7.915-0.332 0.688-0.199 1.379-0.399 2.047-0.656C115.179 130.09 115.94 130.07 115.592 130.572 115.415 130.828 115.632 130.515 115.592 130.572zM108.39 131.773c-3.415 0.013-6.822-0.286-10.24-0.217 -1.874 0.038-3.745 0.139-5.617 0.219 -0.566 0.024-1.625-0.143-2.11 0.204 -0.466 0.334 1.182 0.807 1.325 0.852 3.306 1.039 6.829 1.78 10.304 1.346 1.704-0.214 3.382-0.632 5.023-1.13 0.64-0.195 1.439-0.341 1.987-0.743C109.635 131.883 108.656 131.773 108.39 131.773 107.333 131.777 109.492 131.771 108.39 131.773z" fill="#19011d" stroke-width="none" opacity="1" stroke="none"/>
              <path id="SvgjsPath5314" d="M99.901 138.136c-4.165 0-7.465-2.404-10.634-4.801 7.714 2.61 14.222 2.572 21.819-0.346C107.874 135.609 104.215 138.095 99.901 138.136zM93.601 130.478c5.567-0.262 11.102 0.228 16.657 0.047 -1.847-0.453-3.623-1.426-5.512-1.681 -1.452-0.142-2.984 0.918-4.481 0.918 -1.633-0.001-3.113-0.918-4.692-0.918 -2.024 0.27-3.923 1.229-5.881 1.771C90.996 130.593 92.299 130.547 93.601 130.478 95.469 130.39 92.18 130.543 93.601 130.478z" fill="#52275a" stroke-width="none" opacity="1" stroke="none"/>
              <path id="SvgjsPath5315" d="M95.134 136.031c1.596 0.319 3.265 0.525 4.987 0.525 1.453 0 3.029-0.222 4.598-0.563 -1.384 0.624-2.973 1.132-4.654 1.141C98.283 137.145 96.471 136.67 95.134 136.031z" fill="#62386a" stroke-width="none" opacity="1" stroke="none"/>
            </g>
          </g>
          <g id="svga-group-eyes-left-move" transform="matrix(1,0,0,1,0,0)">
            <g id="svga-group-eyes-left" transform="matrix(1,0,0,1,0,0)">
              <g id="svga-group-eyesback-left">
                <path id="SvgjsPath5227" d="M76.925 80.872c4.607 0.618 8.048 3.822 11.044 9 0.004 0.006 0.013 0.004 0.018 0.009 0.008 0.032 0.022 0.063 0.029 0.094 0.29 1.188-0.752 2.198-2.068 2.988 -4.747 0.924-9.302 2.162-14.155 1.625 -9.719-1.074-10.042-6.145-10.551-7.458 -0.291-1.299-0.374-2.626-0.397-3.883 1.844 0.032 3.983-1.056 5.781-1.555C68.731 81.108 73.444 80.404 76.925 80.872z" fill="url(#SvgjsRadialGradient5228)" opacity="1"/>
              </g>
              <g id="svga-group-eyesiriswrapper-left" transform="matrix(1,0,0,1,0,1)">
                <g id="svga-group-eyesiriscontrol-left" transform="matrix(1,0,0,1,0,0)">
                  <g id="svga-group-eyesiris-left" transform="matrix(1,0,0,1,0,0)">
                    <path id="SvgjsPath5285" d="M83.206 89.25c-1.231 4.522-5.896 7.187-10.429 5.944 -4.528-1.241-7.203-5.918-5.97-10.442 1.23-4.526 5.905-7.19 10.434-5.947C81.768 80.045 84.439 84.723 83.206 89.25z" fill="#3e4442" stroke="#0e1613" stroke-width="0.5" opacity="1"/>
                    <path id="SvgjsPath5286" d="M73.962 81.918l-0.221-0.395c-0.776 0.308-1.524 0.631-2.232 0.973l0.524 1.267 -0.066 0.732 -2.021-1.189c-0.66 0.367-1.273 0.75-1.867 1.14l0.005 0.013 -0.692 0.78 1.107 1.132 -1.491 0.813 0.563 0.931 2.633 0.262 -2.468 1.673 2.641-0.146L68.984 92.3l3.255-1.969 -0.875 3.349 1.883-3.093 0.363 3.319 0.544-2.936 0.5-0.061 0.709 3.329 0.216-0.998c0.284-0.074 1.018 0.997 1.297 0.922l-0.829-3.621 1.817 3.621 -0.737-3.756 2.236 2.905c0.08-0.025 0.278-1.204 0.357-1.228l-1.392-2.081 2.53 0.763 -1.518-1.643 -1.219-1.009 5.083 1.137 -2.83-1.723 2-0.818 -4.329-0.437 4.281-2.27 -3.875 0.988 -1.043-0.565 -0.256-0.501 0.074-1.199 0.086-1.967 -1.768 3.113 -0.156-2.279 -0.222-0.597c-0.354 0.124-0.702 0.245-1.043 0.375L73.962 81.918z" fill="#535353" stroke-width="none" opacity="1" stroke="none"/>
                    <path id="SvgjsPath5287" d="M83.303 85.237c-7.429 0.338-11.206 1.927-16.591 3.727 -1.038-4.574 1.839-9.12 6.42-10.149C77.712 77.786 82.267 80.661 83.303 85.237z" fill="#2b3531" stroke-width="none" opacity="0.9" stroke="none"/>
                    <path id="SvgjsPath5288" d="M76.234,84.165c-1.869-0.536-3.777,0.532-4.258,2.395c-0.484,1.853,0.64,3.793,2.51,4.329c1.871,0.537,3.781-0.532,4.264-2.386C79.237,86.639,78.107,84.7,76.234,84.165z" fill="#000000" stroke-width="none" opacity="0.8"/>
                    <path id="SvgjsPath5289" d="M76.234,84.165c-1.869-0.536-3.777,0.532-4.258,2.395c-0.484,1.853,0.64,3.793,2.51,4.329c1.871,0.537,3.781-0.532,4.264-2.386C79.237,86.639,78.107,84.7,76.234,84.165z" fill="none" stroke="#0e1613" stroke-width="0.75" opacity="1"/>
                    <path id="SvgjsPath5290" d="M68.812 92.044c0.868 1.378 2.021 2.416 3.653 2.762 1.879 0.398 2.094-2.101 0.748-2.387 -1.02-0.215-1.667-0.715-2.199-1.561C70.039 89.31 68.029 90.803 68.812 92.044L68.812 92.044z" fill="#ffffff" stroke-width="none" opacity="0.5"/>
                    <path id="SvgjsPath5291" d="M76.468 83.449c1.316 0.265 2.082 1.087 2.747 2.323 1.222 2.272 4.676 0.252 3.453-2.019 -1.073-1.995-2.86-3.703-5.138-4.162C74.615 79.004 74.206 82.993 76.468 83.449L76.468 83.449z" fill="url(#SvgjsLinearGradient5292)" opacity="1"/>
                  </g>
                </g>
              </g>
              <g id="svga-group-eyesfront-left">
                <path id="SvgjsPath5252" d="M55.5 88c0 13.808 8.283 24.999 18.5 24.999S92.5 101.808 92.5 88c0-13.809-8.283-25.001-18.5-25.001S55.5 74.191 55.5 88zM61.241 87.132c-0.291-1.299-0.374-2.626-0.397-3.883 1.844 0.032 3.983-1.056 5.781-1.555 2.106-0.586 6.819-1.29 10.3-0.822 4.607 0.618 8.048 3.822 11.044 9 0.004 0.006 0.013 0.004 0.018 0.009 0.008 0.032 0.022 0.063 0.029 0.094 0.29 1.188-0.752 2.198-2.068 2.988 -4.747 0.924-9.302 2.162-14.155 1.625C62.073 93.516 61.75 88.445 61.241 87.132z" fill="#b36a33" stroke-width="none" opacity="1" stroke="none"/>
                <path id="SvgjsPath5253" d="M75.005 100.952c9.299 1.281 17.73-4.324 18.83-12.528 1.101-8.205-5.541-15.895-14.842-17.18 -9.301-1.28-17.729 4.326-18.829 12.53C59.064 91.977 65.704 99.664 75.005 100.952zM60.844 83.249c1.844 0.032 3.983-1.056 5.781-1.555 2.106-0.586 6.819-1.29 10.3-0.822 4.607 0.618 8.048 3.822 11.044 9 0.004 0.006 0.013 0.004 0.018 0.009 0.008 0.032 0.022 0.063 0.029 0.094 0.29 1.188-0.752 2.198-2.068 2.988 -4.747 0.924-9.302 2.162-14.155 1.625 -9.719-1.074-10.042-6.145-10.551-7.458C60.95 85.833 60.867 84.506 60.844 83.249z" fill="url(#SvgjsRadialGradient5254)" opacity="1"/>
                <path id="SvgjsPath5258" d="M61.241 87.132c-0.291-1.299-0.374-2.626-0.397-3.883 1.844 0.032 3.983-1.056 5.781-1.555 2.106-0.586 6.819-1.29 10.3-0.822 4.607 0.618 8.048 3.822 11.044 9 0.004 0.006 0.013 0.004 0.018 0.009 0.008 0.032 0.022 0.063 0.029 0.094 0.29 1.188-0.752 2.198-2.068 2.988 -4.747 0.924-9.302 2.162-14.155 1.625C62.073 93.516 61.75 88.445 61.241 87.132z" fill="url(#SvgjsRadialGradient5259)" opacity="1"/>
                <path id="SvgjsPath5262" d="M76.428 75.952c3.311 0.503 6.572 2.172 9.612 4.298 0.65 0.455 1.396 0.972 2.57 1.622 -0.834-0.189-1.614-0.667-2.343-1.106 0.76 0.798 1.475 1.76 2.063 2.694 -2.63-3.653-7.485-6.286-11.574-7.082 -3.927-0.765-10.991 0.142-16.17 3.104C65.306 76.058 72.317 75.327 76.428 75.952z" fill="#853900" stroke-width="none" opacity="1" stroke="none"/>
                <path id="SvgjsPath5263" d="M88.054 89.86c-0.034 0.003-0.066-0.014-0.084-0.043 -2.996-5.044-6.437-8.167-11.045-8.769 -3.479-0.456-8.192 0.23-10.3 0.801 -1.867 0.505-4.106 1.641-5.996 1.518 -1.754-0.115-3.748-1.511-4.801-2.513 1.128 0.843 4.185 1.027 5.099 0.811 -0.282-0.073-1.853-1.056-2.157-1.348 0.741 0.422 3.617 0.862 4.542 0.628 -0.265-0.14-1.585-1.042-1.891-1.398 0.14 0.122 3.378 0.74 5.034 0.188 9.938-3.31 18.034-0.452 21.862 9.95 0.014 0.035 0.009 0.074-0.011 0.105 -0.021 0.031-0.054 0.051-0.091 0.055L88.054 89.86zM61.004 86.846c-0.644 2.483 1.093 7.881 10.4 8.505 6.612 0.442 15.696-2.737 14.568-2.526 -4.756 0.9-9.318 2.112-14.181 1.589C60.769 93.227 61.832 87.027 61.004 86.846z" fill="#191c29" stroke-width="none" opacity="1" stroke="none"/>
              </g>
            </g>
          </g>
          <g id="svga-group-eyes-right-move" transform="matrix(1,0,0,1,0,0)">
            <g id="svga-group-eyes-right" transform="matrix(1,0,0,1,0,0)">
              <g id="svga-group-eyesback-right">
                <path id="SvgjsPath5235" d="M123.075 80.872c-4.607 0.618-8.048 3.822-11.044 9 -0.004 0.006-0.013 0.004-0.018 0.009 -0.008 0.032-0.022 0.063-0.029 0.094 -0.29 1.188 0.752 2.198 2.068 2.988 4.747 0.924 9.302 2.162 14.155 1.625 9.719-1.074 10.042-6.145 10.551-7.458 0.291-1.299 0.374-2.626 0.397-3.883 -1.844 0.032-3.983-1.056-5.781-1.555C131.269 81.108 126.556 80.404 123.075 80.872z" fill="url(#SvgjsRadialGradient5236)" opacity="1"/>
              </g>
              <g id="svga-group-eyesiriswrapper-right" transform="matrix(1,0,0,1,0,1)">
                <g id="svga-group-eyesiriscontrol-right" transform="matrix(1,0,0,1,0,0)">
                  <g id="svga-group-eyesiris-right" transform="matrix(1,0,0,1,0,0)">
                    <path id="SvgjsPath5295" d="M133.199 89.25c-1.231 4.522-5.896 7.187-10.429 5.944 -4.528-1.241-7.203-5.918-5.97-10.442 1.23-4.526 5.905-7.19 10.434-5.947C131.761 80.045 134.433 84.723 133.199 89.25z" fill="#3e4442" stroke="#0e1613" stroke-width="0.5" opacity="1"/>
                    <path id="SvgjsPath5296" d="M123.955 81.918l-0.221-0.395c-0.776 0.308-1.524 0.631-2.232 0.973l0.524 1.267 -0.066 0.732 -2.021-1.189c-0.66 0.367-1.273 0.75-1.867 1.14l0.005 0.013 -0.692 0.78 1.107 1.132L117 87.182l0.563 0.931 2.633 0.262 -2.468 1.673 2.641-0.146 -1.392 2.398 3.255-1.969 -0.875 3.349 1.883-3.093 0.363 3.319 0.544-2.936 0.5-0.061 0.709 3.329 0.216-0.998c0.284-0.074 1.018 0.997 1.297 0.922l-0.829-3.621 1.817 3.621 -0.737-3.756 2.236 2.905c0.08-0.025 0.278-1.204 0.357-1.228l-1.392-2.081 2.53 0.763 -1.518-1.643 -1.219-1.009 5.083 1.137 -2.83-1.723 2-0.818 -4.329-0.437 4.281-2.27 -3.875 0.988 -1.043-0.565 -0.256-0.501 0.074-1.199 0.086-1.967 -1.768 3.113 -0.156-2.279 -0.222-0.597c-0.354 0.124-0.702 0.245-1.043 0.375L123.955 81.918z" fill="#535353" stroke-width="none" opacity="1" stroke="none"/>
                    <path id="SvgjsPath5297" d="M133.296 85.237c-7.429 0.338-11.206 1.927-16.591 3.727 -1.038-4.574 1.839-9.12 6.42-10.149C127.705 77.786 132.26 80.661 133.296 85.237z" fill="#2b3531" stroke-width="none" opacity="0.9" stroke="none"/>
                    <path id="SvgjsPath5298" d="M126.229,84.165c-1.869-0.536-3.777,0.532-4.259,2.395c-0.484,1.853,0.641,3.793,2.509,4.329c1.873,0.537,3.78-0.532,4.266-2.386C129.229,86.639,128.101,84.7,126.229,84.165z" fill="#000000" stroke-width="none" opacity="0.8"/>
                    <path id="SvgjsPath5299" d="M126.229,84.165c-1.869-0.536-3.777,0.532-4.259,2.395c-0.484,1.853,0.641,3.793,2.509,4.329c1.873,0.537,3.78-0.532,4.266-2.386C129.229,86.639,128.101,84.7,126.229,84.165z" fill="none" stroke="#0e1613" stroke-width="0.75" opacity="1"/>
                    <path id="SvgjsPath5300" d="M118.805 92.044c0.868 1.378 2.021 2.416 3.653 2.762 1.879 0.398 2.094-2.101 0.748-2.387 -1.02-0.215-1.667-0.715-2.199-1.561C120.032 89.31 118.022 90.803 118.805 92.044L118.805 92.044z" fill="#ffffff" stroke-width="none" opacity="0.5"/>
                    <path id="SvgjsPath5301" d="M126.461 83.449c1.316 0.265 2.082 1.087 2.747 2.323 1.222 2.272 4.676 0.252 3.453-2.019 -1.073-1.995-2.86-3.703-5.138-4.162C124.608 79.004 124.199 82.993 126.461 83.449L126.461 83.449z" fill="url(#SvgjsLinearGradient5302)" opacity="1"/>
                  </g>
                </g>
              </g>
              <g id="svga-group-eyesfront-right">
                <path id="SvgjsPath5273" d="M126 62.999c-10.217 0-18.5 11.193-18.5 25.001 0 13.808 8.283 24.999 18.5 24.999S144.5 101.808 144.5 88C144.5 74.191 136.217 62.999 126 62.999zM128.208 94.589c-4.854 0.537-9.408-0.702-14.155-1.625 -1.316-0.791-2.358-1.8-2.068-2.988 0.007-0.032 0.021-0.063 0.029-0.094 0.005-0.005 0.014-0.003 0.018-0.009 2.996-5.178 6.437-8.382 11.044-9 3.48-0.468 8.193 0.236 10.3 0.822 1.798 0.499 3.938 1.587 5.781 1.555 -0.023 1.257-0.106 2.583-0.397 3.883C138.25 88.445 137.927 93.516 128.208 94.589z" fill="#b36a33" stroke-width="none" opacity="1" stroke="none"/>
                <path id="SvgjsPath5274" d="M139.836 83.774c-1.101-8.205-9.528-13.811-18.829-12.53 -9.301 1.285-15.942 8.976-14.842 17.18 1.1 8.204 9.531 13.809 18.83 12.528C134.296 99.664 140.936 91.977 139.836 83.774zM138.759 87.132c-0.509 1.313-0.832 6.384-10.551 7.458 -4.854 0.537-9.408-0.702-14.155-1.625 -1.316-0.791-2.358-1.8-2.068-2.988 0.007-0.032 0.021-0.063 0.029-0.094 0.005-0.005 0.014-0.003 0.018-0.009 2.996-5.178 6.437-8.382 11.044-9 3.48-0.468 8.193 0.236 10.3 0.822 1.798 0.499 3.938 1.587 5.781 1.555C139.133 84.506 139.05 85.833 138.759 87.132z" fill="url(#SvgjsRadialGradient5275)" opacity="1"/>
                <path id="SvgjsPath5279" d="M138.759 87.132c0.291-1.299 0.374-2.626 0.397-3.883 -1.844 0.032-3.983-1.056-5.781-1.555 -2.106-0.586-6.819-1.29-10.3-0.822 -4.607 0.618-8.048 3.822-11.044 9 -0.004 0.006-0.013 0.004-0.018 0.009 -0.008 0.032-0.022 0.063-0.029 0.094 -0.29 1.188 0.752 2.198 2.068 2.988 4.747 0.924 9.302 2.162 14.155 1.625C137.927 93.516 138.25 88.445 138.759 87.132z" fill="url(#SvgjsRadialGradient5280)" opacity="1"/>
                <path id="SvgjsPath5283" d="M123.572 75.952c-3.311 0.503-6.572 2.172-9.612 4.298 -0.65 0.455-1.396 0.972-2.57 1.622 0.834-0.189 1.614-0.667 2.343-1.106 -0.76 0.798-1.475 1.76-2.063 2.694 2.63-3.653 7.485-6.286 11.574-7.082 3.927-0.765 10.991 0.142 16.17 3.104C134.694 76.058 127.683 75.327 123.572 75.952z" fill="#853900" stroke-width="none" opacity="1" stroke="none"/>
                <path id="SvgjsPath5284" d="M111.784 89.846c-0.037-0.003-0.07-0.024-0.091-0.055 -0.02-0.031-0.024-0.07-0.011-0.105 3.828-10.402 11.925-13.26 21.862-9.95 1.656 0.552 4.895-0.067 5.034-0.188 -0.306 0.355-1.626 1.258-1.891 1.398 0.925 0.234 3.801-0.206 4.542-0.628 -0.305 0.292-1.875 1.275-2.157 1.348 0.914 0.216 3.971 0.032 5.099-0.811 -1.053 1.002-3.047 2.398-4.801 2.513 -1.89 0.124-4.129-1.012-5.996-1.518 -2.107-0.571-6.82-1.256-10.3-0.801 -4.608 0.602-8.049 3.725-11.045 8.769 -0.018 0.029-0.05 0.046-0.084 0.043L111.784 89.846zM128.208 94.413c-4.862 0.523-9.425-0.688-14.181-1.589 -1.128-0.211 7.956 2.969 14.568 2.526 9.308-0.624 11.044-6.021 10.4-8.505C138.168 87.027 139.231 93.227 128.208 94.413z" fill="#191c29" stroke-width="none" opacity="1" stroke="none"/>
              </g>
            </g>
          </g>
          <g id="svga-group-facehighlight-single">
            <path id="SvgjsPath5037" d="M140.204 113.007c0.035 22.275-17.995 40.365-40.273 40.396 -22.274 0.036-40.361-17.993-40.396-40.272C59.501 90.857 77.53 72.77 99.808 72.735 122.083 72.701 140.171 90.73 140.204 113.007z" fill="url(#SvgjsRadialGradient5038)" opacity="1"/>
            <path id="SvgjsPath5041" d="M135,55.999c0,19.329-15.671,35-35,35c-19.329,0-35-15.671-35-35s15.671-35,35-35C119.329,20.999,135,36.67,135,55.999z" fill="url(#SvgjsRadialGradient5042)" opacity="1"/>
          </g>
          <g id="svga-group-eyebrows-left-move" transform="matrix(1,0,0,1,0,0)">
            <g id="svga-group-eyebrows-left-rotate" transform="matrix(1,0,0,1,0,0)">
              <g id="svga-group-eyebrows-left" transform="matrix(1,0,0,1,0,0)">
                <path id="SvgjsPath5305" d="M57.672 67.988c7.019 3.546 13.071 4.443 29.64 6.435 0.542 0.086 0.929 0.187 1.277 0.191 1.666-0.032 3.083-1.561 2.854-2.926C90.66 66.485 64.682 68.92 57.672 67.988z" fill="#6b4e40" stroke-width="none" opacity="1" stroke="none"/>
              </g>
            </g>
          </g>
          <g id="svga-group-eyebrows-right-move" transform="matrix(1,0,0,1,0,0)">
            <g id="svga-group-eyebrows-right-rotate" transform="matrix(1,0,0,1,0,0)">
              <g id="svga-group-eyebrows-right" transform="matrix(1,0,0,1,0,0)">
                <path id="SvgjsPath5306" d="M142.328 67.988c-10.868 5.491-21.39 4.561-29.64 6.435 -1 0.159-1.385 0.356-2.354-0.054 -2.145-0.933-2.398-3.339-0.594-4.002C117.75 66.365 132.818 69.252 142.328 67.988z" fill="#6b4e40" stroke-width="none" opacity="1" stroke="none"/>
              </g>
            </g>
          </g>
          <g id="svga-group-nose-single-move" transform="matrix(1,0,0,1,0,0)">
            <g id="svga-group-nose-single" transform="matrix(1,0,0,1,0,0)">
              <path id="SvgjsPath5316" d="M93.787 116.99c0 0 1.319-0.969 5.75-0.969 5.24 0 6.685 0.759 6.685 0.759s-3.71 2.4-6.937 1.925C96.513 118.295 93.787 116.99 93.787 116.99z" fill="#a4581e" stroke-width="none" opacity="1" stroke="none"/>
              <path id="SvgjsPath5317" d="M100.06 120.097c-1.181 0-2.382-0.529-3.423-1.045 -0.423-0.208-0.838-0.374-1.304-0.461 -0.582-0.109-1.656 0.086-2.085-0.356 -0.457-0.473-0.085-1.217 0.54-1.244 0.771 0.012 1.551 0.067 2.298 0.267 1.309 0.35 2.427 1.254 3.814 1.366 1.051 0.084 2.219-0.58 3.159-0.977 0.738-0.312 3.209-1.475 3.805-0.457 0.369 0.629-0.222 1.075-0.789 1.107 -0.702 0.039-1.394 0.277-2.043 0.534C102.777 119.327 101.441 120.097 100.06 120.097z" fill="#94470d" stroke-width="none" opacity="1" stroke="none"/>
              <path id="SvgjsPath5318" d="M99.989 116.076c0.556 0 1.853-0.647 1.64-1.902 -1.26-7.41-1.64-20.245-1.64-20.245s-0.964 15.033-1.788 20.245C98.001 115.443 99.36 116.076 99.989 116.076z" fill="#d29466" stroke-width="none" opacity="0.2" stroke="none"/>
            </g>
          </g>
          <g id="svga-group-hair-front" transform="matrix(1,0,0,1,0,0)">
            <path id="SvgjsPath5206" d="M60.35 193.688c1.158-14.492 0.475-21.283-0.77-33.608 -2.595-25.694-3.31-42.128-4.043-68.959 -0.316-11.197-0.641-22.776 3.313-33.606 3.554-10.115 11.301-18.694 20.722-22.95 7.624-3.447 14.646-3.392 22.43-3.392 9.351 0 15.884 0.73 21.614 4.47 16.191 10.58 17.635 25.628 19.629 46.457 2.178 22.685 1.116 25.168 1.134 46.728 0.03 49.463-3.013 57.144 2.977 99.22 6.649 0.343 26.664-167.79 4.624-195.021 -12.594-15.575-87.972-7.296-98.007-0.403 -16.856 11.572 1.878 194.396 1.878 194.396C55.895 225.376 60.088 196.829 60.35 193.688z" fill="#6b4e40" stroke-width="none" opacity="0.1" stroke="none"/>
            <path id="SvgjsPath5207" d="M58.48 202.358c1.212-15.154 0.495-22.254-0.806-35.143 -2.714-26.865-3.462-44.05-4.228-72.104 -0.33-11.708-0.671-23.814 3.464-35.139 3.719-10.576 11.822-19.547 21.678-23.997 7.975-3.604 15.32-3.547 23.465-3.547 9.779 0 16.612 0.765 22.609 4.675 16.939 11.062 18.443 26.796 20.532 48.575 2.279 23.72 1.17 26.316 1.183 48.859 0.037 51.718-3.554 59.332 2.714 103.329 6.955 0.357 27.631 1.225 34.401 0.728 5.637-57.613-7.946-77.721-10.325-127.722 -1.139-24.668-2.271-67.687-25.324-96.161C134.665-1.573 119.08-6.259 101.801-2.154 88.552-4.505 75.76-1.338 65.263 5.871 47.63 17.97 32.909 43.054 31.021 64.217c-2.411 27.16 2.334 39.43-2.501 66.618 -5.761 32.415-14.864 57.097-10.235 104.528 5.256 0.388 35.999 1.845 35.999 1.845C54.328 235.491 58.206 205.643 58.48 202.358z" fill="#6b4e40" stroke-width="none" opacity="1" stroke="none"/>
            <path id="SvgjsPath5208" d="M156.514 238.203c-3.052-0.125-5.674-0.247-7.423-0.337 -6.268-43.997-2.677-51.611-2.714-103.329 -0.013-22.543 1.097-25.14-1.183-48.859 -2.089-21.778-3.593-37.513-20.532-48.575 -10.166-6.63-35.575-5.874-46.074-1.127 -9.855 4.45-17.959 13.421-21.678 23.997 -4.136 11.325-3.794 23.431-3.464 35.139 0.766 28.055 1.514 45.239 4.228 72.104 1.301 12.889 2.019 19.988 0.806 35.143 -0.274 3.284-4.152 33.133-4.197 34.85 0 0-3.401-0.161-8.125-0.391 0.354-11.398 5.847-22.797 6.771-34.195 1.944-48-11.669-94-0.972-143 2.916-12 7.778-22 18.475-28 9.207-5.261 26.281-6.583 32.057-2.817 0.096-0.611 0.196-1.222 0.289-1.869 1.514-8.9-1.219-12.378 1.395-18.231 -2.012 5.547 0.221 9.073-0.122 15.242 -0.069 1.079-0.416 2.695-0.861 4.65 6.292-2.681 20.152-1.896 26.556 3.025 33.178 25.495 17.501 112 22.364 169C152.767 213.505 154.927 225.928 156.514 238.203zM53.269 39.909C60.691 29.864 72.2 20.585 84.275 18.63c2.96-0.479 5.707-0.608 5.531-0.598C77.578 18.446 67.012 22.58 57.789 32.8 46.872 44.509 47.371 54.632 47.321 57.023 47.732 50.831 48.508 47.439 53.269 39.909zM109.749 21.904c1.317-0.368 4.279-1.342 8.201-1.098 15.563 0.723 34.484 18.312 36.685 42.554 0.576 5.964 1.216 24.332 0.4 10.625 -0.497-8.323-1.369-12.445-2.197-16.1 -4.167-18.454-23.161-40.319-41.44-36.366C110.345 21.765 109.749 21.904 109.749 21.904zM42.198 86.344c0.791 27.147 2.753 45.85 2.237 58.753 -1.471 16.183-3.123 29.451-3.123 29.451 -0.03 0.413 0.08-1.676 0.305-5.11C44.104 134.158 41.714 129.297 42.198 86.344zM156.817 88.121c0.417 7.484 2.223 39.41 2.494 46.176 0.227 5.292 0.263 40.677 0.381 42.338C159.72 177.225 157.602 148.345 156.817 88.121zM164.506 97.312c0.925 14.561 6.923 72.884 14.438 100.406 0.145 0.453-0.622-1.821-1.851-5.594C167.657 161.228 165.585 129.036 164.506 97.312zM38.992 117.395c-1.623 6.133-0.24 9.802-0.187 15.916 -0.286 14.263-5.243 30.714-7.033 38.957 -2.097 8.726-2.847 32.982-2.842 33.984 -0.033 1-0.85-26.039 3.125-42.239 10.377-40.344 3.92-29.618 6.383-44.87C38.791 118.026 38.992 117.395 38.992 117.395zM106.508 6.016c4.76-1.002 3.222-0.752 7.014-1.173 16.098-1.667 26.966 10.983 29.381 12.878 0.138 0.13-0.571-0.515-1.729-1.582C126.713 4.276 117.499 4.108 106.508 6.016zM57.182 29.987c6.694-6.878 14.555-16.267 30.61-16.92 6.169-0.293 9.09 1.436 10.062 1.682 0 0-8.626-4.578-25.444 3.183C66.992 20.292 60.918 26.445 57.182 29.987z" fill="#5c3d2e" stroke-width="none" opacity="1" stroke="none"/>
            <path id="SvgjsPath5209" d="M184.627 202.31c-11.808-41.571-15.057-85.129-18.904-128.688 -3.153-28.372-15.003-61.281-41.116-72.753 -2.839-1.247-27.424-2.821-39.59 0.753 -41.812 10-53.492 58.916-50.563 100 2.212 31.021-9.32 67.609-17.325 101.74 0.902-28.354 7.081-48.278 11.391-72.527 4.835-27.188 0.09-39.458 2.501-66.618C32.909 43.054 47.63 17.97 65.263 5.871 75.76-1.338 88.552-4.505 101.801-2.154c12.718-3.021 24.514-1.269 35.107 6.351 0.023 0.004 0.048 0.011 0.072 0.015 3.741 2.716 7.431 6.261 10.862 10.499 23.054 28.474 24.186 71.492 25.324 96.161C174.967 148.733 183.188 169.466 184.627 202.31zM55.419 27.308c-5.997 7.544-2.415 2.772 3.69-3.506C76.943 7.338 88.264 6.365 98.295 8.659 81.472 4.024 66.606 13.774 55.419 27.308zM111.979 11.433c11.421-3.929 25.295-1.496 39.866 21.474 10.844 18.168 10.938 40.817 11.57 43.92 0.059 0.443-0.307-1.789-0.794-5.48 -1.308-8.44-3.563-29.778-22.548-51.36C135.036 14.173 124.136 7.854 111.979 11.433zM157.705 66.21c3.031 29.726 4.887 72.826 4.887 72.826 0.056 0.683-0.711-6.873-1.462-15.11C158.358 93.735 159.653 97.339 157.705 66.21zM154.559 136.402c0.332 21.587 0.059 17.159 2.332 48.097 1.977 16.713 2.607 19.68-0.461 1.053C153.621 167.693 154.113 155.258 154.559 136.402zM164.298 144.114c3.975 29.918 3.572 29.703 4.521 45.704 1.172 16.188 1.584 18.725-0.499 0.988C167.087 180.877 166.418 167.275 164.298 144.114zM48.856 38.604C42.754 50.786 41.06 60.74 39.84 74.385c-1.997 19.679-0.178 21.159-1.365 34.119 -0.013 0.167 0.007-0.172 0.046-0.899C38.99 91.267 34.574 64.494 48.856 38.604zM60.097 37.08c-6.143 5.974-9.404 17.112-11.477 25.781 -4.44 19.145-2.167 83.919-3.542 36.666 -0.629-17.744-1.211-32.394 7.84-52.141C54.873 43.101 56.972 39.759 60.097 37.08zM46.554 137.29c0.157 11.389 1.336 12.657 2.418 25.876 1.28 12.79-2.299 33.213-2.422 35.392 -0.194 1.541 2.623-23.021 1.202-40.579C46.261 141.57 46.374 144.686 46.554 137.29zM39.933 152.671c-2.873 11.796-1.906 13.18-5.192 60.408C34.667 214.079 34.458 171.888 39.933 152.671zM66.763 29.981c0.972-0.551 14.882-11.058 28.83-6.116 1.283 0.413 2.125 0.836 2.276 0.867 0.972 0.387-5.218-2.399-11.905-1.512C75.772 24.125 68.383 29.131 66.763 29.981zM106.568 19.154c2.092-0.977 4.102-2.125 9.005-2.732 13.841-1.694 22.483 9.902 23.455 10.708 0.943 1.03-4.335-5.62-12.846-8.638 -1.473-0.502-0.018-0.072-2.558-0.81 -0.412-0.144-2.072-0.543-3.782-0.742C114.035 16.403 111.294 17.185 106.568 19.154z" fill="#7a6155" stroke-width="none" opacity="1" stroke="none"/>
            <path id="SvgjsPath5210" d="M173.267 110.867c-1.178-24.84-2.121-67.53-25.351-96.22 -14.129-17.46-30.241-20.7-46.099-16.9 -12.067-2.14-25.018 0.08-36.609 8.04 -17.327 11.89-32.358 36.84-34.284 58.42 -2.411 27.17 2.334 39.43-2.498 66.61 -6.068 34.13-14.509 55.09-10.288 104.04 0.02 0.2 0.039 0.4 0.058 0.6 0.097 0.011 0.185 0.011 0.283 0.021 10.501 0.59 22.606 1.229 35.567 1.82 0.078 0 0.156 0 0.234 0.01 30.221 1.37 65.079 2.5 95.039 2.35 0.065-0.01 0.136-0.01 0.201 0 12.37-0.08 23.902-0.37 33.927-0.96 0.047 0 0.097-0.01 0.137-0.01 0.029-0.3 0.056-0.6 0.085-0.89C189.25 181.737 175.628 160.558 173.267 110.867zM54.416 236.268c1.536-12.28 4.005-32.04 4.161-33.9 2.44-30.52-3.004-29.06-4.958-104.48 -0.33-12.77-1.069-25.69 3.383-37.88 3.695-10.51 11.659-19.44 21.626-23.94 4.336-1.96 8.955-2.93 13.65-3.39 15.722-0.35 24.649-0.5 32.33 4.51 16.568 10.82 18.312 25.76 20.487 48.5 2.284 23.77 1.167 26.22 1.187 48.85 0.021 28.521-0.205 2.311-0.933 56.49 -0.089 6.42 0.037 12.82 0.517 19.23 0.651 8.819 2.155 20.34 3.256 28.05C119.523 238.268 84.705 237.348 54.416 236.268zM94.427 32.518c1.799-0.13 3.607-0.19 5.416-0.2C98.152 32.377 96.354 32.447 94.427 32.518zM183.513 237.808c-9.936 0.359-21.563 0.51-34.159 0.5 -0.688-5.96-1.488-12.95-1.506-13.23 -0.863-8.55-1.42-17.149-1.4-25.75 0-1 4.094-80.43 1.344-106.32 -2.781-26.17-4.706-49.5-26.81-58.53 -4.655-1.91-9.715-2.36-17.064-2.26 -0.03 0-0.057 0-0.085 0 -5.331-0.16-10.474-0.18-15.472 0.55 -0.01 0-0.02 0-0.038 0 -5.456 0.8-10.726 2.47-15.839 5.8 -23.833 15.48-21.033 45.2-20.81 63.09 0.817 66.53 8.459 68.5 5.621 104.48 -0.03 0.34-1.936 18.43-3.141 30.12 -13-0.45-25.164-0.931-35.705-1.391 -0.116-1.93-0.184-3-0.184-3.08 -2.907-57.51 10.209-76.38 14.1-110.51 2.965-25.96-3.043-46.38 2.703-68.53 8.021-30.91 32.962-59.16 65.556-54.7 1.04 0.14 2.091 0.32 3.139 0.53 0.36-0.08 0.73-0.14 1.092-0.2 11.869-2.08 23.353-0.89 33.748 8.25 30.356 26.68 30.668 78.31 31.629 96.69 3.045 58.33 16.354 73.521 13.739 128.38C183.97 231.798 183.758 234.688 183.513 237.808z" fill="#3d2012" stroke-width="none" opacity="1" stroke="none"/>
          </g>
          <g id="svga-group-glasses-single-move" transform="matrix(1,0,0,1,0,0)">
            <g id="svga-group-glasses-single" transform="matrix(1,0,0,1,0,0)">
              <path id="SvgjsPath5169" d="M100,18.13L100,18.13L100,18.13L100,18.13z" fill="#26120b" stroke-width="none" opacity="1"/>
            </g>
          </g>
        </g>
      </g>
    </g>
    <rect id="SvgjsRect5022" width="200" height="15" x="0" y="185" fill="#ecf0f1" opacity="0.5" style="display: none;"/>
    <text id="SvgjsText5023" font-family="Roboto, Helvetica, Arial, sans-serif" font-size="10px" text-anchor="start" font-weight="400" anchor="start" fill="#333333" x="57.982696533203125" y="182.42838287353516" style="display: none;">
      <tspan id="SvgjsTspan5024" dy="13" x="57.982696533203125">Created on face.co</tspan>
    </text>
  </g>
</svg>
